<svg width="24" height="24" viewBox="0 0 24 24" fill="none" xmlns="http://www.w3.org/2000/svg">
<g clip-path="url(#clip0_26_487)">
<path d="M-4 0H28V24H-4V0Z" fill="#74ACDF"/>
<path d="M-4 8H28V16H-4V8Z" fill="white"/>
<path d="M11.8462 12.0623L13.2142 15.0383C13.2142 15.0383 13.2382 15.0959 13.2766 15.0815C13.315 15.0623 13.291 15.0095 13.291 15.0095L12.1534 11.9375M12.1198 13.0943C12.1006 13.5455 12.379 13.7951 12.3454 14.1983C12.307 14.6063 12.5278 14.8319 12.5854 14.9903C12.6334 15.1487 12.523 15.2399 12.571 15.2639C12.619 15.2879 12.715 15.1631 12.6862 14.9375C12.6526 14.7167 12.4846 14.6495 12.523 14.1551C12.5614 13.6607 12.3214 13.5455 12.379 13.0991" fill="#F6B40E"/>
<path d="M11.8462 12.0623L13.2142 15.0383C13.2142 15.0383 13.2382 15.0959 13.2766 15.0815C13.315 15.0623 13.291 15.0095 13.291 15.0095L12.1534 11.9375M12.1198 13.0943C12.1006 13.5455 12.379 13.7951 12.3454 14.1983C12.307 14.6063 12.5278 14.8319 12.5854 14.9903C12.6334 15.1487 12.523 15.2399 12.571 15.2639C12.619 15.2879 12.715 15.1631 12.6862 14.9375C12.6526 14.7167 12.4846 14.6495 12.523 14.1551C12.5614 13.6607 12.3214 13.5455 12.379 13.0991" stroke="#85340A" stroke-width="0.132"/>
<path d="M11.8341 11.9988L11.9591 15.2718C11.9591 15.2718 11.9592 15.3342 12.0002 15.3356C12.043 15.3326 12.0411 15.2746 12.0411 15.2746L12.1657 12.0011M11.6919 13.057C11.5015 13.4665 11.6632 13.8036 11.4779 14.1633C11.2863 14.5255 11.4039 14.8185 11.3965 14.9868C11.3802 15.1516 11.2433 15.1936 11.2785 15.2341C11.3137 15.2746 11.4501 15.1961 11.5098 14.9766C11.5633 14.7598 11.4338 14.6334 11.6585 14.1913C11.8832 13.7493 11.7055 13.551 11.9296 13.1606" fill="#F6B40E"/>
<path d="M11.8341 11.9988L11.9591 15.2718C11.9591 15.2718 11.9592 15.3342 12.0002 15.3356C12.043 15.3326 12.0411 15.2746 12.0411 15.2746L12.1657 12.0011M11.6919 13.057C11.5015 13.4665 11.6632 13.8036 11.4779 14.1633C11.2863 14.5255 11.4039 14.8185 11.3965 14.9868C11.3802 15.1516 11.2433 15.1936 11.2785 15.2341C11.3137 15.2746 11.4501 15.1961 11.5098 14.9766C11.5633 14.7598 11.4338 14.6334 11.6585 14.1913C11.8832 13.7493 11.7055 13.551 11.9296 13.1606" stroke="#85340A" stroke-width="0.132"/>
<path d="M11.8471 11.9354L10.71 15.0071C10.71 15.0071 10.6863 15.0648 10.7236 15.0818C10.7643 15.0953 10.7847 15.041 10.7847 15.041L12.1525 12.0644M11.3108 12.8586C10.9782 13.1641 10.9985 13.5374 10.6897 13.7988C10.374 14.0601 10.3706 14.3758 10.2993 14.5285C10.2213 14.6745 10.0787 14.6609 10.0957 14.7118C10.1127 14.7627 10.2688 14.7423 10.408 14.5625C10.5403 14.3826 10.469 14.2163 10.8458 13.8938C11.2225 13.5714 11.1343 13.3202 11.4907 13.0453" fill="#F6B40E"/>
<path d="M11.8471 11.9354L10.71 15.0071C10.71 15.0071 10.6863 15.0648 10.7236 15.0818C10.7643 15.0953 10.7847 15.041 10.7847 15.041L12.1525 12.0644M11.3108 12.8586C10.9782 13.1641 10.9985 13.5374 10.6897 13.7988C10.374 14.0601 10.3706 14.3758 10.2993 14.5285C10.2213 14.6745 10.0787 14.6609 10.0957 14.7118C10.1127 14.7627 10.2688 14.7423 10.408 14.5625C10.5403 14.3826 10.469 14.2163 10.8458 13.8938C11.2225 13.5714 11.1343 13.3202 11.4907 13.0453" stroke="#85340A" stroke-width="0.132"/>
<path d="M11.8835 11.882L9.65753 14.2847C9.65753 14.2847 9.61349 14.3289 9.64149 14.3589C9.67393 14.387 9.71352 14.3447 9.71352 14.3447L12.1163 12.118M11.0347 12.5297C10.6105 12.6846 10.4865 13.0373 10.1011 13.1606C9.70947 13.2813 9.58554 13.5716 9.46124 13.6854C9.33327 13.7904 9.20676 13.7233 9.20296 13.7768C9.19915 13.8303 9.35119 13.8713 9.54859 13.7583C9.73973 13.6428 9.73752 13.4619 10.209 13.3081C10.6804 13.1544 10.695 12.8886 11.1295 12.771" fill="#F6B40E"/>
<path d="M11.8835 11.882L9.65753 14.2847C9.65753 14.2847 9.61349 14.3289 9.64149 14.3589C9.67393 14.387 9.71352 14.3447 9.71352 14.3447L12.1163 12.118M11.0347 12.5297C10.6105 12.6846 10.4865 13.0373 10.1011 13.1606C9.70947 13.2813 9.58554 13.5716 9.46124 13.6854C9.33327 13.7904 9.20676 13.7233 9.20296 13.7768C9.19915 13.8303 9.35119 13.8713 9.54859 13.7583C9.73973 13.6428 9.73752 13.4619 10.209 13.3081C10.6804 13.1544 10.695 12.8886 11.1295 12.771" stroke="#85340A" stroke-width="0.132"/>
<path d="M12.2063 13.1712C12.2303 13.6032 12.4751 13.7952 12.4271 14.1936C12.5327 13.8816 12.2783 13.6368 12.2927 13.176M11.9231 12.0336L12.8591 14.0784L12.0767 11.9712" fill="#85340A"/>
<path d="M11.7424 13.1611C11.5992 13.5694 11.7519 13.8405 11.5551 14.1902C11.7721 13.9424 11.6307 13.6188 11.8204 13.1986M11.9161 12.0017L11.9983 14.2491L12.0818 12.0029" fill="#85340A"/>
<path d="M11.3175 12.9741C11.029 13.2965 11.0664 13.6054 10.7507 13.8531C11.046 13.7072 11.0392 13.3542 11.3752 13.0386M11.9217 11.9694L11.1377 14.0772L12.0744 12.0339" fill="#85340A"/>
<path d="M10.9968 12.6388C10.6069 12.8263 10.5232 13.126 10.1367 13.2341C10.4654 13.2122 10.5942 12.8835 11.0254 12.7205M11.9394 11.9418L10.4085 13.5891L12.0559 12.0599" fill="#85340A"/>
<path d="M11.9377 11.8462L8.9617 13.2142C8.9617 13.2142 8.9041 13.2382 8.9185 13.2766C8.9377 13.315 8.9905 13.291 8.9905 13.291L12.0625 12.1534M10.9057 12.1198C10.4545 12.1006 10.2049 12.379 9.8017 12.3454C9.3937 12.307 9.1681 12.5278 9.0097 12.5854C8.8513 12.6334 8.7601 12.523 8.7361 12.571C8.7121 12.619 8.8369 12.715 9.0625 12.6862C9.2833 12.6526 9.3505 12.4846 9.8449 12.523C10.3393 12.5614 10.4545 12.3214 10.9009 12.379" fill="#F6B40E"/>
<path d="M11.9377 11.8462L8.9617 13.2142C8.9617 13.2142 8.9041 13.2382 8.9185 13.2766C8.9377 13.315 8.9905 13.291 8.9905 13.291L12.0625 12.1534M10.9057 12.1198C10.4545 12.1006 10.2049 12.379 9.8017 12.3454C9.3937 12.307 9.1681 12.5278 9.0097 12.5854C8.8513 12.6334 8.7601 12.523 8.7361 12.571C8.7121 12.619 8.8369 12.715 9.0625 12.6862C9.2833 12.6526 9.3505 12.4846 9.8449 12.523C10.3393 12.5614 10.4545 12.3214 10.9009 12.379" stroke="#85340A" stroke-width="0.132"/>
<path d="M12.0012 11.8341L8.72818 11.9591C8.72818 11.9591 8.66578 11.9592 8.66439 12.0002C8.66743 12.043 8.7254 12.0411 8.7254 12.0411L11.9989 12.1657M10.943 11.6919C10.5335 11.5015 10.1964 11.6632 9.83671 11.4779C9.47446 11.2863 9.18154 11.4039 9.01316 11.3965C8.84844 11.3802 8.80644 11.2433 8.76589 11.2785C8.72535 11.3137 8.80391 11.4501 9.02336 11.5098C9.24021 11.5633 9.36659 11.4338 9.80866 11.6585C10.2507 11.8832 10.449 11.7055 10.8394 11.9296" fill="#F6B40E"/>
<path d="M12.0012 11.8341L8.72818 11.9591C8.72818 11.9591 8.66578 11.9592 8.66439 12.0002C8.66743 12.043 8.7254 12.0411 8.7254 12.0411L11.9989 12.1657M10.943 11.6919C10.5335 11.5015 10.1964 11.6632 9.83671 11.4779C9.47446 11.2863 9.18154 11.4039 9.01316 11.3965C8.84844 11.3802 8.80643 11.2433 8.76589 11.2785C8.72535 11.3137 8.80391 11.4501 9.02336 11.5098C9.24021 11.5633 9.36659 11.4338 9.80866 11.6585C10.2507 11.8832 10.449 11.7055 10.8394 11.9296" stroke="#85340A" stroke-width="0.132"/>
<path d="M12.0646 11.8471L8.99291 10.71C8.99291 10.71 8.93521 10.6863 8.91824 10.7236C8.90467 10.7643 8.95897 10.7847 8.95897 10.7847L11.9356 12.1525M11.1414 11.3108C10.8359 10.9782 10.4626 10.9985 10.2012 10.6897C9.93987 10.374 9.62422 10.3706 9.47148 10.2993C9.32554 10.2213 9.33911 10.0787 9.2882 10.0957C9.23729 10.1127 9.25765 10.2688 9.43754 10.408C9.61743 10.5403 9.78374 10.469 10.1062 10.8458C10.4286 11.2225 10.6798 11.1343 10.9547 11.4907" fill="#F6B40E"/>
<path d="M12.0646 11.8471L8.99291 10.71C8.99291 10.71 8.93521 10.6863 8.91824 10.7236C8.90467 10.7643 8.95897 10.7847 8.95897 10.7847L11.9356 12.1525M11.1414 11.3108C10.8359 10.9782 10.4626 10.9985 10.2012 10.6897C9.93987 10.374 9.62422 10.3706 9.47148 10.2993C9.32554 10.2213 9.33911 10.0787 9.2882 10.0957C9.23729 10.1127 9.25765 10.2688 9.43754 10.408C9.61743 10.5403 9.78374 10.469 10.1062 10.8458C10.4286 11.2225 10.6798 11.1343 10.9547 11.4907" stroke="#85340A" stroke-width="0.132"/>
<path d="M12.118 11.8835L9.71528 9.65753C9.71528 9.65753 9.67106 9.61349 9.6411 9.64149C9.61297 9.67393 9.65535 9.71352 9.65535 9.71352L11.882 12.1163M11.4703 11.0347C11.3154 10.6105 10.9627 10.4865 10.8394 10.1011C10.7187 9.70947 10.4284 9.58554 10.3146 9.46124C10.2096 9.33327 10.2767 9.20676 10.2232 9.20296C10.1697 9.19915 10.1287 9.35119 10.2417 9.54859C10.3572 9.73973 10.5381 9.73752 10.6919 10.209C10.8456 10.6804 11.1114 10.695 11.229 11.1295" fill="#F6B40E"/>
<path d="M12.118 11.8835L9.71528 9.65753C9.71528 9.65753 9.67106 9.61349 9.6411 9.64149C9.61297 9.67393 9.65535 9.71352 9.65535 9.71352L11.882 12.1163M11.4703 11.0347C11.3154 10.6105 10.9627 10.4865 10.8394 10.1011C10.7187 9.70947 10.4284 9.58554 10.3146 9.46124C10.2096 9.33327 10.2767 9.20676 10.2232 9.20296C10.1697 9.19915 10.1287 9.35119 10.2417 9.54859C10.3572 9.73973 10.5381 9.73752 10.6919 10.209C10.8456 10.6804 11.1114 10.695 11.229 11.1295" stroke="#85340A" stroke-width="0.132"/>
<path d="M10.8288 12.2063C10.3968 12.2303 10.2048 12.4751 9.80641 12.4271C10.1184 12.5327 10.3632 12.2783 10.824 12.2927M11.9664 11.9231L9.92161 12.8591L12.0288 12.0767" fill="#85340A"/>
<path d="M10.8389 11.7424C10.4306 11.5992 10.1595 11.7519 9.80981 11.5551C10.0576 11.7721 10.3812 11.6307 10.8014 11.8204M11.9983 11.9161L9.75092 11.9983L11.9971 12.0818" fill="#85340A"/>
<path d="M11.0259 11.3175C10.7035 11.029 10.3946 11.0664 10.1469 10.7507C10.2928 11.046 10.6458 11.0392 10.9614 11.3752M12.0306 11.9217L9.92284 11.1377L11.9661 12.0744" fill="#85340A"/>
<path d="M11.3612 10.9968C11.1737 10.6069 10.874 10.5232 10.7659 10.1367C10.7878 10.4654 11.1165 10.5942 11.2795 11.0254M12.0582 11.9394L10.4109 10.4085L11.9401 12.0559" fill="#85340A"/>
<path d="M12.1538 11.9377L10.7858 8.9617C10.7858 8.9617 10.7618 8.9041 10.7234 8.9185C10.685 8.9377 10.709 8.9905 10.709 8.9905L11.8466 12.0625M11.8802 10.9057C11.8994 10.4545 11.621 10.2049 11.6546 9.8017C11.693 9.3937 11.4722 9.1681 11.4146 9.0097C11.3666 8.8513 11.477 8.7601 11.429 8.7361C11.381 8.7121 11.285 8.8369 11.3138 9.0625C11.3474 9.2833 11.5154 9.3505 11.477 9.8449C11.4386 10.3393 11.6786 10.4545 11.621 10.9009" fill="#F6B40E"/>
<path d="M12.1538 11.9377L10.7858 8.9617C10.7858 8.9617 10.7618 8.9041 10.7234 8.9185C10.685 8.9377 10.709 8.9905 10.709 8.9905L11.8466 12.0625M11.8802 10.9057C11.8994 10.4545 11.621 10.2049 11.6546 9.8017C11.693 9.3937 11.4722 9.1681 11.4146 9.0097C11.3666 8.8513 11.477 8.7601 11.429 8.7361C11.381 8.7121 11.285 8.8369 11.3138 9.0625C11.3474 9.2833 11.5154 9.3505 11.477 9.8449C11.4386 10.3393 11.6786 10.4545 11.621 10.9009" stroke="#85340A" stroke-width="0.132"/>
<path d="M12.1659 12.0012L12.0409 8.72818C12.0409 8.72818 12.0408 8.66578 11.9998 8.66439C11.957 8.66743 11.9589 8.7254 11.9589 8.7254L11.8343 11.9989M12.3081 10.943C12.4985 10.5335 12.3368 10.1964 12.5221 9.83671C12.7137 9.47446 12.5961 9.18154 12.6035 9.01316C12.6198 8.84844 12.7567 8.80644 12.7215 8.76589C12.6863 8.72535 12.5499 8.80391 12.4902 9.02336C12.4367 9.24021 12.5662 9.36659 12.3415 9.80866C12.1168 10.2507 12.2945 10.449 12.0704 10.8394" fill="#F6B40E"/>
<path d="M12.1659 12.0012L12.0409 8.72818C12.0409 8.72818 12.0408 8.66578 11.9998 8.66439C11.957 8.66743 11.9589 8.7254 11.9589 8.7254L11.8343 11.9989M12.3081 10.943C12.4985 10.5335 12.3368 10.1964 12.5221 9.83671C12.7137 9.47446 12.5961 9.18154 12.6035 9.01316C12.6198 8.84844 12.7567 8.80643 12.7215 8.76589C12.6863 8.72535 12.5499 8.80391 12.4902 9.02336C12.4367 9.24021 12.5662 9.36659 12.3415 9.80866C12.1168 10.2507 12.2945 10.449 12.0704 10.8394" stroke="#85340A" stroke-width="0.132"/>
<path d="M12.1529 12.0646L13.29 8.99291C13.29 8.99291 13.3137 8.93521 13.2764 8.91824C13.2357 8.90467 13.2153 8.95897 13.2153 8.95897L11.8475 11.9356M12.6892 11.1414C13.0218 10.8359 13.0015 10.4626 13.3103 10.2012C13.626 9.93987 13.6294 9.62422 13.7007 9.47148C13.7787 9.32554 13.9213 9.33911 13.9043 9.2882C13.8873 9.23729 13.7312 9.25765 13.592 9.43754C13.4597 9.61743 13.531 9.78374 13.1542 10.1062C12.7775 10.4286 12.8657 10.6798 12.5093 10.9547" fill="#F6B40E"/>
<path d="M12.1529 12.0646L13.29 8.99291C13.29 8.99291 13.3137 8.93521 13.2764 8.91824C13.2357 8.90467 13.2153 8.95897 13.2153 8.95897L11.8475 11.9356M12.6892 11.1414C13.0218 10.8359 13.0015 10.4626 13.3103 10.2012C13.626 9.93987 13.6294 9.62422 13.7007 9.47148C13.7787 9.32554 13.9213 9.33911 13.9043 9.2882C13.8873 9.23729 13.7312 9.25765 13.592 9.43754C13.4597 9.61743 13.531 9.78374 13.1542 10.1062C12.7775 10.4286 12.8657 10.6798 12.5093 10.9547" stroke="#85340A" stroke-width="0.132"/>
<path d="M12.1165 12.118L14.3425 9.71528C14.3425 9.71528 14.3865 9.67106 14.3585 9.6411C14.3261 9.61297 14.2865 9.65535 14.2865 9.65535L11.8837 11.882M12.9653 11.4703C13.3895 11.3154 13.5135 10.9627 13.8989 10.8394C14.2905 10.7187 14.4145 10.4284 14.5388 10.3146C14.6667 10.2096 14.7932 10.2767 14.797 10.2232C14.8008 10.1697 14.6488 10.1287 14.4514 10.2417C14.2603 10.3572 14.2625 10.5381 13.791 10.6919C13.3196 10.8456 13.305 11.1114 12.8705 11.229" fill="#F6B40E"/>
<path d="M12.1165 12.118L14.3425 9.71528C14.3425 9.71528 14.3865 9.67106 14.3585 9.6411C14.3261 9.61297 14.2865 9.65535 14.2865 9.65535L11.8837 11.882M12.9653 11.4703C13.3895 11.3154 13.5135 10.9627 13.8989 10.8394C14.2905 10.7187 14.4145 10.4284 14.5388 10.3146C14.6667 10.2096 14.7932 10.2767 14.797 10.2232C14.8008 10.1697 14.6488 10.1287 14.4514 10.2417C14.2603 10.3572 14.2625 10.5381 13.791 10.6919C13.3196 10.8456 13.305 11.1114 12.8705 11.229" stroke="#85340A" stroke-width="0.132"/>
<path d="M11.7937 10.8288C11.7697 10.3968 11.5249 10.2048 11.5729 9.80641C11.4673 10.1184 11.7217 10.3632 11.7073 10.824M12.0769 11.9664L11.1409 9.92161L11.9233 12.0288" fill="#85340A"/>
<path d="M12.2576 10.8389C12.4008 10.4306 12.2481 10.1595 12.4449 9.80981C12.2279 10.0576 12.3693 10.3812 12.1796 10.8014M12.0839 11.9983L12.0017 9.75092L11.9182 11.9971" fill="#85340A"/>
<path d="M12.6825 11.0259C12.971 10.7035 12.9336 10.3946 13.2493 10.1469C12.954 10.2928 12.9608 10.6458 12.6248 10.9614M12.0783 12.0306L12.8623 9.92284L11.9256 11.9661" fill="#85340A"/>
<path d="M13.0032 11.3612C13.3931 11.1737 13.4768 10.874 13.8633 10.7659C13.5346 10.7878 13.4058 11.1165 12.9746 11.2795M12.0606 12.0582L13.5915 10.4109L11.9441 11.9401" fill="#85340A"/>
<path d="M12.0623 12.1538L15.0383 10.7858C15.0383 10.7858 15.0959 10.7618 15.0815 10.7234C15.0623 10.685 15.0095 10.709 15.0095 10.709L11.9375 11.8466M13.0943 11.8802C13.5455 11.8994 13.7951 11.621 14.1983 11.6546C14.6063 11.693 14.8319 11.4722 14.9903 11.4146C15.1487 11.3666 15.2399 11.477 15.2639 11.429C15.2879 11.381 15.1631 11.285 14.9375 11.3138C14.7167 11.3474 14.6495 11.5154 14.1551 11.477C13.6607 11.4386 13.5455 11.6786 13.0991 11.621" fill="#F6B40E"/>
<path d="M12.0623 12.1538L15.0383 10.7858C15.0383 10.7858 15.0959 10.7618 15.0815 10.7234C15.0623 10.685 15.0095 10.709 15.0095 10.709L11.9375 11.8466M13.0943 11.8802C13.5455 11.8994 13.7951 11.621 14.1983 11.6546C14.6063 11.693 14.8319 11.4722 14.9903 11.4146C15.1487 11.3666 15.2399 11.477 15.2639 11.429C15.2879 11.381 15.1631 11.285 14.9375 11.3138C14.7167 11.3474 14.6495 11.5154 14.1551 11.477C13.6607 11.4386 13.5455 11.6786 13.0991 11.621" stroke="#85340A" stroke-width="0.132"/>
<path d="M11.9988 12.1659L15.2718 12.0409C15.2718 12.0409 15.3342 12.0408 15.3356 11.9998C15.3326 11.957 15.2746 11.9589 15.2746 11.9589L12.0011 11.8343M13.057 12.3081C13.4665 12.4985 13.8036 12.3368 14.1633 12.5221C14.5255 12.7137 14.8185 12.5961 14.9868 12.6035C15.1516 12.6198 15.1936 12.7567 15.2341 12.7215C15.2746 12.6863 15.1961 12.5499 14.9766 12.4902C14.7598 12.4367 14.6334 12.5662 14.1913 12.3415C13.7493 12.1168 13.551 12.2945 13.1606 12.0704" fill="#F6B40E"/>
<path d="M11.9988 12.1659L15.2718 12.0409C15.2718 12.0409 15.3342 12.0408 15.3356 11.9998C15.3326 11.957 15.2746 11.9589 15.2746 11.9589L12.0011 11.8343M13.057 12.3081C13.4665 12.4985 13.8036 12.3368 14.1633 12.5221C14.5255 12.7137 14.8185 12.5961 14.9868 12.6035C15.1516 12.6198 15.1936 12.7567 15.2341 12.7215C15.2746 12.6863 15.1961 12.5499 14.9766 12.4902C14.7598 12.4367 14.6334 12.5662 14.1913 12.3415C13.7493 12.1168 13.551 12.2945 13.1606 12.0704" stroke="#85340A" stroke-width="0.132"/>
<path d="M11.9354 12.1529L15.0071 13.29C15.0071 13.29 15.0648 13.3137 15.0818 13.2764C15.0953 13.2357 15.041 13.2153 15.041 13.2153L12.0644 11.8475M12.8586 12.6892C13.1641 13.0218 13.5374 13.0015 13.7988 13.3103C14.0601 13.626 14.3758 13.6294 14.5285 13.7007C14.6745 13.7787 14.6609 13.9213 14.7118 13.9043C14.7627 13.8873 14.7423 13.7312 14.5625 13.592C14.3826 13.4597 14.2163 13.531 13.8938 13.1542C13.5714 12.7775 13.3202 12.8657 13.0453 12.5093" fill="#F6B40E"/>
<path d="M11.9354 12.1529L15.0071 13.29C15.0071 13.29 15.0648 13.3137 15.0818 13.2764C15.0953 13.2357 15.041 13.2153 15.041 13.2153L12.0644 11.8475M12.8586 12.6892C13.1641 13.0218 13.5374 13.0015 13.7988 13.3103C14.0601 13.626 14.3758 13.6294 14.5285 13.7007C14.6745 13.7787 14.6609 13.9213 14.7118 13.9043C14.7627 13.8873 14.7423 13.7312 14.5625 13.592C14.3826 13.4597 14.2163 13.531 13.8938 13.1542C13.5714 12.7775 13.3202 12.8657 13.0453 12.5093" stroke="#85340A" stroke-width="0.132"/>
<path d="M11.882 12.1165L14.2847 14.3425C14.2847 14.3425 14.3289 14.3865 14.3589 14.3585C14.387 14.3261 14.3447 14.2865 14.3447 14.2865L12.118 11.8837M12.5297 12.9653C12.6846 13.3895 13.0373 13.5135 13.1606 13.8989C13.2813 14.2905 13.5716 14.4145 13.6854 14.5388C13.7904 14.6667 13.7233 14.7932 13.7768 14.797C13.8303 14.8008 13.8713 14.6488 13.7583 14.4514C13.6428 14.2603 13.4619 14.2625 13.3081 13.791C13.1544 13.3196 12.8886 13.305 12.771 12.8705" fill="#F6B40E"/>
<path d="M11.882 12.1165L14.2847 14.3425C14.2847 14.3425 14.3289 14.3865 14.3589 14.3585C14.387 14.3261 14.3447 14.2865 14.3447 14.2865L12.118 11.8837M12.5297 12.9653C12.6846 13.3895 13.0373 13.5135 13.1606 13.8989C13.2813 14.2905 13.5716 14.4145 13.6854 14.5388C13.7904 14.6667 13.7233 14.7932 13.7768 14.797C13.8303 14.8008 13.8713 14.6488 13.7583 14.4514C13.6428 14.2603 13.4619 14.2625 13.3081 13.791C13.1544 13.3196 12.8886 13.305 12.771 12.8705" stroke="#85340A" stroke-width="0.132"/>
<path d="M13.1712 11.7937C13.6032 11.7697 13.7952 11.5249 14.1936 11.5729C13.8816 11.4673 13.6368 11.7217 13.176 11.7073M12.0336 12.0769L14.0784 11.1409L11.9712 11.9233" fill="#85340A"/>
<path d="M13.1611 12.2576C13.5694 12.4008 13.8405 12.2481 14.1902 12.4449C13.9424 12.2279 13.6188 12.3693 13.1986 12.1796M12.0017 12.0839L14.2491 12.0017L12.0029 11.9182" fill="#85340A"/>
<path d="M12.9741 12.6825C13.2965 12.971 13.6054 12.9336 13.8531 13.2493C13.7072 12.954 13.3542 12.9608 13.0386 12.6248M11.9694 12.0783L14.0772 12.8623L12.0339 11.9256" fill="#85340A"/>
<path d="M12.6388 13.0032C12.8263 13.3931 13.126 13.4768 13.2341 13.8633C13.2122 13.5346 12.8835 13.4058 12.7205 12.9746M11.9418 12.0606L13.5891 13.5915L12.0599 11.9441" fill="#85340A"/>
<path d="M12 13.335C12.7373 13.335 13.335 12.7373 13.335 12C13.335 11.2627 12.7373 10.665 12 10.665C11.2627 10.665 10.665 11.2627 10.665 12C10.665 12.7373 11.2627 13.335 12 13.335Z" fill="#F6B40E" stroke="#85340A" stroke-width="0.175"/>
<path d="M12.4551 11.7151C12.3651 11.7151 12.2751 11.7551 12.2251 11.8351C12.3251 11.9301 12.5551 11.9351 12.7101 11.8251C12.6773 11.7903 12.6378 11.7626 12.594 11.7437C12.5501 11.7248 12.5029 11.7151 12.4551 11.7151ZM12.4551 11.7351C12.5401 11.7351 12.6251 11.7751 12.6351 11.8151C12.5351 11.9301 12.3701 11.9151 12.2651 11.8351C12.2852 11.8032 12.3134 11.7772 12.3467 11.7597C12.3801 11.7421 12.4174 11.7336 12.4551 11.7351Z" fill="#843511"/>
<path d="M12.47 11.6499C12.335 11.6499 12.305 11.6849 12.245 11.7349C12.185 11.7849 12.15 11.7749 12.145 11.7849C12.13 11.7949 12.145 11.8249 12.16 11.8149C12.185 11.8049 12.225 11.7849 12.285 11.7349C12.345 11.6849 12.41 11.6849 12.47 11.6849C12.655 11.6849 12.755 11.8349 12.78 11.8249C12.795 11.8149 12.675 11.6499 12.47 11.6499Z" fill="#85340A"/>
<path d="M12.8401 11.7151C12.6051 11.5101 12.3051 11.4751 12.1401 11.6301C12.1014 11.6815 12.0756 11.7416 12.0651 11.8051C12.0451 11.9201 12.0801 12.0451 12.1701 12.1751L12.1301 12.1951C12.0516 12.0518 12.0234 11.8863 12.0501 11.7251C12.0566 11.6859 12.0667 11.6475 12.0801 11.6101C12.3051 11.4251 12.6151 11.4101 12.8401 11.7101V11.7151Z" fill="#85340A"/>
<path d="M12.45 11.91C12.5024 11.91 12.545 11.8674 12.545 11.815C12.545 11.7625 12.5024 11.72 12.45 11.72C12.3975 11.72 12.355 11.7625 12.355 11.815C12.355 11.8674 12.3975 11.91 12.45 11.91Z" fill="#85340A"/>
<path d="M12.7151 11.875C12.5401 12.01 12.3651 12 12.2651 11.94C12.1651 11.875 12.1651 11.855 12.1851 11.855C12.2051 11.855 12.2251 11.875 12.3051 11.92C12.3901 11.96 12.5101 11.96 12.7151 11.875Z" fill="#85340A"/>
<path d="M11.7999 12.1849C11.7839 12.1865 11.7685 12.1922 11.7553 12.2014C11.742 12.2106 11.7313 12.223 11.7242 12.2375C11.7171 12.252 11.7138 12.268 11.7145 12.2841C11.7153 12.3002 11.7202 12.3159 11.7287 12.3296C11.7372 12.3433 11.7491 12.3546 11.7632 12.3624C11.7772 12.3703 11.7931 12.3744 11.8092 12.3745C11.8253 12.3745 11.8412 12.3704 11.8553 12.3626C11.8694 12.3548 11.8813 12.3436 11.8899 12.3299C11.9229 12.3504 11.9611 12.3608 11.9999 12.3599H12.0099C12.0504 12.3621 12.0906 12.3517 12.1249 12.3299C12.1341 12.3426 12.1464 12.3528 12.1605 12.3596C12.1747 12.3664 12.1903 12.3696 12.2059 12.3689C12.2216 12.3682 12.2369 12.3636 12.2503 12.3556C12.2638 12.3476 12.2751 12.3363 12.2832 12.3229C12.2912 12.3094 12.2959 12.2942 12.2966 12.2785C12.2973 12.2628 12.2942 12.2472 12.2874 12.2331C12.2807 12.2189 12.2705 12.2067 12.2579 12.1974C12.2452 12.1881 12.2304 12.1821 12.2149 12.1799C12.2399 12.1949 12.2549 12.2149 12.2549 12.2449C12.2549 12.2749 12.2299 12.3049 12.1949 12.3049C12.179 12.3049 12.1637 12.2986 12.1525 12.2874C12.1412 12.2761 12.1349 12.2608 12.1349 12.2449C12.1231 12.2696 12.1047 12.2906 12.0818 12.3056C12.0589 12.3206 12.0323 12.329 12.0049 12.3299C11.9784 12.3281 11.9529 12.3193 11.9309 12.3043C11.909 12.2894 11.8914 12.2689 11.8799 12.2449C11.8799 12.2532 11.8782 12.2615 11.8749 12.2691C11.8716 12.2767 11.8667 12.2836 11.8606 12.2892C11.8545 12.2949 11.8473 12.2992 11.8394 12.3019C11.8315 12.3046 11.8232 12.3056 11.8149 12.3049C11.7849 12.3049 11.7549 12.2749 11.7549 12.2449C11.7549 12.2149 11.7699 12.1949 11.7949 12.1849H11.7999ZM11.8999 12.4599C11.7949 12.4599 11.7499 12.5499 11.6599 12.6099C11.7099 12.5899 11.7549 12.5499 11.8249 12.5099C11.8949 12.4699 11.9599 12.5199 11.9999 12.5199C12.0399 12.5199 12.0999 12.4699 12.1749 12.5099C12.2449 12.5499 12.2899 12.5899 12.3399 12.6099C12.2449 12.5499 12.2049 12.4599 12.0999 12.4599C12.065 12.4635 12.031 12.4736 11.9999 12.4899C11.9692 12.4719 11.9352 12.46 11.8999 12.4549V12.4599Z" fill="#85340A"/>
<path d="M11.8599 12.58C11.8199 12.58 11.7699 12.59 11.6899 12.61C11.8749 12.57 11.9149 12.635 11.9999 12.635C12.0799 12.635 12.1199 12.57 12.3049 12.61C12.1049 12.55 12.0599 12.59 11.9999 12.59C11.9599 12.59 11.9299 12.575 11.8599 12.58Z" fill="#85340A"/>
<path d="M11.6999 12.6099H11.6599C11.8749 12.6349 11.7749 12.7599 11.9999 12.7599C12.2249 12.7599 12.1249 12.6349 12.3399 12.6099C12.1149 12.5899 12.1849 12.7249 11.9999 12.7249C11.8249 12.7249 11.8799 12.6099 11.6999 12.6099ZM12.1849 12.9449C12.1849 12.8959 12.1654 12.8488 12.1307 12.8141C12.096 12.7794 12.049 12.7599 11.9999 12.7599C11.9508 12.7599 11.9038 12.7794 11.8691 12.8141C11.8344 12.8488 11.8149 12.8959 11.8149 12.9449C11.8247 12.9032 11.8483 12.866 11.8819 12.8394C11.9154 12.8127 11.957 12.7982 11.9999 12.7982C12.0428 12.7982 12.0844 12.8127 12.118 12.8394C12.1515 12.866 12.1751 12.9032 12.1849 12.9449Z" fill="#85340A"/>
<path d="M11.1699 11.7151C11.4049 11.5101 11.7049 11.4751 11.8699 11.6301C11.9086 11.6815 11.9344 11.7416 11.9449 11.8051C11.9649 11.9201 11.9299 12.0451 11.8399 12.1751L11.8799 12.1951C11.9584 12.0518 11.9866 11.8863 11.9599 11.7251C11.9534 11.6859 11.9433 11.6475 11.9299 11.6101C11.7049 11.4251 11.3949 11.4101 11.1699 11.7101V11.7151Z" fill="#85340A"/>
<path d="M11.54 11.6499C11.675 11.6499 11.705 11.6849 11.765 11.7349C11.825 11.7849 11.86 11.7749 11.865 11.7849C11.88 11.7949 11.865 11.8249 11.85 11.8149C11.825 11.8049 11.785 11.7849 11.725 11.7349C11.665 11.6849 11.6 11.6849 11.54 11.6849C11.355 11.6849 11.255 11.8349 11.23 11.8249C11.215 11.8149 11.335 11.6499 11.54 11.6499Z" fill="#85340A"/>
<path d="M11.5349 11.7151C11.4449 11.7151 11.3549 11.7551 11.3049 11.8351C11.4049 11.9301 11.6349 11.9351 11.7899 11.8251C11.7572 11.7903 11.7177 11.7626 11.6738 11.7437C11.63 11.7248 11.5827 11.7151 11.5349 11.7151ZM11.5349 11.7351C11.6199 11.7351 11.7049 11.7751 11.7149 11.8151C11.6149 11.9301 11.4499 11.9151 11.3449 11.8351C11.3651 11.8032 11.3932 11.7772 11.4266 11.7597C11.4599 11.7421 11.4973 11.7336 11.5349 11.7351Z" fill="#843511"/>
<path d="M11.545 11.91C11.5974 11.91 11.64 11.8674 11.64 11.815C11.64 11.7625 11.5974 11.72 11.545 11.72C11.4925 11.72 11.45 11.7625 11.45 11.815C11.45 11.8674 11.4925 11.91 11.545 11.91Z" fill="#85340A"/>
<path d="M11.2949 11.875C11.4699 12.01 11.6449 12 11.7449 11.94C11.8449 11.875 11.8449 11.855 11.8249 11.855C11.8049 11.855 11.7849 11.875 11.7049 11.92C11.6199 11.96 11.4999 11.96 11.2949 11.875Z" fill="#85340A"/>
</g>
<defs>
<clipPath id="clip0_26_487">
<rect width="32" height="24" fill="white" transform="translate(-4)"/>
</clipPath>
</defs>
</svg>
