<svg width="24" height="24" viewBox="0 0 24 24" fill="none" xmlns="http://www.w3.org/2000/svg">
<g clip-path="url(#clip0_26_956)">
<path d="M-2 0H30V24H-2V0Z" fill="#000066"/>
<path fill-rule="evenodd" clip-rule="evenodd" d="M12.99 19.6249L10.805 19.8149L11.105 21.9849L9.59996 20.3999L8.09496 21.9849L8.39496 19.8149L6.20996 19.6249L8.09496 18.5099L6.87996 16.6849L8.92996 17.4599L9.59996 15.3749L10.275 17.4599L12.325 16.6849L11.11 18.5099M22.33 21.6249L21.8 20.8349L22.69 21.1699L22.98 20.2649L23.27 21.1699L24.16 20.8349L23.635 21.6249L24.455 22.1099L23.505 22.1949L23.635 23.1399L22.985 22.4449L22.325 23.1399L22.455 22.1949L21.505 22.1149M22.325 7.51991L21.8 6.72991L22.69 7.06491L22.98 6.15991L23.27 7.06491L24.16 6.72991L23.635 7.51991L24.455 8.00991L23.505 8.08991L23.635 9.03491L22.985 8.34491L22.325 9.02991L22.455 8.08991L21.505 8.00991M17.04 13.2499L16.515 12.4599L17.405 12.7949L17.695 11.8899L17.99 12.7949L18.88 12.4599L18.35 13.2499L19.17 13.7349L18.22 13.8199L18.355 14.7649L17.695 14.0699L17.045 14.7649L17.17 13.8199L16.22 13.7399M27.035 11.8399L26.5 11.0499L27.39 11.3849L27.68 10.4799L27.975 11.3849L28.865 11.0499L28.34 11.8399L29.155 12.3249L28.205 12.4099L28.335 13.3499L27.685 12.6599L27.025 13.3499L27.155 12.4099L26.205 12.3249M25.1 15.9999L24.585 16.3249L24.73 15.7299L24.265 15.3399L24.87 15.2899L25.1 14.7299L25.335 15.2949L25.94 15.3399L25.475 15.7299L25.62 16.3249" fill="white"/>
<path d="M-2 0H14V12H-2V0Z" fill="#000066"/>
<path d="M-0.125 0L5.975 4.525L12.05 0H14V1.55L8 6.025L14 10.475V12H12L6 7.525L0.0250001 12H-2V10.5L3.975 6.05L-2 1.6V0H-0.125Z" fill="white"/>
<path d="M8.6 7.025L14 11V12L7.225 7.025H8.6ZM4 7.525L4.15 8.4L-0.65 12H-2L4 7.525ZM14 0V0.075L7.775 4.775L7.825 3.675L12.75 0H14ZM-2 0L3.975 4.4H2.475L-2 1.05V0Z" fill="#C8102E"/>
<path d="M4.025 0V12H8.025V0H4.025ZM-2 4V8H14V4H-2Z" fill="white"/>
<path d="M-2 4.825V7.225H14V4.825H-2ZM4.825 0V12H7.225V0H4.825Z" fill="#C8102E"/>
</g>
<defs>
<clipPath id="clip0_26_956">
<rect width="32" height="24" fill="white" transform="translate(-2)"/>
</clipPath>
</defs>
</svg>
