<svg width="24" height="24" viewBox="0 0 24 24" fill="none" xmlns="http://www.w3.org/2000/svg">
<g clip-path="url(#clip0_26_1658)">
<path fill-rule="evenodd" clip-rule="evenodd" d="M-4 0H28V24H-4V0Z" fill="#229E45"/>
<path fill-rule="evenodd" clip-rule="evenodd" d="M12.07 21.8L27.145 12.015L11.98 2.19995L-3.14502 12.035L12.07 21.8Z" fill="#F8E509"/>
<path fill-rule="evenodd" clip-rule="evenodd" d="M18.6399 12C18.6399 15.515 15.7849 18.365 12.2599 18.365C11.0003 18.363 9.76946 17.9876 8.72313 17.2863C7.6768 16.5849 6.8619 15.589 6.38145 14.4246C5.901 13.2602 5.77657 11.9794 6.02389 10.7443C6.27121 9.50918 6.87918 8.37509 7.77094 7.48543C8.6627 6.59577 9.79821 5.99048 11.0339 5.74606C12.2696 5.50165 13.5501 5.62909 14.7134 6.11228C15.8767 6.59547 16.8706 7.41271 17.5695 8.46069C18.2684 9.50867 18.6409 10.7403 18.6399 12Z" fill="#2B49A3"/>
<path fill-rule="evenodd" clip-rule="evenodd" d="M10.1651 15.8151L9.96512 15.7001L9.76512 15.8001L9.81012 15.5751L9.65012 15.4051L9.87512 15.3801L9.98512 15.1801L10.0801 15.3901L10.3001 15.4301L10.1351 15.5801M14.4351 16.8951L14.2401 16.7801L14.0401 16.8801L14.0801 16.6551L13.9251 16.4901L14.1501 16.4651L14.2551 16.2601L14.3551 16.4701L14.5751 16.5101L14.4051 16.6651M12.5951 15.1651L12.4251 15.0651L12.2501 15.1551L12.2901 14.9601L12.1501 14.8151L12.3501 14.7951L12.4401 14.6151L12.5201 14.8001L12.7151 14.8351L12.5651 14.9701M16.9151 14.5451L16.7451 14.4451L16.5701 14.5351L16.6101 14.3401L16.4751 14.2001L16.6701 14.1801L16.7601 14.0051L16.8401 14.1851L17.0301 14.2201L16.8851 14.3501M12.5201 13.2501L12.3201 13.1401L12.1201 13.2401L12.1601 13.0101L12.0051 12.8451L12.2301 12.8201L12.3351 12.6151L12.4351 12.8251L12.6551 12.8651L12.4851 13.0251M7.25512 11.2751L7.05512 11.1651L6.85512 11.2651L6.90512 11.0351L6.74012 10.8701L6.97012 10.8451L7.07012 10.6401L7.17012 10.8501L7.39012 10.8901L7.22512 11.0451M7.89012 13.9051L7.69012 13.7901L7.49012 13.8901L7.53512 13.6651L7.37512 13.5001L7.60012 13.4701L7.70512 13.2701L7.80512 13.4801L8.02512 13.5201L7.86012 13.6751M14.4601 10.3101L14.2801 10.2101L14.1001 10.3001L14.1401 10.1001L14.0001 9.95012L14.2001 9.92512L14.2951 9.74512L14.3801 9.93512L14.5801 9.97012L14.4301 10.1051M14.0951 12.0201L13.9601 11.9401L13.8151 12.0101L13.8451 11.8501L13.7351 11.7351L13.8951 11.7151L13.9701 11.5751L14.0351 11.7251L14.1851 11.7501L14.0751 11.8601M6.96512 14.3801L6.83012 14.3051L6.69512 14.3701L6.72512 14.2201L6.62012 14.1101L6.77012 14.0901L6.84012 13.9551L6.90512 14.0951L7.05512 14.1251L6.94012 14.2251M16.9501 14.9901L16.8401 14.9351L16.7301 14.9851L16.7551 14.8701L16.6701 14.7901L16.7901 14.7751L16.8501 14.6751L16.9001 14.7751L17.0251 14.8001L16.9301 14.8751" fill="#FFFFEF"/>
<path fill-rule="evenodd" clip-rule="evenodd" d="M6.96512 14.3801L6.83012 14.3051L6.69512 14.3701L6.72512 14.2201L6.62012 14.1101L6.77012 14.0901L6.84012 13.9551L6.90512 14.0951L7.05512 14.1251L6.94012 14.2251" fill="#FFFFEF"/>
<path fill-rule="evenodd" clip-rule="evenodd" d="M6.96512 14.3801L6.83012 14.3051L6.69512 14.3701L6.72512 14.2201L6.62012 14.1101L6.77012 14.0901L6.84012 13.9551L6.90512 14.0951L7.05512 14.1251L6.94012 14.2251M9.05512 14.3751L8.92512 14.3051L8.79012 14.3701L8.82012 14.2201L8.71512 14.1101L8.86512 14.0901L8.93512 13.9551L9.00012 14.0951L9.15012 14.1201L9.03512 14.2251M8.79512 15.0751L8.66512 15.0001L8.53012 15.0701L8.56012 14.9201L8.45512 14.8051L8.60512 14.7851L8.67512 14.6501L8.74012 14.7901L8.89012 14.8201L8.77512 14.9201M13.1451 13.8101L13.0151 13.7301L12.8751 13.8001L12.9051 13.6501L12.8051 13.5351L12.9551 13.5201L13.0251 13.3851L13.0851 13.5251L13.2351 13.5501L13.1251 13.6551M11.8701 13.8051L11.7351 13.7301L11.6001 13.8001L11.6301 13.6501L11.5301 13.5351L11.6801 13.5201L11.7501 13.3801L11.8101 13.5251L11.9601 13.5501L11.8501 13.6551M8.41012 13.3651L8.32512 13.3151L8.24012 13.3551L8.26012 13.2601L8.19512 13.1901L8.29012 13.1801L8.33012 13.0951L8.37012 13.1851L8.46512 13.2001L8.39512 13.2651M16.7851 15.5351L16.6551 15.4601L16.5201 15.5301L16.5501 15.3801L16.4451 15.2651L16.5951 15.2451L16.6651 15.1101L16.7301 15.2501L16.8801 15.2801L16.7651 15.3801M15.7251 15.6801L15.6151 15.6101L15.5001 15.6701L15.5251 15.5401L15.4401 15.4501L15.5651 15.4351L15.6251 15.3201L15.6751 15.4401L15.8001 15.4601L15.7051 15.5501M16.2251 15.6651L16.1251 15.6051L16.0201 15.6551L16.0401 15.5401L15.9601 15.4551L16.0751 15.4401L16.1301 15.3401L16.1801 15.4401L16.2951 15.4651L16.2101 15.5451M17.6651 14.4051L17.5651 14.3551L17.4651 14.4051L17.4901 14.2901L17.4101 14.2051L17.5251 14.1901L17.5751 14.0901L17.6251 14.1951L17.7301 14.2151L17.6501 14.2951M15.7101 16.3851L15.5851 16.3151L15.4501 16.3751L15.4801 16.2351L15.3801 16.1351L15.5301 16.1201L15.5951 15.9951L15.6551 16.1251L15.8051 16.1501L15.6901 16.2451M15.7201 16.9551L15.6001 16.8851L15.4801 16.9501L15.5101 16.8101L15.4151 16.7101L15.5501 16.6901L15.6101 16.5651L15.6651 16.6951L15.8001 16.7201L15.7001 16.8201M14.7501 15.6651L14.6551 15.6051L14.5551 15.6551L14.5751 15.5451L14.5001 15.4601L14.6101 15.4501L14.6601 15.3501L14.7101 15.4501L14.8201 15.4701L14.7401 15.5501M13.8501 15.6651L13.7501 15.6051L13.6501 15.6551L13.6751 15.5451L13.5951 15.4601L13.7101 15.4501L13.7601 15.3501L13.8101 15.4501L13.9151 15.4701L13.8351 15.5501M12.3151 14.3201L12.2151 14.2651L12.1151 14.3151L12.1401 14.2001L12.0601 14.1201L12.1701 14.1051L12.2201 14.0051L12.2701 14.1051L12.3801 14.1301L12.3001 14.2051M12.4851 17.0551L12.4051 17.0101L12.3151 17.0551L12.3351 16.9551L12.2701 16.8851L12.3651 16.8751L12.4101 16.7901L12.4501 16.8801L12.5451 16.8951L12.4751 16.9601M10.1651 12.6301L9.96512 12.5151L9.76512 12.6151L9.81012 12.3901L9.65012 12.2251L9.87512 12.1951L9.98512 11.9951L10.0801 12.2051L10.3001 12.2451L10.1351 12.4001" fill="#FFFFEF"/>
<path fill-rule="evenodd" clip-rule="evenodd" d="M18.2199 14.2899C18.3438 13.9685 18.4408 13.6374 18.5099 13.2999C15.1199 10.3249 11.3449 8.79991 6.5749 9.11491C6.4019 9.44966 6.25965 9.79943 6.1499 10.1599C11.7999 9.61991 15.9499 12.1199 18.2199 14.2899Z" fill="white"/>
<path d="M16.6999 12.62L16.8149 12.685C16.7977 12.719 16.7925 12.7577 16.7999 12.795C16.8116 12.8312 16.8366 12.8616 16.8699 12.88C16.9049 12.905 16.9399 12.92 16.9699 12.915C16.9999 12.915 17.0199 12.9 17.0349 12.88C17.0436 12.8668 17.0472 12.8508 17.0449 12.835C17.0408 12.8166 17.0322 12.7994 17.0199 12.785C17.0099 12.77 16.9849 12.735 16.9449 12.695C16.9038 12.6526 16.873 12.6013 16.8549 12.545C16.8424 12.5025 16.8457 12.4568 16.864 12.4165C16.8824 12.3761 16.9146 12.3436 16.9549 12.325C16.9913 12.3099 17.0315 12.3064 17.0699 12.315C17.1169 12.3259 17.1612 12.3463 17.1999 12.375C17.2699 12.425 17.3149 12.475 17.3299 12.535C17.3368 12.5631 17.3377 12.5923 17.3326 12.6208C17.3274 12.6492 17.3163 12.6762 17.2999 12.7L17.1799 12.625C17.1949 12.595 17.1999 12.565 17.1899 12.54C17.1849 12.515 17.1649 12.49 17.1299 12.47C17.1042 12.4494 17.0728 12.4372 17.0399 12.435C17.0308 12.4347 17.0219 12.4369 17.0139 12.4413C17.006 12.4457 16.9994 12.4522 16.9949 12.46C16.9849 12.475 16.9849 12.49 16.9899 12.51C16.9949 12.53 17.0199 12.57 17.0699 12.62C17.1199 12.67 17.1499 12.715 17.1699 12.745C17.1878 12.7778 17.1958 12.815 17.1932 12.8522C17.1905 12.8895 17.1772 12.9252 17.1549 12.955C17.1315 12.989 17.0984 13.0152 17.0599 13.03C17.0224 13.0473 16.9805 13.0526 16.9399 13.045C16.8949 13.035 16.8499 13.015 16.7999 12.98C16.7249 12.93 16.6799 12.875 16.6649 12.815C16.6486 12.747 16.6594 12.6753 16.6949 12.615L16.6999 12.62ZM16.1199 12.24L16.2449 12.305C16.2294 12.3396 16.2259 12.3783 16.2349 12.415C16.2477 12.4494 16.2726 12.4778 16.3049 12.495C16.3449 12.52 16.3749 12.53 16.4049 12.525C16.4349 12.525 16.4549 12.51 16.4699 12.485C16.4775 12.4732 16.481 12.4591 16.4799 12.445C16.4799 12.43 16.4699 12.41 16.4549 12.395C16.4293 12.3641 16.4026 12.3341 16.3749 12.305C16.3199 12.25 16.2849 12.205 16.2749 12.165C16.2667 12.1393 16.2643 12.1121 16.2677 12.0853C16.2712 12.0586 16.2805 12.0329 16.2949 12.01C16.3139 11.9792 16.3418 11.9548 16.3749 11.94C16.4093 11.9242 16.4476 11.919 16.4849 11.925C16.5312 11.9328 16.5754 11.9498 16.6149 11.975C16.6899 12.025 16.7349 12.075 16.7499 12.13C16.759 12.1582 16.762 12.1879 16.7585 12.2172C16.7551 12.2466 16.7453 12.2748 16.7299 12.3L16.6049 12.23C16.6199 12.195 16.6249 12.17 16.6149 12.145C16.6049 12.12 16.5849 12.095 16.5499 12.075C16.5222 12.0552 16.489 12.0447 16.4549 12.045C16.4467 12.0456 16.4388 12.0482 16.4318 12.0525C16.4248 12.0569 16.419 12.0629 16.4149 12.07C16.4049 12.085 16.4049 12.1 16.4099 12.12C16.4149 12.14 16.4449 12.18 16.4949 12.23C16.5449 12.28 16.5799 12.32 16.5949 12.35C16.6149 12.3814 16.6256 12.4178 16.6256 12.455C16.6256 12.4923 16.6149 12.5287 16.5949 12.56C16.5734 12.5949 16.5421 12.6227 16.5049 12.64C16.4674 12.6573 16.4255 12.6626 16.3849 12.655C16.3335 12.6464 16.2842 12.6277 16.2399 12.6C16.1753 12.5656 16.1255 12.5087 16.0999 12.44C16.0806 12.3733 16.0878 12.3017 16.1199 12.24ZM15.4099 12.05L15.7749 11.45L16.2149 11.725L16.1549 11.825L15.8349 11.625L15.7549 11.76L16.0549 11.945L15.9899 12.045L15.6899 11.86L15.5899 12.025L15.9249 12.225L15.8649 12.325L15.4149 12.05H15.4099ZM14.3749 11.2L14.4299 11.1L14.6999 11.235L14.5749 11.485C14.5349 11.495 14.4849 11.5 14.4249 11.495C14.3673 11.4887 14.3114 11.4717 14.2599 11.445C14.1994 11.4156 14.1477 11.3707 14.1099 11.315C14.0755 11.2633 14.0581 11.2022 14.0599 11.14C14.0625 11.0754 14.0795 11.0122 14.1099 10.955C14.14 10.8949 14.1847 10.8433 14.2399 10.805C14.2928 10.7685 14.3557 10.7493 14.4199 10.75C14.4699 10.75 14.5199 10.765 14.5799 10.8C14.6599 10.835 14.7099 10.885 14.7349 10.94C14.7609 10.9946 14.7662 11.0568 14.7499 11.115L14.6149 11.075C14.6232 11.0416 14.6196 11.0062 14.6049 10.975C14.5899 10.945 14.5649 10.925 14.5249 10.905C14.5016 10.8917 14.4757 10.8835 14.449 10.8809C14.4223 10.8784 14.3953 10.8815 14.3699 10.89C14.3199 10.905 14.2749 10.95 14.2399 11.02C14.2049 11.09 14.1899 11.155 14.2049 11.21C14.2118 11.2361 14.2243 11.2604 14.2416 11.2811C14.2589 11.3019 14.2805 11.3186 14.3049 11.33C14.3299 11.345 14.3599 11.355 14.3899 11.355C14.4197 11.3596 14.4501 11.3596 14.4799 11.355L14.5199 11.275L14.3749 11.2ZM9.86491 10.085L9.96491 9.38505L10.1749 9.42005L10.2299 9.91005L10.4249 9.46005L10.6349 9.49005L10.5349 10.18L10.3999 10.16L10.4849 9.61505L10.2649 10.14L10.1299 10.12L10.0749 9.55505L9.99491 10.105L9.86491 10.085ZM9.15991 10L9.22491 9.30005L9.73991 9.35005L9.72991 9.47005L9.35491 9.43505L9.33991 9.58505L9.68991 9.62005L9.67491 9.74005L9.32491 9.70505L9.30991 9.89505L9.69991 9.93005L9.68991 10.05L9.15991 10Z" fill="#309E3A"/>
<path d="M6.82492 9.56508C6.82492 9.49008 6.83992 9.43508 6.85992 9.38508C6.87745 9.34952 6.90115 9.31735 6.92992 9.29008C6.95557 9.26421 6.98618 9.2438 7.01992 9.23008C7.06992 9.21508 7.11992 9.20508 7.16992 9.20508C7.27492 9.20508 7.35492 9.24508 7.41992 9.30508C7.45086 9.3433 7.47387 9.38731 7.48761 9.43452C7.50134 9.48174 7.50553 9.53122 7.49992 9.58008C7.49992 9.69008 7.46492 9.78008 7.39992 9.84508C7.36652 9.87595 7.32701 9.89947 7.28394 9.91411C7.24088 9.92875 7.19522 9.93419 7.14992 9.93008C7.10523 9.93053 7.06091 9.9219 7.01966 9.90471C6.9784 9.88752 6.94107 9.86213 6.90992 9.83008C6.8477 9.75644 6.81715 9.66117 6.82492 9.56508Z" fill="#309E3A"/>
<path d="M6.96997 9.56504C6.96997 9.64004 6.98497 9.70004 7.01997 9.74504C7.05497 9.78504 7.09997 9.81004 7.15997 9.81004C7.18593 9.81186 7.21196 9.80787 7.23618 9.79835C7.2604 9.78884 7.28219 9.77404 7.29997 9.75504C7.33497 9.71504 7.34997 9.65504 7.35497 9.57004C7.35497 9.49004 7.34497 9.43004 7.30497 9.39004C7.28868 9.36989 7.26813 9.3536 7.24478 9.34236C7.22143 9.33112 7.19588 9.32521 7.16997 9.32504C7.14367 9.3242 7.1175 9.32914 7.09331 9.33951C7.06912 9.34987 7.0475 9.36542 7.02997 9.38504C6.98997 9.42504 6.97497 9.48504 6.96997 9.56504Z" fill="#F7FFFF"/>
<path d="M7.6499 9.9251L7.6599 9.2251H7.9599C8.0349 9.2251 8.0849 9.2351 8.1199 9.2501C8.1549 9.2601 8.1799 9.2851 8.1999 9.3151C8.2199 9.3451 8.2299 9.3851 8.2299 9.4301C8.23029 9.4782 8.21242 9.52466 8.1799 9.5601C8.14294 9.59472 8.09537 9.61586 8.0449 9.6201L8.1199 9.6801C8.1399 9.7001 8.1649 9.7401 8.1949 9.7951L8.2799 9.9351H8.1099L8.0099 9.7751L7.9399 9.6751C7.92778 9.66134 7.91226 9.651 7.8949 9.6451C7.87216 9.63846 7.84859 9.6351 7.8249 9.6351H7.7949V9.9251H7.6499Z" fill="#309E3A"/>
<path d="M7.7998 9.52522H7.8998C7.9698 9.52522 8.0148 9.52522 8.0298 9.51522C8.0448 9.51522 8.0598 9.50022 8.0698 9.49022C8.0798 9.48022 8.0848 9.45522 8.0848 9.44022C8.0848 9.41022 8.0798 9.39022 8.0648 9.38022C8.0548 9.36522 8.0348 9.35522 8.0148 9.35022H7.9148L7.7998 9.34521V9.52021V9.52522Z" fill="white"/>
<path d="M8.45004 9.26001L8.71004 9.27501C8.76504 9.27501 8.81004 9.28001 8.84004 9.29001C8.87896 9.30413 8.91345 9.32828 8.94004 9.36001C8.96884 9.39497 8.98935 9.43599 9.00004 9.48001C9.01504 9.52501 9.02004 9.58001 9.01504 9.64501C9.01499 9.69604 9.00655 9.74672 8.99004 9.79501C8.97004 9.84501 8.94004 9.88501 8.90504 9.91501C8.87591 9.93901 8.84172 9.95611 8.80504 9.96501C8.77504 9.97501 8.73004 9.97501 8.68004 9.97501L8.41504 9.96001L8.45004 9.26001Z" fill="#309E3A"/>
<path d="M8.58506 9.38501L8.56006 9.85001H8.75006C8.77506 9.85001 8.79506 9.84001 8.81006 9.82501C8.82506 9.81001 8.84006 9.79001 8.85006 9.76001C8.86006 9.73001 8.87006 9.68501 8.87006 9.63001L8.86506 9.50501C8.85792 9.47865 8.84415 9.45455 8.82506 9.43501C8.80845 9.41831 8.78777 9.40624 8.76506 9.40001C8.72725 9.39159 8.68876 9.38657 8.65006 9.38501H8.58506Z" fill="white"/>
<path d="M11.8799 10.5101L12.0449 9.83008L12.2649 9.88008L12.4249 9.93008C12.4599 9.95008 12.4899 9.98008 12.5049 10.0251C12.5249 10.0651 12.5249 10.1101 12.5149 10.1651C12.5049 10.2051 12.4899 10.2401 12.4649 10.2651C12.4465 10.287 12.4236 10.3047 12.3977 10.3168C12.3718 10.3289 12.3435 10.3351 12.3149 10.3351C12.2799 10.3351 12.2299 10.3251 12.1649 10.3101L12.0799 10.2851L12.0199 10.5451L11.8799 10.5101Z" fill="#309E3A"/>
<path d="M12.1499 9.97998L12.1099 10.17L12.1849 10.19C12.2349 10.2 12.2749 10.21 12.2949 10.205C12.3143 10.2023 12.3324 10.1936 12.3468 10.1802C12.3611 10.1668 12.3709 10.1492 12.3749 10.13C12.3749 10.105 12.3749 10.085 12.3649 10.065C12.3539 10.0447 12.3362 10.0288 12.3149 10.02L12.2199 9.99498L12.1549 9.97998H12.1499Z" fill="white"/>
<path d="M12.53 10.7049L12.765 10.0449L13.04 10.1449C13.115 10.1699 13.16 10.1949 13.19 10.2149C13.215 10.2399 13.235 10.2649 13.24 10.3049C13.245 10.3449 13.25 10.3799 13.24 10.4199C13.22 10.4699 13.19 10.5049 13.15 10.5299C13.11 10.5499 13.06 10.5549 13 10.5449C13.02 10.5699 13.04 10.5949 13.05 10.6249L13.09 10.7599L13.12 10.9149L12.965 10.8599L12.915 10.6799C12.9059 10.6392 12.8943 10.5991 12.88 10.5599C12.8734 10.5444 12.8631 10.5306 12.85 10.5199C12.84 10.5049 12.82 10.4949 12.785 10.4849L12.76 10.4749L12.66 10.7549L12.53 10.7049Z" fill="#309E3A"/>
<path d="M12.7999 10.3698L12.8949 10.4048C12.9599 10.4298 12.9999 10.4398 13.0199 10.4398C13.0349 10.4398 13.0499 10.4398 13.0649 10.4248C13.0799 10.4148 13.0899 10.3998 13.0949 10.3798C13.1049 10.3598 13.1049 10.3398 13.0949 10.3198C13.0875 10.3005 13.0733 10.2845 13.0549 10.2748L12.9549 10.2398L12.8549 10.2048L12.7949 10.3698H12.7999Z" fill="white"/>
<path d="M13.3501 10.6799C13.3673 10.6214 13.3962 10.5669 13.4351 10.5199C13.4604 10.4897 13.4908 10.4643 13.5251 10.4449C13.5561 10.4274 13.5899 10.4156 13.6251 10.4099C13.6751 10.4099 13.7251 10.4099 13.7801 10.4299C13.8248 10.441 13.8666 10.4614 13.9028 10.4898C13.939 10.5183 13.9688 10.5541 13.9901 10.5949C14.0301 10.6749 14.0301 10.7699 14.0001 10.8799C13.9753 10.9744 13.9142 11.0553 13.8301 11.1049C13.7551 11.1499 13.6651 11.1549 13.5701 11.1249C13.5255 11.1136 13.4838 11.093 13.4476 11.0646C13.4115 11.0362 13.3816 11.0005 13.3601 10.9599C13.34 10.9162 13.3289 10.869 13.3271 10.8209C13.3254 10.7729 13.3332 10.7249 13.3501 10.6799Z" fill="#309E3A"/>
<path d="M13.4901 10.72C13.4701 10.795 13.4651 10.86 13.4901 10.91C13.5151 10.96 13.5501 10.99 13.6051 11.01C13.6551 11.025 13.7051 11.02 13.7551 10.99C13.8051 10.965 13.8351 10.91 13.8601 10.83C13.8851 10.755 13.8851 10.695 13.8601 10.645C13.8502 10.6213 13.8352 10.6 13.8162 10.5827C13.7972 10.5655 13.7746 10.5526 13.7501 10.545C13.7255 10.5365 13.6993 10.5335 13.6734 10.536C13.6475 10.5386 13.6225 10.5468 13.6001 10.56C13.5501 10.59 13.5151 10.64 13.4901 10.72Z" fill="white"/>
<path d="M14.7151 11.6549L15.0351 11.0349L15.3001 11.1699C15.35 11.1939 15.3957 11.226 15.4351 11.2649C15.4601 11.2899 15.4751 11.3199 15.4751 11.3599C15.4751 11.3999 15.4751 11.4349 15.4551 11.4699C15.4359 11.5149 15.4 11.5507 15.3551 11.5699C15.3051 11.5799 15.2551 11.5799 15.2001 11.5599C15.2201 11.5899 15.2301 11.6199 15.2401 11.6449C15.2501 11.6749 15.2551 11.7199 15.2601 11.7849L15.2701 11.9449L15.1201 11.8699L15.1001 11.6849C15.0977 11.643 15.0927 11.6012 15.0851 11.5599C15.0817 11.5412 15.073 11.5239 15.0601 11.5099L15.0001 11.4749L14.9751 11.4599L14.8401 11.7199L14.7151 11.6549Z" fill="#309E3A"/>
<path d="M15.0251 11.36L15.1201 11.41C15.1801 11.44 15.2201 11.46 15.2351 11.46C15.2501 11.46 15.2701 11.46 15.2851 11.45C15.3001 11.445 15.3101 11.43 15.3201 11.41C15.3301 11.39 15.3351 11.37 15.3301 11.35C15.324 11.33 15.3117 11.3126 15.2951 11.3C15.2659 11.282 15.2359 11.2653 15.2051 11.25L15.1051 11.2L15.0251 11.36Z" fill="white"/>
<path d="M17.305 12.935C17.3373 12.8835 17.3799 12.8393 17.43 12.805C17.4636 12.7834 17.5009 12.7682 17.54 12.76C17.5763 12.7525 17.6137 12.7525 17.65 12.76C17.7 12.77 17.745 12.79 17.79 12.82C17.8289 12.8442 17.8623 12.8763 17.8881 12.9142C17.914 12.952 17.9316 12.9949 17.94 13.04C17.955 13.125 17.93 13.22 17.87 13.315C17.8198 13.3976 17.7389 13.4569 17.645 13.48C17.6002 13.4896 17.5539 13.4897 17.5091 13.4802C17.4643 13.4708 17.422 13.4519 17.385 13.425C17.3461 13.4007 17.3126 13.3686 17.2868 13.3308C17.261 13.2929 17.2433 13.25 17.235 13.205C17.22 13.115 17.245 13.025 17.305 12.935Z" fill="#309E3A"/>
<path d="M17.43 13.0149C17.38 13.0799 17.365 13.1399 17.375 13.1949C17.3787 13.2203 17.3877 13.2445 17.4015 13.2661C17.4153 13.2876 17.4335 13.306 17.455 13.3199C17.505 13.3549 17.555 13.3649 17.605 13.3499C17.655 13.3349 17.705 13.2999 17.75 13.2299C17.795 13.1599 17.815 13.0999 17.805 13.0499C17.8 12.9999 17.77 12.9549 17.725 12.9199C17.68 12.8849 17.625 12.8799 17.575 12.8949C17.525 12.9049 17.475 12.9449 17.425 13.0149H17.43Z" fill="white"/>
<path d="M11.0901 10.2251L11.2051 9.73511L11.5651 9.82011L11.5501 9.90011L11.2851 9.84011L11.2601 9.95011L11.5051 10.0051L11.4851 10.0901L11.2401 10.0301L11.2101 10.1651L11.4851 10.2301L11.4651 10.3101L11.0901 10.2251Z" fill="#309E3A"/>
</g>
<defs>
<clipPath id="clip0_26_1658">
<rect width="32" height="24" fill="white" transform="translate(-4)"/>
</clipPath>
</defs>
</svg>
