<svg width="24" height="24" viewBox="0 0 24 24" fill="none" xmlns="http://www.w3.org/2000/svg">
<g clip-path="url(#clip0_26_2179)">
<path d="M-4 0H6.99828V25H-4V0Z" fill="#007A5E"/>
<path d="M6.99829 0H18.0017V25H6.99829V0Z" fill="#CE1126"/>
<path d="M18.0017 0H29V25H18.0017V0Z" fill="#FCD116"/>
<path d="M12.5002 9.53711L11.5835 12.3519L12.9768 12.8334L12.5002 9.53711Z" fill="#FCD116"/>
<path d="M12.5001 9.53711L13.4167 12.3519L12.0234 12.8334L12.5001 9.53711Z" fill="#FCD116"/>
<path d="M15.2908 11.5814L12.3566 11.5777L12.3303 13.061L15.2908 11.5814Z" fill="#FCD116"/>
<path d="M15.2917 11.5829L12.9201 13.3343L12.0388 12.1499L15.2917 11.5829Z" fill="#FCD116"/>
<path d="M14.2228 14.8966L13.3297 12.0755L11.9205 12.5155L14.2228 14.8966Z" fill="#FCD116"/>
<path d="M14.2235 14.8959L11.8444 13.1659L12.694 11.9474L14.2235 14.8959Z" fill="#FCD116"/>
<path d="M10.7767 14.8959L13.1559 13.1659L12.3063 11.9474L10.7767 14.8959Z" fill="#FCD116"/>
<path d="M10.7775 14.8966L11.6705 12.0755L13.0798 12.5155L10.7775 14.8966Z" fill="#FCD116"/>
<path d="M9.70825 11.5827L12.0799 13.334L12.9612 12.1497L9.70825 11.5827Z" fill="#FCD116"/>
<path d="M9.70923 11.5814L12.6434 11.5777L12.6697 13.061L9.70923 11.5814Z" fill="#FCD116"/>
</g>
<defs>
<clipPath id="clip0_26_2179">
<rect width="33" height="25" fill="white" transform="translate(-4)"/>
</clipPath>
</defs>
</svg>
