<svg width="24" height="24" viewBox="0 0 24 24" fill="none" xmlns="http://www.w3.org/2000/svg">
<g clip-path="url(#clip0_26_1576)">
<path d="M3.11841 -1H21.5165V25H3.11841V-1Z" fill="white"/>
<path d="M-6.07812 -1H3.11836V25H-6.07812V-1ZM21.5164 -1H30.7129V25H21.5164V-1ZM5.8707 11.5633L5.15977 11.807L8.48086 14.727C8.73477 15.4785 8.39453 15.6969 8.17617 16.093L11.7816 15.6359L11.6902 19.2668L12.4418 19.2414L12.2742 15.641L15.8898 16.0676C15.6664 15.5953 15.4684 15.3465 15.6715 14.5949L18.9926 11.8273L18.4137 11.6191C17.9363 11.2484 18.6168 9.85195 18.7184 8.96836C18.7184 8.96836 16.7836 9.63359 16.6566 9.2832L16.1539 8.34375L14.3969 10.2734C14.2039 10.3242 14.1227 10.243 14.077 10.0805L14.8895 6.0332L13.5996 6.75938C13.493 6.80508 13.3863 6.75937 13.3152 6.6375L12.0711 4.14922L10.7914 6.73398C10.6949 6.82539 10.5984 6.83555 10.5172 6.77461L9.28828 6.08398L10.0246 10.1059C9.96875 10.2582 9.82656 10.309 9.66406 10.2227L7.97305 8.30312C7.75469 8.65859 7.60234 9.2375 7.31289 9.36953C7.02344 9.48633 6.04336 9.1207 5.38828 8.97852C5.61172 9.78594 6.3125 11.1266 5.8707 11.5684V11.5633Z" fill="#D52B1E"/>
</g>
<defs>
<clipPath id="clip0_26_1576">
<rect width="26" height="26" fill="white" transform="translate(-1 -1)"/>
</clipPath>
</defs>
</svg>
