<svg width="24" height="24" viewBox="0 0 24 24" fill="none" xmlns="http://www.w3.org/2000/svg">
<g clip-path="url(#clip0_26_274)">
<path fill-rule="evenodd" clip-rule="evenodd" d="M-9 0H33V24H-9V0Z" fill="white"/>
<path fill-rule="evenodd" clip-rule="evenodd" d="M-9 16.1157H33V24.0001H-9V16.1157Z" fill="#DA0000"/>
<path fill-rule="evenodd" clip-rule="evenodd" d="M-1.01245 16.4531H1.28442V16.6078H-1.01245V16.4531ZM-0.670264 17.2406H-0.510889V17.3953H-0.670264V17.2406ZM1.2938 17.2406V17.3953H0.834424V17.2359L1.2938 17.2406ZM1.53755 16.4531H1.69692V17.3906H1.53755V16.4531Z" fill="white"/>
<path fill-rule="evenodd" clip-rule="evenodd" d="M2.45627 17.236V17.3954H1.5844V17.236H2.45627ZM0.834399 16.8657H0.984399V17.3954H0.829712L0.834399 16.8657Z" fill="white"/>
<path fill-rule="evenodd" clip-rule="evenodd" d="M2.32505 16.4531H2.48442V17.3906H2.32505V16.4531ZM1.9313 16.4531H2.08599V17.3906H1.9313V16.4531ZM-0.168701 16.8281V16.9875H-1.01245V16.8281H-0.168701ZM1.67349 16.8281V16.9875H0.829736V16.8281H1.67349Z" fill="white"/>
<path fill-rule="evenodd" clip-rule="evenodd" d="M0.834399 16.8704H0.984399V17.3907H0.829712L0.834399 16.8704Z" fill="white"/>
<path fill-rule="evenodd" clip-rule="evenodd" d="M0.834399 16.8704H0.984399V17.3907H0.829712L0.834399 16.8704Z" fill="white"/>
<path fill-rule="evenodd" clip-rule="evenodd" d="M0.834375 16.8704H0.984375V17.3907H0.829688L0.834375 16.8704ZM-1.00781 16.8704H-0.853125V17.3907H-1.00781V16.8704ZM0.342187 16.8704H0.501563V17.3907H0.342187V16.8704ZM-0.328125 16.8704H-0.16875V17.3907H-0.328125V16.8704Z" fill="white"/>
<path fill-rule="evenodd" clip-rule="evenodd" d="M0.45 17.2359V17.3953H-0.257812V17.2359H0.45ZM0.496875 16.8281V16.9875H0.046875V16.8281H0.496875Z" fill="white"/>
<path fill-rule="evenodd" clip-rule="evenodd" d="M2.73279 16.4531H5.02966V16.6078H2.73279V16.4531ZM3.07498 17.2406H3.23435V17.3953H3.07498V17.2406ZM5.03904 17.2406V17.3953H4.57966V17.2359L5.03904 17.2406ZM5.28748 16.4531H5.44685V17.3906H5.28748V16.4531Z" fill="white"/>
<path fill-rule="evenodd" clip-rule="evenodd" d="M6.20159 17.236V17.3954H5.32971V17.236H6.20159ZM4.57971 16.8657H4.73909V17.3954H4.57971V16.8657Z" fill="white"/>
<path fill-rule="evenodd" clip-rule="evenodd" d="M6.07029 16.4531H6.22966V17.3906H6.07029V16.4531ZM5.67654 16.4531H5.83591V17.3906H5.67185L5.67654 16.4531ZM3.57654 16.8281V16.9875H2.73279V16.8281H3.57654ZM5.41873 16.8281V16.9875H4.57498V16.8281H5.41873Z" fill="white"/>
<path fill-rule="evenodd" clip-rule="evenodd" d="M4.57971 16.8704H4.73909V17.3907H4.57971V16.8704Z" fill="white"/>
<path fill-rule="evenodd" clip-rule="evenodd" d="M4.57971 16.8704H4.73909V17.3907H4.57971V16.8704Z" fill="white"/>
<path fill-rule="evenodd" clip-rule="evenodd" d="M4.57961 16.8704H4.73899V17.3907H4.57961V16.8704ZM2.73743 16.8704H2.8968V17.3907H2.73743V16.8704ZM4.08743 16.8704H4.2468V17.3907H4.08743V16.8704ZM3.41711 16.8704H3.57649V17.3907H3.41711V16.8704Z" fill="white"/>
<path fill-rule="evenodd" clip-rule="evenodd" d="M4.19993 17.2359V17.3953H3.48743V17.2359H4.19993ZM4.2468 16.8281V16.9875H3.7968V16.8281H4.2468Z" fill="white"/>
<path fill-rule="evenodd" clip-rule="evenodd" d="M6.50159 16.4531H8.80315V16.6078H6.50627L6.50159 16.4531ZM6.84846 17.2406H7.00315V17.3953H6.84846V17.2406ZM8.80784 17.2406V17.3953H8.34846V17.2359L8.80784 17.2406ZM9.05627 16.4531H9.21565V17.3906H9.05627V16.4531Z" fill="white"/>
<path fill-rule="evenodd" clip-rule="evenodd" d="M9.97507 17.236V17.3954H9.1032V17.236H9.97507ZM8.34851 16.8657H8.50789V17.3954H8.34851V16.8657Z" fill="white"/>
<path fill-rule="evenodd" clip-rule="evenodd" d="M9.84373 16.4531H10.0031V17.3906H9.84373V16.4531ZM9.44529 16.4531H9.60466V17.3906H9.44529V16.4531ZM7.34529 16.8281V16.9875H6.50623V16.8281H7.34529ZM9.18748 16.8281V16.9875H8.34841V16.8281H9.18748Z" fill="white"/>
<path fill-rule="evenodd" clip-rule="evenodd" d="M8.34851 16.8704H8.50789V17.3907H8.34851V16.8704Z" fill="white"/>
<path fill-rule="evenodd" clip-rule="evenodd" d="M8.34851 16.8704H8.50789V17.3907H8.34851V16.8704Z" fill="white"/>
<path fill-rule="evenodd" clip-rule="evenodd" d="M8.34841 16.8704H8.50779V17.3907H8.34841V16.8704ZM6.50623 16.8704H6.6656V17.3907H6.50623V16.8704ZM7.85623 16.8704H8.0156V17.3907H7.85623V16.8704ZM7.1906 16.8704H7.34529V17.3907H7.1906V16.8704Z" fill="white"/>
<path fill-rule="evenodd" clip-rule="evenodd" d="M7.9688 17.2359V17.3953H7.26099V17.2359H7.9688ZM8.01567 16.8281V16.9875H7.56567V16.8281H8.01567Z" fill="white"/>
<path fill-rule="evenodd" clip-rule="evenodd" d="M10.2891 16.4531H12.5859V16.6078H10.2891V16.4531ZM10.6313 17.2406H10.7906V17.3953H10.6313V17.2406ZM12.5953 17.2406V17.3953H12.1359V17.2359L12.5953 17.2406ZM12.8438 16.4531H12.9984V17.3906H12.8438V16.4531Z" fill="white"/>
<path fill-rule="evenodd" clip-rule="evenodd" d="M13.7579 17.236V17.3954H12.886V17.236H13.7579ZM12.136 16.8657H12.2954V17.3954H12.136V16.8657Z" fill="white"/>
<path fill-rule="evenodd" clip-rule="evenodd" d="M13.6266 16.4531H13.7859V17.3906H13.6266V16.4531ZM13.2328 16.4531H13.3922V17.3906H13.2328V16.4531ZM11.1328 16.8281V16.9875H10.2891V16.8281H11.1328ZM12.975 16.8281V16.9875H12.1312V16.8281H12.975Z" fill="white"/>
<path fill-rule="evenodd" clip-rule="evenodd" d="M12.136 16.8704H12.2954V17.3907H12.136V16.8704Z" fill="white"/>
<path fill-rule="evenodd" clip-rule="evenodd" d="M12.136 16.8704H12.2954V17.3907H12.136V16.8704Z" fill="white"/>
<path fill-rule="evenodd" clip-rule="evenodd" d="M12.1359 16.8704H12.2953V17.3907H12.1359V16.8704ZM10.2937 16.8704H10.4484V17.3907H10.2937V16.8704ZM11.6437 16.8704H11.8031V17.3907H11.6437V16.8704ZM10.9734 16.8704H11.1328V17.3907H10.9687L10.9734 16.8704Z" fill="white"/>
<path fill-rule="evenodd" clip-rule="evenodd" d="M11.7562 17.2359V17.3953H11.0437V17.2359H11.7562ZM11.8031 16.8281V16.9875H11.3437V16.8281H11.8031Z" fill="white"/>
<path fill-rule="evenodd" clip-rule="evenodd" d="M-9 0H33V7.88437H-9V0Z" fill="#239F40"/>
<path fill-rule="evenodd" clip-rule="evenodd" d="M14.0953 16.4531H16.3922V16.6078H14.0953V16.4531ZM14.4375 17.2406H14.5969V17.3953H14.4375V17.2406ZM16.4016 17.2406V17.3953H15.9375V17.2359L16.4016 17.2406ZM16.65 16.4531H16.8047V17.3906H16.65V16.4531Z" fill="white"/>
<path fill-rule="evenodd" clip-rule="evenodd" d="M17.5641 17.236V17.3954H16.6922V17.236H17.5641ZM15.9422 16.8657H16.1016V17.3954H15.9375L15.9422 16.8657Z" fill="white"/>
<path fill-rule="evenodd" clip-rule="evenodd" d="M17.4375 16.4531H17.5922V17.3906H17.4375V16.4531ZM17.0391 16.4531H17.1985V17.3906H17.0391V16.4531ZM14.9391 16.8281V16.9875H14.0953V16.8281H14.9391ZM16.7813 16.8281V16.9875H15.9375V16.8281H16.7813Z" fill="white"/>
<path fill-rule="evenodd" clip-rule="evenodd" d="M15.9375 16.8704H16.1016V17.3907H15.9375V16.8704Z" fill="white"/>
<path fill-rule="evenodd" clip-rule="evenodd" d="M15.9375 16.8704H16.1016V17.3907H15.9375V16.8704Z" fill="white"/>
<path fill-rule="evenodd" clip-rule="evenodd" d="M15.9375 16.8704H16.1015V17.3907H15.9375V16.8704ZM14.1 16.8704H14.2594V17.3907H14.1V16.8704ZM15.45 16.8704H15.6094V17.3907H15.45V16.8704ZM14.7797 16.8704H14.939V17.3907H14.7797V16.8704Z" fill="white"/>
<path fill-rule="evenodd" clip-rule="evenodd" d="M15.5625 17.2359V17.3953H14.85V17.2359H15.5625ZM15.6094 16.8281V16.9875H15.1594V16.8281H15.6094Z" fill="white"/>
<path fill-rule="evenodd" clip-rule="evenodd" d="M17.8782 16.4531H20.175V16.6078H17.8782V16.4531ZM18.2204 17.2406H18.3797V17.3953H18.2204V17.2406ZM20.1891 17.2406V17.3953H19.725V17.2359L20.1891 17.2406ZM20.4329 16.4531H20.5922V17.3906H20.4329V16.4531Z" fill="white"/>
<path fill-rule="evenodd" clip-rule="evenodd" d="M21.347 17.236V17.3954H20.4751V17.236H21.347ZM19.7251 16.8657H19.8845V17.3954H19.7251V16.8657Z" fill="white"/>
<path fill-rule="evenodd" clip-rule="evenodd" d="M21.2203 16.4531H21.375V17.3906H21.2203V16.4531ZM20.8219 16.4531H20.9813V17.3906H20.8219V16.4531ZM18.7219 16.8281V16.9875H17.8828V16.8281H18.7219ZM20.5641 16.8281V16.9875H19.725V16.8281H20.5641Z" fill="white"/>
<path fill-rule="evenodd" clip-rule="evenodd" d="M19.7251 16.8704H19.8845V17.3907H19.7251V16.8704Z" fill="white"/>
<path fill-rule="evenodd" clip-rule="evenodd" d="M19.7251 16.8704H19.8845V17.3907H19.7251V16.8704Z" fill="white"/>
<path fill-rule="evenodd" clip-rule="evenodd" d="M19.725 16.8704H19.8844V17.3907H19.725V16.8704ZM17.8828 16.8704H18.0422V17.3907H17.8828V16.8704ZM19.2328 16.8704H19.3922V17.3907H19.2328V16.8704ZM18.5625 16.8704H18.7219V17.3907H18.5672L18.5625 16.8704Z" fill="white"/>
<path fill-rule="evenodd" clip-rule="evenodd" d="M19.3453 17.2359V17.3953H18.6375V17.2359H19.3453ZM19.3921 16.8281V16.9875H18.9375V16.8281H19.3921Z" fill="white"/>
<path fill-rule="evenodd" clip-rule="evenodd" d="M21.6655 16.4531H23.9624V16.6078H21.6655V16.4531ZM22.0077 17.2406H22.1671V17.3953H22.0077V17.2406ZM23.9718 17.2406V17.3953H23.5124V17.2359L23.9718 17.2406ZM24.2155 16.4531H24.3749V17.3906H24.2155V16.4531Z" fill="white"/>
<path fill-rule="evenodd" clip-rule="evenodd" d="M25.1344 17.236V17.3954H24.2625V17.236H25.1344ZM23.5078 16.8657H23.6672V17.3954H23.5078V16.8657Z" fill="white"/>
<path fill-rule="evenodd" clip-rule="evenodd" d="M25.003 16.4531H25.1624V17.3906H25.003V16.4531ZM24.6093 16.4531H24.764V17.3906H24.6093V16.4531ZM22.5093 16.8281V16.9875H21.6655V16.8281H22.5093ZM24.3515 16.8281V16.9875H23.5077V16.8281H24.3515Z" fill="white"/>
<path fill-rule="evenodd" clip-rule="evenodd" d="M23.5125 16.8704H23.6671V17.3907H23.5125V16.8704Z" fill="white"/>
<path fill-rule="evenodd" clip-rule="evenodd" d="M23.5125 16.8704H23.6671V17.3907H23.5125V16.8704Z" fill="white"/>
<path fill-rule="evenodd" clip-rule="evenodd" d="M23.5124 16.8704H23.6671V17.3907H23.5124V16.8704ZM21.6655 16.8704H21.8249V17.3907H21.6655V16.8704ZM23.0202 16.8704H23.1749V17.3907H23.0202V16.8704ZM22.3499 16.8704H22.5093V17.3907H22.3499V16.8704Z" fill="white"/>
<path fill-rule="evenodd" clip-rule="evenodd" d="M23.128 17.2359V17.3953H22.4202V17.2359H23.128ZM23.1749 16.8281V16.9875H22.7249V16.8281H23.1749Z" fill="white"/>
<path fill-rule="evenodd" clip-rule="evenodd" d="M-1.01245 6.72192H1.28442V6.8813H-1.01245V6.72192ZM-0.670264 7.5188H-0.510889V7.6688H-0.670264V7.5188ZM1.2938 7.50942V7.6688H0.834424V7.50942H1.2938ZM1.53755 6.72192H1.69692V7.6688H1.53755V6.72192Z" fill="white"/>
<path fill-rule="evenodd" clip-rule="evenodd" d="M2.45627 7.50947V7.66885H1.5844V7.50947H2.45627ZM0.834399 7.13916H0.984399V7.66885H0.829712L0.834399 7.13916Z" fill="white"/>
<path fill-rule="evenodd" clip-rule="evenodd" d="M2.32505 6.72192H2.48442V7.6688H2.32505V6.72192ZM1.9313 6.72192H2.08599V7.6688H1.9313V6.72192ZM-0.168701 7.09692V7.2563H-1.01245V7.10161L-0.168701 7.09692ZM1.67349 7.09692V7.2563H0.829736V7.10161L1.67349 7.09692Z" fill="white"/>
<path fill-rule="evenodd" clip-rule="evenodd" d="M0.834399 7.13916H0.984399V7.66885H0.829712L0.834399 7.13916Z" fill="white"/>
<path fill-rule="evenodd" clip-rule="evenodd" d="M0.834399 7.13916H0.984399V7.66885H0.829712L0.834399 7.13916Z" fill="white"/>
<path fill-rule="evenodd" clip-rule="evenodd" d="M0.834375 7.13916H0.984375V7.66885H0.829688L0.834375 7.13916ZM-1.00781 7.13916H-0.853125V7.66885H-1.00781V7.13916ZM0.342187 7.13916H0.501563V7.66885H0.342187V7.13916ZM-0.328125 7.13916H-0.16875V7.66885H-0.328125V7.13916Z" fill="white"/>
<path fill-rule="evenodd" clip-rule="evenodd" d="M0.45 7.50937V7.66875H-0.257812V7.50937H0.45ZM0.496875 7.10156V7.25625H0.046875V7.10156H0.496875Z" fill="white"/>
<path fill-rule="evenodd" clip-rule="evenodd" d="M2.73279 6.72192H5.02966V6.8813H2.73279V6.72192ZM3.07498 7.5188H3.23435V7.6688H3.07498V7.5188ZM5.03904 7.50942V7.6688H4.57966V7.50942H5.03904ZM5.28748 6.72192H5.44685V7.6688H5.28748V6.72192Z" fill="white"/>
<path fill-rule="evenodd" clip-rule="evenodd" d="M6.20159 7.50947V7.66885H5.32971V7.50947H6.20159ZM4.57971 7.13916H4.73909V7.66885H4.57971V7.13916Z" fill="white"/>
<path fill-rule="evenodd" clip-rule="evenodd" d="M6.07029 6.72192H6.22966V7.6688H6.07029V6.72192ZM5.67654 6.72192H5.83591V7.6688H5.67185L5.67654 6.72192ZM3.57654 7.09692V7.2563H2.73279V7.10161L3.57654 7.09692ZM5.41873 7.09692V7.2563H4.57498V7.10161L5.41873 7.09692Z" fill="white"/>
<path fill-rule="evenodd" clip-rule="evenodd" d="M4.57971 7.13916H4.73909V7.66885H4.57971V7.13916Z" fill="white"/>
<path fill-rule="evenodd" clip-rule="evenodd" d="M4.57971 7.13916H4.73909V7.66885H4.57971V7.13916Z" fill="white"/>
<path fill-rule="evenodd" clip-rule="evenodd" d="M4.57961 7.13916H4.73899V7.66885H4.57961V7.13916ZM2.73743 7.13916H2.8968V7.66885H2.73743V7.13916ZM4.08743 7.13916H4.2468V7.66885H4.08743V7.13916ZM3.41711 7.13916H3.57649V7.66885H3.41711V7.13916Z" fill="white"/>
<path fill-rule="evenodd" clip-rule="evenodd" d="M4.19993 7.50937V7.66875H3.48743V7.50937H4.19993ZM4.2468 7.10156V7.25625H3.7968V7.10156H4.2468Z" fill="white"/>
<path fill-rule="evenodd" clip-rule="evenodd" d="M6.50159 6.72192H8.80315V6.8813H6.50627L6.50159 6.72192ZM6.84846 7.5188H7.00315V7.6688H6.84846V7.5188ZM8.80784 7.50942V7.6688H8.34846V7.50942H8.80784ZM9.05627 6.72192H9.21565V7.6688H9.05627V6.72192Z" fill="white"/>
<path fill-rule="evenodd" clip-rule="evenodd" d="M9.97507 7.50947V7.66885H9.1032V7.50947H9.97507ZM8.34851 7.13916H8.50789V7.66885H8.34851V7.13916Z" fill="white"/>
<path fill-rule="evenodd" clip-rule="evenodd" d="M9.84373 6.72192H10.0031V7.6688H9.84373V6.72192ZM9.44529 6.72192H9.60466V7.6688H9.44529V6.72192ZM7.34529 7.09692V7.2563H6.50623V7.10161L7.34529 7.09692ZM9.18748 7.09692V7.2563H8.34841V7.10161L9.18748 7.09692Z" fill="white"/>
<path fill-rule="evenodd" clip-rule="evenodd" d="M8.34851 7.13916H8.50789V7.66885H8.34851V7.13916Z" fill="white"/>
<path fill-rule="evenodd" clip-rule="evenodd" d="M8.34851 7.13916H8.50789V7.66885H8.34851V7.13916Z" fill="white"/>
<path fill-rule="evenodd" clip-rule="evenodd" d="M8.34841 7.13916H8.50779V7.66885H8.34841V7.13916ZM6.50623 7.13916H6.6656V7.66885H6.50623V7.13916ZM7.85623 7.13916H8.0156V7.66885H7.85623V7.13916ZM7.1906 7.13916H7.34529V7.66885H7.1906V7.13916Z" fill="white"/>
<path fill-rule="evenodd" clip-rule="evenodd" d="M7.9688 7.50937V7.66875H7.26099V7.50937H7.9688ZM8.01567 7.10156V7.25625H7.56567V7.10156H8.01567Z" fill="white"/>
<path fill-rule="evenodd" clip-rule="evenodd" d="M10.2891 6.72192H12.5859V6.8813H10.2891V6.72192ZM10.6313 7.5188H10.7906V7.6688H10.6313V7.5188ZM12.5953 7.50942V7.6688H12.1359V7.50942H12.5953ZM12.8438 6.72192H12.9984V7.6688H12.8438V6.72192Z" fill="white"/>
<path fill-rule="evenodd" clip-rule="evenodd" d="M13.7579 7.50947V7.66885H12.886V7.50947H13.7579ZM12.136 7.13916H12.2954V7.66885H12.136V7.13916Z" fill="white"/>
<path fill-rule="evenodd" clip-rule="evenodd" d="M13.6266 6.72192H13.7859V7.6688H13.6266V6.72192ZM13.2328 6.72192H13.3922V7.6688H13.2328V6.72192ZM11.1328 7.09692V7.2563H10.2891V7.10161L11.1328 7.09692ZM12.975 7.09692V7.2563H12.1312V7.10161L12.975 7.09692Z" fill="white"/>
<path fill-rule="evenodd" clip-rule="evenodd" d="M12.136 7.13916H12.2954V7.66885H12.136V7.13916Z" fill="white"/>
<path fill-rule="evenodd" clip-rule="evenodd" d="M12.136 7.13916H12.2954V7.66885H12.136V7.13916Z" fill="white"/>
<path fill-rule="evenodd" clip-rule="evenodd" d="M12.1359 7.13916H12.2953V7.66885H12.1359V7.13916ZM10.2937 7.13916H10.4484V7.66885H10.2937V7.13916ZM11.6437 7.13916H11.8031V7.66885H11.6437V7.13916ZM10.9734 7.13916H11.1328V7.66885H10.9687L10.9734 7.13916Z" fill="white"/>
<path fill-rule="evenodd" clip-rule="evenodd" d="M11.7562 7.50937V7.66875H11.0437V7.50937H11.7562ZM11.8031 7.10156V7.25625H11.3437V7.10156H11.8031Z" fill="white"/>
<path fill-rule="evenodd" clip-rule="evenodd" d="M14.0953 6.72192H16.3922V6.8813H14.0953V6.72192ZM14.4375 7.5188H14.5969V7.6688H14.4375V7.5188ZM16.4016 7.50942V7.6688H15.9375V7.50942H16.4016ZM16.65 6.72192H16.8047V7.6688H16.65V6.72192Z" fill="white"/>
<path fill-rule="evenodd" clip-rule="evenodd" d="M17.5641 7.50947V7.66885H16.6922V7.50947H17.5641ZM15.9422 7.13916H16.1016V7.66885H15.9375L15.9422 7.13916Z" fill="white"/>
<path fill-rule="evenodd" clip-rule="evenodd" d="M17.4375 6.72192H17.5922V7.6688H17.4375V6.72192ZM17.0391 6.72192H17.1985V7.6688H17.0391V6.72192ZM14.9391 7.09692V7.2563H14.0953V7.10161L14.9391 7.09692ZM16.7813 7.09692V7.2563H15.9375V7.10161L16.7813 7.09692Z" fill="white"/>
<path fill-rule="evenodd" clip-rule="evenodd" d="M15.9375 7.13916H16.1016V7.66885H15.9375V7.13916Z" fill="white"/>
<path fill-rule="evenodd" clip-rule="evenodd" d="M15.9375 7.13916H16.1016V7.66885H15.9375V7.13916Z" fill="white"/>
<path fill-rule="evenodd" clip-rule="evenodd" d="M15.9375 7.13916H16.1015V7.66885H15.9375V7.13916ZM14.1 7.13916H14.2594V7.66885H14.1V7.13916ZM15.45 7.13916H15.6094V7.66885H15.45V7.13916ZM14.7797 7.13916H14.939V7.66885H14.7797V7.13916Z" fill="white"/>
<path fill-rule="evenodd" clip-rule="evenodd" d="M15.5625 7.50937V7.66875H14.85V7.50937H15.5625ZM15.6094 7.10156V7.25625H15.1594V7.10156H15.6094Z" fill="white"/>
<path fill-rule="evenodd" clip-rule="evenodd" d="M17.8782 6.72192H20.175V6.8813H17.8782V6.72192ZM18.2204 7.5188H18.3797V7.6688H18.2204V7.5188ZM20.1891 7.50942V7.6688H19.725V7.50942H20.1891ZM20.4329 6.72192H20.5922V7.6688H20.4329V6.72192Z" fill="white"/>
<path fill-rule="evenodd" clip-rule="evenodd" d="M21.347 7.50947V7.66885H20.4751V7.50947H21.347ZM19.7251 7.13916H19.8845V7.66885H19.7251V7.13916Z" fill="white"/>
<path fill-rule="evenodd" clip-rule="evenodd" d="M21.2203 6.72192H21.375V7.6688H21.2203V6.72192ZM20.8219 6.72192H20.9813V7.6688H20.8219V6.72192ZM18.7219 7.09692V7.2563H17.8828V7.10161L18.7219 7.09692ZM20.5641 7.09692V7.2563H19.725V7.10161L20.5641 7.09692Z" fill="white"/>
<path fill-rule="evenodd" clip-rule="evenodd" d="M19.7251 7.13916H19.8845V7.66885H19.7251V7.13916Z" fill="white"/>
<path fill-rule="evenodd" clip-rule="evenodd" d="M19.7251 7.13916H19.8845V7.66885H19.7251V7.13916Z" fill="white"/>
<path fill-rule="evenodd" clip-rule="evenodd" d="M19.725 7.13916H19.8844V7.66885H19.725V7.13916ZM17.8828 7.13916H18.0422V7.66885H17.8828V7.13916ZM19.2328 7.13916H19.3922V7.66885H19.2328V7.13916ZM18.5625 7.13916H18.7219V7.66885H18.5672L18.5625 7.13916Z" fill="white"/>
<path fill-rule="evenodd" clip-rule="evenodd" d="M19.3453 7.50937V7.66875H18.6375V7.50937H19.3453ZM19.3921 7.10156V7.25625H18.9375V7.10156H19.3921Z" fill="white"/>
<path fill-rule="evenodd" clip-rule="evenodd" d="M21.6655 6.72192H23.9624V6.8813H21.6655V6.72192ZM22.0077 7.5188H22.1671V7.6688H22.0077V7.5188ZM23.9718 7.50942V7.6688H23.5124V7.50942H23.9718ZM24.2155 6.72192H24.3749V7.6688H24.2155V6.72192Z" fill="white"/>
<path fill-rule="evenodd" clip-rule="evenodd" d="M25.1344 7.50947V7.66885H24.2625V7.50947H25.1344ZM23.5078 7.13916H23.6672V7.66885H23.5078V7.13916Z" fill="white"/>
<path fill-rule="evenodd" clip-rule="evenodd" d="M25.003 6.72192H25.1624V7.6688H25.003V6.72192ZM24.6093 6.72192H24.764V7.6688H24.6093V6.72192ZM22.5093 7.09692V7.2563H21.6655V7.10161L22.5093 7.09692ZM24.3515 7.09692V7.2563H23.5077V7.10161L24.3515 7.09692Z" fill="white"/>
<path fill-rule="evenodd" clip-rule="evenodd" d="M23.5125 7.13916H23.6671V7.66885H23.5125V7.13916Z" fill="white"/>
<path fill-rule="evenodd" clip-rule="evenodd" d="M23.5125 7.13916H23.6671V7.66885H23.5125V7.13916Z" fill="white"/>
<path fill-rule="evenodd" clip-rule="evenodd" d="M23.5124 7.13916H23.6671V7.66885H23.5124V7.13916ZM21.6655 7.13916H21.8249V7.66885H21.6655V7.13916ZM23.0202 7.13916H23.1749V7.66885H23.0202V7.13916ZM22.3499 7.13916H22.5093V7.66885H22.3499V7.13916Z" fill="white"/>
<path fill-rule="evenodd" clip-rule="evenodd" d="M23.128 7.50937V7.66875H22.4202V7.50937H23.128ZM23.1749 7.10156V7.25625H22.7249V7.10156H23.1749Z" fill="white"/>
<path fill-rule="evenodd" clip-rule="evenodd" d="M-3.225 15.9141H-2.94375V16.4062H-3.225V15.9141ZM4.29844 15.9141H4.57969V16.4062H4.29844V15.9141ZM-9 15.9141H-8.71875V16.4062H-9V15.9141ZM-5.17969 15.9141H-4.89844V16.4062H-5.17969V15.9141ZM-1.3875 15.9141H-1.10625V16.4062H-1.3875V15.9141ZM0.487499 15.9141H0.768749V16.4062H0.487499V15.9141ZM2.40469 15.9141H2.68594V16.4062H2.40469V15.9141ZM6.17344 15.9141H6.45469V16.4062H6.17344V15.9141ZM15.6891 15.9141H15.975V16.4062H15.6937L15.6891 15.9141ZM8.09063 15.9141H8.37188V16.4062H8.09063V15.9141ZM9.96563 15.9141H10.2469V16.4062H9.96563V15.9141ZM11.8641 15.9141H12.1453V16.4062H11.8641V15.9141ZM13.7578 15.9141H14.0391V16.4062H13.7578V15.9141ZM28.9078 15.9141H29.1891V16.4062H28.9078V15.9141ZM17.5312 15.9141H17.8125V16.4062H17.5312V15.9141ZM19.4437 15.9141H19.725V16.4062H19.4437V15.9141ZM21.3797 15.9141H21.6609V16.4062H21.3797V15.9141ZM23.1984 15.9141H23.4797V16.4062H23.1984V15.9141ZM25.1344 15.9141H25.4156V16.4062H25.1344V15.9141ZM27.0281 15.9141H27.3094V16.4062H27.0281V15.9141ZM32.6391 15.9141H32.9203V16.4062H32.6391V15.9141ZM30.8203 15.9141H31.1016V16.4062H30.8203V15.9141ZM-7.09687 15.9141H-6.81562V16.4062H-7.09687V15.9141Z" fill="#D90000"/>
<path fill-rule="evenodd" clip-rule="evenodd" d="M-3.225 7.62183H-2.94375V8.11401H-3.225V7.62183ZM4.29844 7.62183H4.57969V8.11401H4.29844V7.62183ZM-9 7.62183H-8.71875V8.11401H-9V7.62183ZM-5.17969 7.62183H-4.89844V8.11401H-5.17969V7.62183ZM-1.3875 7.62183H-1.10625V8.11401H-1.3875V7.62183ZM0.487499 7.62183H0.768749V8.11401H0.487499V7.62183ZM2.40469 7.62183H2.68594V8.11401H2.40469V7.62183ZM6.17344 7.62183H6.45469V8.11401H6.17344V7.62183ZM15.6891 7.62183H15.975V8.11401H15.6937L15.6891 7.62183ZM8.09063 7.62183H8.37188V8.11401H8.09063V7.62183ZM9.96563 7.62183H10.2469V8.11401H9.96563V7.62183ZM11.8641 7.62183H12.1453V8.11401H11.8641V7.62183ZM13.7578 7.62183H14.0391V8.11401H13.7578V7.62183ZM28.9078 7.62183H29.1891V8.11401H28.9078V7.62183ZM17.5312 7.62183H17.8125V8.11401H17.5312V7.62183ZM19.4437 7.62183H19.725V8.11401H19.4437V7.62183ZM21.3797 7.62183H21.6609V8.11401H21.3797V7.62183ZM23.1984 7.62183H23.4797V8.11401H23.1984V7.62183ZM25.1344 7.62183H25.4156V8.11401H25.1344V7.62183ZM27.0281 7.62183H27.3094V8.11401H27.0281V7.62183ZM32.6391 7.62183H32.9203V8.11401H32.6391V7.62183ZM30.8203 7.62183H31.1016V8.11401H30.8203V7.62183ZM-7.09687 7.62183H-6.81562V8.11401H-7.09687V7.62183Z" fill="#239E3F"/>
<path fill-rule="evenodd" clip-rule="evenodd" d="M13.1157 9.25781C13.5094 9.74531 14.7329 12.4266 12.3797 14.1891C11.2688 15.0234 11.9579 15.0609 11.9907 15.2016C13.7719 14.2594 14.3485 12.975 14.3344 11.8266C14.3251 10.6828 13.7157 9.67031 13.1157 9.25781Z" fill="#DA0000"/>
<path fill-rule="evenodd" clip-rule="evenodd" d="M13.35 9.13135C13.7849 9.39598 14.1556 9.75396 14.4352 10.1794C14.7149 10.6048 14.8964 11.0871 14.9669 11.5913C15.0373 12.0955 14.9948 12.609 14.8425 13.0948C14.6901 13.5806 14.4317 14.0264 14.086 14.4001C15.361 14.1188 16.9922 10.3501 13.35 9.13135ZM10.65 9.13135C10.2155 9.39638 9.8452 9.75466 9.56603 10.1803C9.28685 10.6059 9.10573 11.0882 9.03575 11.5924C8.96578 12.0966 9.0087 12.61 9.16141 13.0956C9.31412 13.5812 9.57281 14.0267 9.91877 14.4001C8.63908 14.1188 7.01252 10.3501 10.65 9.13135Z" fill="#DA0000"/>
<path fill-rule="evenodd" clip-rule="evenodd" d="M10.8844 9.25781C10.4907 9.74531 9.26722 12.4266 11.6203 14.1891C12.7266 15.0234 12.0422 15.0609 12.0094 15.2016C10.2282 14.2594 9.65159 12.975 9.66566 11.8266C9.67503 10.6828 10.2844 9.67031 10.8844 9.25781Z" fill="#DA0000"/>
<path fill-rule="evenodd" clip-rule="evenodd" d="M14.2594 14.9579C13.561 14.9672 12.6844 14.8641 12.0328 14.5219C12.1407 14.7329 12.2297 14.8641 12.3375 15.0704C12.9563 15.1313 13.8141 15.2016 14.2594 14.9579ZM9.80627 14.9579C10.5047 14.9672 11.3813 14.8641 12.0328 14.5219C11.925 14.7329 11.836 14.8641 11.7281 15.0704C11.1094 15.1313 10.2516 15.2016 9.80627 14.9579ZM11.086 8.4563C11.2266 8.8313 11.5969 8.88755 11.9906 8.66724C12.2813 8.83599 12.7266 8.85005 12.8813 8.47505C12.9985 9.40317 12.0235 9.17817 11.9906 9.00005C11.625 9.35161 10.95 9.15005 11.086 8.4563Z" fill="#DA0000"/>
<path fill-rule="evenodd" clip-rule="evenodd" d="M12.0188 15.5438L12.3844 15.122L12.436 9.49229L12 9.10791L11.5641 9.47354L11.6531 15.1454L12.0188 15.5438Z" fill="#DA0000"/>
</g>
<defs>
<clipPath id="clip0_26_274">
<rect width="32" height="24" fill="white" transform="translate(-4)"/>
</clipPath>
</defs>
</svg>
