<svg width="24" height="24" viewBox="0 0 24 24" fill="none" xmlns="http://www.w3.org/2000/svg">
<g clip-path="url(#clip0_26_2203)">
<path d="M8.80005 0H28V24H8.80005V0Z" fill="#FF0000"/>
<path d="M-4 0H8.8V24H-4V0Z" fill="#006600"/>
<path fill-rule="evenodd" clip-rule="evenodd" d="M12.975 15.3099C11.36 15.2599 3.97505 10.6499 3.92505 9.90986L4.33005 9.23486C5.06505 10.2999 12.615 14.7849 13.36 14.6249L12.975 15.3099Z" fill="#FFFF00" stroke="black" stroke-width="0.075" stroke-linecap="round" stroke-linejoin="round"/>
<path fill-rule="evenodd" clip-rule="evenodd" d="M4.24495 9.13989C4.09995 9.52989 6.17495 10.8099 8.66495 12.3299C11.16 13.8449 13.31 14.7799 13.465 14.6499L13.54 14.5099C13.51 14.5599 13.44 14.5749 13.325 14.5399C12.65 14.3449 10.895 13.5399 8.71995 12.2199C6.53995 10.8999 4.64995 9.68489 4.35495 9.16989C4.33196 9.12161 4.32163 9.06827 4.32495 9.01489H4.31495L4.25495 9.12489L4.24495 9.13989ZM13.01 15.3299C12.985 15.3799 12.93 15.3799 12.835 15.3699C12.235 15.3049 10.405 14.4149 8.23995 13.1199C5.71995 11.6099 3.63995 10.2399 3.86995 9.87989L3.92995 9.76989L3.93995 9.77489C3.73995 10.3849 8.04495 12.8449 8.29995 13.0049C10.79 14.5449 12.89 15.4499 13.075 15.2149L13.01 15.3299Z" fill="#FFFF00" stroke="black" stroke-width="0.075" stroke-linecap="round" stroke-linejoin="round"/>
<path fill-rule="evenodd" clip-rule="evenodd" d="M8.80984 10.36C10.4198 10.345 12.4098 10.14 13.5598 9.67995L13.3098 9.27995C12.6348 9.65495 10.6348 9.90495 8.79484 9.93995C6.62484 9.91995 5.08984 9.71495 4.31984 9.19995L4.08984 9.62995C5.49984 10.23 6.94984 10.355 8.80984 10.36Z" fill="#FFFF00"/>
<path d="M8.80984 10.36C10.4198 10.345 12.4098 10.14 13.5598 9.67995L13.3098 9.27995C12.6348 9.65495 10.6348 9.90495 8.79484 9.93995C6.62484 9.91995 5.08984 9.71495 4.31984 9.19995L4.08984 9.62995C5.49984 10.23 6.94984 10.355 8.80984 10.36" stroke="black" stroke-width="0.075" stroke-linecap="round" stroke-linejoin="round"/>
<path fill-rule="evenodd" clip-rule="evenodd" d="M13.625 9.68979C13.585 9.75479 12.835 10.0098 11.735 10.1998C10.7653 10.3467 9.78575 10.4186 8.80501 10.4148C7.86535 10.4183 6.92654 10.3582 5.99501 10.2348C4.84001 10.0548 4.24501 9.80479 4.02001 9.71479L4.07501 9.60479C4.71001 9.85479 5.31001 10.0048 6.01001 10.1148C6.93474 10.2396 7.86689 10.3015 8.80001 10.2998C9.77567 10.3008 10.7501 10.2289 11.715 10.0848C12.84 9.89978 13.455 9.66478 13.545 9.55978L13.625 9.69478V9.68979ZM13.405 9.28478C13.285 9.38478 12.675 9.59978 11.605 9.76978C10.681 9.90346 9.74861 9.9703 8.81501 9.96978C7.71501 9.96978 6.81001 9.88978 6.12501 9.78979C5.03501 9.64979 4.45501 9.38978 4.24501 9.31978L4.31001 9.20978C4.47501 9.29478 5.03001 9.51978 6.13501 9.67478C7.0233 9.79377 7.91881 9.85057 8.81501 9.84478C9.74196 9.84507 10.6677 9.77823 11.585 9.64478C12.66 9.49478 13.24 9.22479 13.33 9.15479L13.405 9.28478ZM3.51501 12.2998C4.50501 12.8348 6.71001 13.0998 8.79501 13.1198C10.695 13.1248 13.165 12.8298 14.09 12.3398L14.065 11.8048C13.775 12.2548 11.125 12.6898 8.77501 12.6748C6.42501 12.6548 4.24001 12.2948 3.51001 11.8248V12.2998" fill="#FFFF00"/>
<path d="M3.51501 12.2998C4.50501 12.8348 6.71001 13.0998 8.79501 13.1198C10.695 13.1248 13.165 12.8298 14.09 12.3398L14.065 11.8048C13.775 12.2548 11.125 12.6898 8.77501 12.6748C6.42501 12.6548 4.24001 12.2948 3.51001 11.8248V12.2998M13.625 9.68979C13.585 9.75479 12.835 10.0098 11.735 10.1998C10.7653 10.3467 9.78575 10.4186 8.80501 10.4148C7.86535 10.4183 6.92654 10.3582 5.99501 10.2348C4.84001 10.0548 4.24501 9.80479 4.02001 9.71479L4.07501 9.60479C4.71001 9.85479 5.31001 10.0048 6.01001 10.1148C6.93474 10.2396 7.86689 10.3015 8.80001 10.2998C9.77567 10.3008 10.7501 10.2289 11.715 10.0848C12.84 9.89978 13.455 9.66478 13.545 9.55978L13.625 9.69478V9.68979ZM13.405 9.28478C13.285 9.38478 12.675 9.59978 11.605 9.76978C10.681 9.90346 9.74861 9.9703 8.81501 9.96978C7.71501 9.96978 6.81001 9.88979 6.12501 9.78979C5.03501 9.64979 4.45501 9.38978 4.24501 9.31978L4.31001 9.20978C4.47501 9.29478 5.03001 9.51978 6.13501 9.67478C7.0233 9.79377 7.91881 9.85057 8.81501 9.84478C9.74196 9.84507 10.6677 9.77823 11.585 9.64478C12.66 9.49478 13.24 9.22479 13.33 9.15479L13.405 9.28478V9.28478Z" stroke="black" stroke-width="0.075" stroke-linecap="round" stroke-linejoin="round"/>
<path fill-rule="evenodd" clip-rule="evenodd" d="M14.14 12.2249V12.3499C14 12.5199 13.13 12.7699 12.04 12.9499C10.9571 13.1055 9.86394 13.1791 8.76995 13.1699C7.73261 13.1787 6.69614 13.1068 5.66995 12.9549C4.90423 12.8664 4.156 12.6642 3.44995 12.3549V12.2099C3.93495 12.5299 5.24495 12.7699 5.68495 12.8399C6.47495 12.9599 7.48995 13.0499 8.76995 13.0499C10.115 13.0499 11.19 12.9549 12.02 12.8299C12.805 12.7149 13.92 12.4199 14.14 12.2249ZM14.14 11.7749V11.8999C14 12.0649 13.13 12.3149 12.04 12.4949C10.9572 12.6522 9.86406 12.7274 8.76995 12.7199C7.73269 12.726 6.69644 12.6541 5.66995 12.5049C4.90423 12.4164 4.156 12.2142 3.44995 11.9049V11.7549C3.93495 12.0799 5.24995 12.3149 5.68495 12.3849C6.70636 12.5345 7.73766 12.6064 8.76995 12.5999C10.115 12.5999 11.195 12.4999 12.02 12.3749C12.805 12.2649 13.92 11.9699 14.14 11.7749ZM8.78995 15.2149C6.50995 15.2049 4.55495 14.5949 4.13995 14.4949L4.43995 14.9649C5.84241 15.4616 7.32233 15.7037 8.80995 15.6799C10.545 15.6299 12.06 15.4949 13.125 14.9749L13.435 14.4849C12.71 14.8299 10.235 15.2149 8.78495 15.2149" fill="#FFFF00"/>
<path d="M8.78995 15.2149C6.50995 15.2049 4.55495 14.5949 4.13995 14.4949L4.43995 14.9649C5.84241 15.4616 7.32233 15.7037 8.80995 15.6799C10.545 15.6299 12.06 15.4949 13.125 14.9749L13.435 14.4849C12.71 14.8299 10.235 15.2149 8.78495 15.2149M14.14 12.2249V12.3499C14 12.5199 13.13 12.7699 12.04 12.9499C10.9571 13.1055 9.86394 13.1791 8.76995 13.1699C7.73261 13.1787 6.69614 13.1068 5.66995 12.9549C4.90423 12.8664 4.156 12.6642 3.44995 12.3549V12.2099C3.93495 12.5299 5.24495 12.7699 5.68495 12.8399C6.47495 12.9599 7.48995 13.0499 8.76995 13.0499C10.115 13.0499 11.19 12.9549 12.02 12.8299C12.805 12.7149 13.92 12.4199 14.14 12.2249V12.2249ZM14.14 11.7749V11.8999C14 12.0649 13.13 12.3149 12.04 12.4949C10.9572 12.6522 9.86406 12.7274 8.76995 12.7199C7.73269 12.726 6.69644 12.6541 5.66995 12.5049C4.90423 12.4164 4.156 12.2142 3.44995 11.9049V11.7549C3.93495 12.0799 5.24995 12.3149 5.68495 12.3849C6.70636 12.5345 7.73766 12.6064 8.76995 12.5999C10.115 12.5999 11.195 12.4999 12.02 12.3749C12.805 12.2649 13.92 11.9699 14.14 11.7749V11.7749Z" stroke="black" stroke-width="0.075" stroke-linecap="round" stroke-linejoin="round"/>
<path fill-rule="evenodd" clip-rule="evenodd" d="M13.245 14.8649C13.1995 14.9324 13.1529 14.9991 13.105 15.0649C12.605 15.2449 11.805 15.4349 11.475 15.4849C10.5895 15.6499 9.6908 15.7336 8.79005 15.7349C6.77005 15.7049 5.11505 15.3099 4.34005 14.9699L4.27505 14.8649L4.28505 14.8449L4.39005 14.8899C5.81307 15.3608 7.30117 15.6055 8.80005 15.6149C9.74005 15.6149 10.675 15.5099 11.43 15.3749C12.59 15.1399 13.06 14.9649 13.205 14.8849L13.24 14.8649H13.245ZM13.51 14.4249C13.4771 14.4835 13.4438 14.5418 13.41 14.5999C13.14 14.6999 12.41 14.9099 11.345 15.0599C10.645 15.1549 10.21 15.2499 8.81505 15.2749C7.22036 15.2589 5.63547 15.0234 4.10505 14.5749L4.05005 14.4499C5.60497 14.8797 7.20721 15.1148 8.82005 15.1499C10.095 15.1249 10.64 15.0299 11.335 14.9349C12.575 14.7449 13.2 14.5349 13.385 14.4799C13.3852 14.4766 13.3852 14.4733 13.385 14.4699L13.515 14.4199L13.51 14.4249Z" fill="#FFFF00" stroke="black" stroke-width="0.075" stroke-linecap="round" stroke-linejoin="round"/>
<path fill-rule="evenodd" clip-rule="evenodd" d="M13.54 11.88C13.545 13.38 12.775 14.73 12.16 15.32C11.2517 16.2059 10.0387 16.7104 8.77002 16.73C7.25502 16.755 5.83002 15.77 5.44502 15.335C4.58373 14.4216 4.09353 13.2202 4.07002 11.965C4.16002 10.325 4.80502 9.185 5.73502 8.4C6.63844 7.65629 7.7749 7.25445 8.94502 7.265C9.62808 7.29812 10.2967 7.47356 10.908 7.78008C11.5193 8.0866 12.0599 8.51744 12.495 9.045C13.12 9.805 13.395 10.63 13.54 11.88ZM8.78002 6.75C10.1788 6.74996 11.5208 7.30286 12.5136 8.28817C13.5064 9.27347 14.0695 10.6113 14.08 12.01C14.08 12.704 13.9433 13.3913 13.6777 14.0325C13.4121 14.6737 13.0228 15.2563 12.5321 15.7471C12.0413 16.2378 11.4587 16.6271 10.8175 16.8927C10.1763 17.1583 9.48905 17.295 8.79502 17.295C8.10098 17.295 7.41374 17.1583 6.77254 16.8927C6.13133 16.6271 5.54872 16.2378 5.05796 15.7471C4.5672 15.2563 4.17791 14.6737 3.91231 14.0325C3.64672 13.3913 3.51002 12.704 3.51002 12.01C3.50502 9.11 5.87502 6.75 8.78002 6.75Z" fill="#FFFF00"/>
<path d="M8.78002 6.75C10.1788 6.74996 11.5208 7.30286 12.5136 8.28817C13.5064 9.27347 14.0695 10.6113 14.08 12.01C14.08 12.704 13.9433 13.3913 13.6777 14.0325C13.4121 14.6737 13.0228 15.2563 12.5321 15.7471C12.0413 16.2378 11.4587 16.6271 10.8175 16.8927C10.1763 17.1583 9.48905 17.295 8.79502 17.295C8.10098 17.295 7.41374 17.1583 6.77254 16.8927C6.13133 16.6271 5.54872 16.2378 5.05796 15.7471C4.5672 15.2563 4.17791 14.6737 3.91231 14.0325C3.64672 13.3913 3.51002 12.704 3.51002 12.01C3.50502 9.11 5.87502 6.75 8.78002 6.75M13.54 11.88C13.545 13.38 12.775 14.73 12.16 15.32C11.2517 16.2059 10.0387 16.7104 8.77002 16.73C7.25502 16.755 5.83002 15.77 5.44502 15.335C4.58373 14.4216 4.09353 13.2202 4.07002 11.965C4.16002 10.325 4.80502 9.185 5.73502 8.4C6.63844 7.65629 7.7749 7.25445 8.94502 7.265C9.62808 7.29812 10.2967 7.47356 10.908 7.78008C11.5193 8.0866 12.0599 8.51744 12.495 9.045C13.12 9.805 13.395 10.63 13.54 11.88V11.88Z" stroke="black" stroke-width="0.075" stroke-linecap="round" stroke-linejoin="round"/>
<path fill-rule="evenodd" clip-rule="evenodd" d="M8.79502 6.72485C11.705 6.72485 14.075 9.09485 14.075 12.0049C14.075 14.9149 11.705 17.2849 8.80002 17.2849C5.89502 17.2849 3.52002 14.9149 3.52002 12.0049C3.52002 9.09485 5.89002 6.72485 8.80002 6.72485H8.79502ZM3.63002 11.9999C3.63002 14.8399 5.96502 17.1649 8.79502 17.1649C11.625 17.1649 13.96 14.8399 13.96 11.9999C13.96 9.15985 11.625 6.83485 8.79502 6.83485C5.96502 6.83485 3.63002 9.15985 3.63002 11.9999Z" fill="#FFFF00" stroke="black" stroke-width="0.075" stroke-linecap="round" stroke-linejoin="round"/>
<path fill-rule="evenodd" clip-rule="evenodd" d="M8.79984 7.16479C10.0809 7.16875 11.3085 7.67942 12.2143 8.5853C13.1202 9.49119 13.6309 10.7187 13.6348 11.9998C13.6309 13.2814 13.1204 14.5094 12.2146 15.4161C11.3089 16.3227 10.0814 16.8345 8.79984 16.8398C6.14984 16.8398 3.96484 14.6598 3.96484 11.9998C3.97011 10.7191 4.4812 9.49235 5.3868 8.58675C6.2924 7.68115 7.51914 7.17006 8.79984 7.16479ZM4.07984 11.9998C4.07984 14.5998 6.20984 16.7198 8.79984 16.7198C11.3898 16.7198 13.5198 14.5948 13.5198 11.9998C13.5198 9.39979 11.3898 7.2798 8.79984 7.2798C7.54964 7.28506 6.35215 7.78403 5.46812 8.66807C4.58408 9.5521 4.08511 10.7496 4.07984 11.9998Z" fill="#FFFF00" stroke="black" stroke-width="0.075" stroke-linecap="round" stroke-linejoin="round"/>
<path fill-rule="evenodd" clip-rule="evenodd" d="M9.01506 6.69995H8.56006V17.315H9.01006L9.01506 6.69995Z" fill="#FFFF00" stroke="black" stroke-width="0.075" stroke-linecap="round" stroke-linejoin="round"/>
<path fill-rule="evenodd" clip-rule="evenodd" d="M8.96489 6.63989H9.07989V17.3749H8.96989V6.63989H8.96489ZM8.51489 6.63989H8.63489V17.3749H8.51989V6.63989H8.51489Z" fill="#FFFF00" stroke="black" stroke-width="0.075" stroke-linecap="round" stroke-linejoin="round"/>
<path fill-rule="evenodd" clip-rule="evenodd" d="M14.0799 12.2099V11.8199L13.7599 11.5199L11.9449 11.0399L9.33487 10.7749L6.18487 10.9349L3.94487 11.4649L3.49487 11.7999V12.1949L4.63987 11.6799L7.35987 11.2549H9.97487L11.8949 11.4649L13.2249 11.7849L14.0799 12.2099Z" fill="#FFFF00" stroke="black" stroke-width="0.075" stroke-linecap="round" stroke-linejoin="round"/>
<path fill-rule="evenodd" clip-rule="evenodd" d="M8.79995 11.1898C10.045 11.1898 11.25 11.3048 12.215 11.4898C13.205 11.6898 13.9 11.9398 14.14 12.2148V12.3548C13.85 12.0048 12.915 11.7548 12.19 11.6048C11.24 11.4248 10.04 11.3048 8.79495 11.3048C7.48995 11.3048 6.26995 11.4348 5.32995 11.6148C4.57995 11.7648 3.57495 12.0648 3.44995 12.3548V12.2098C3.51495 12.0098 4.26495 11.7098 5.31495 11.4948C6.25995 11.3098 7.47995 11.1898 8.79495 11.1898H8.79995ZM8.79995 10.7348C9.94496 10.7325 11.0879 10.8329 12.215 11.0348C13.205 11.2348 13.9 11.4848 14.14 11.7648V11.8998C13.85 11.5548 12.915 11.2998 12.19 11.1548C11.24 10.9698 10.04 10.8548 8.79495 10.8548C7.63452 10.8511 6.47625 10.9549 5.33495 11.1648C4.60995 11.2998 3.56495 11.6098 3.44995 11.8998V11.7598C3.51995 11.5598 4.27995 11.2448 5.31495 11.0448C6.26495 10.8598 7.47995 10.7348 8.79995 10.7348ZM8.76995 8.42482C10.735 8.41482 12.45 8.69982 13.235 9.09982L13.52 9.59982C12.84 9.22982 10.99 8.84982 8.77495 8.89982C6.96995 8.91482 5.03995 9.09982 4.07495 9.61982L4.41495 9.04982C5.20995 8.63482 7.07995 8.42482 8.76995 8.42482Z" fill="#FFFF00"/>
<path d="M8.76995 8.42482C10.735 8.41482 12.45 8.69982 13.235 9.09982L13.52 9.59982C12.84 9.22982 10.99 8.84982 8.77495 8.89982C6.96995 8.91482 5.03995 9.09982 4.07495 9.61982L4.41495 9.04982C5.20995 8.63482 7.07995 8.42482 8.76995 8.42482M8.79995 11.1898C10.045 11.1898 11.25 11.3048 12.215 11.4898C13.205 11.6898 13.9 11.9398 14.14 12.2148V12.3548C13.85 12.0048 12.915 11.7548 12.19 11.6048C11.24 11.4248 10.04 11.3048 8.79495 11.3048C7.48995 11.3048 6.26995 11.4348 5.32995 11.6148C4.57995 11.7648 3.57495 12.0648 3.44995 12.3548V12.2098C3.51495 12.0098 4.26495 11.7098 5.31495 11.4948C6.25995 11.3098 7.47995 11.1898 8.79495 11.1898H8.79995ZM8.79995 10.7348C9.94496 10.7325 11.0879 10.8329 12.215 11.0348C13.205 11.2348 13.9 11.4848 14.14 11.7648V11.8998C13.85 11.5548 12.915 11.2998 12.19 11.1548C11.24 10.9698 10.04 10.8548 8.79495 10.8548C7.63452 10.8511 6.47625 10.9549 5.33495 11.1648C4.60995 11.2998 3.56495 11.6098 3.44995 11.8998V11.7598C3.51995 11.5598 4.27995 11.2448 5.31495 11.0448C6.26495 10.8598 7.47995 10.7348 8.79995 10.7348V10.7348Z" stroke="black" stroke-width="0.075" stroke-linecap="round" stroke-linejoin="round"/>
<path fill-rule="evenodd" clip-rule="evenodd" d="M8.80004 8.83497C9.82601 8.81765 10.8515 8.88959 11.865 9.04997C12.665 9.19997 13.43 9.41997 13.54 9.53997L13.625 9.68997C13.36 9.51997 12.695 9.32497 11.845 9.16497C10.995 9.00497 9.91004 8.94997 8.79504 8.95497C7.53004 8.94997 6.54504 9.01497 5.70504 9.16497C5.12599 9.24612 4.56379 9.42001 4.04004 9.67997L4.12504 9.52497C4.42504 9.37497 4.89004 9.18997 5.68004 9.04497C6.55504 8.88497 7.55004 8.83997 8.80004 8.83497ZM8.80004 8.38497C9.87004 8.37497 10.93 8.43497 11.755 8.58497C12.2895 8.66432 12.8068 8.83337 13.285 9.08497L13.41 9.28497C13.2 9.04997 12.41 8.82497 11.705 8.70497C10.885 8.55997 9.87004 8.50497 8.80004 8.49497C7.804 8.48609 6.80894 8.55967 5.82504 8.71497C5.31058 8.78665 4.81092 8.94026 4.34504 9.16997L4.45504 9.00497C4.74504 8.85497 5.21504 8.71497 5.80504 8.59997C6.79542 8.44263 7.7973 8.36904 8.80004 8.37997V8.38497ZM11.42 14.2C10.5534 14.0499 9.67441 13.9829 8.79504 14C5.52004 14.04 4.46504 14.675 4.33504 14.865L4.08504 14.465C4.92504 13.865 6.70504 13.525 8.81504 13.555C9.91004 13.575 10.855 13.65 11.645 13.805L11.42 14.205" fill="#FFFF00"/>
<path d="M11.42 14.2C10.5534 14.0499 9.67441 13.9829 8.79504 14C5.52004 14.04 4.46504 14.675 4.33504 14.865L4.08504 14.465C4.92504 13.865 6.70504 13.525 8.81504 13.555C9.91004 13.575 10.855 13.65 11.645 13.805L11.42 14.205M8.80004 8.83497C9.82601 8.81765 10.8515 8.88959 11.865 9.04997C12.665 9.19997 13.43 9.41997 13.54 9.53997L13.625 9.68997C13.36 9.51997 12.695 9.32497 11.845 9.16497C10.995 9.00497 9.91004 8.94997 8.79504 8.95497C7.53004 8.94997 6.54504 9.01497 5.70504 9.16497C5.12599 9.24612 4.56379 9.42001 4.04004 9.67997L4.12504 9.52497C4.42504 9.37497 4.89004 9.18997 5.68004 9.04497C6.55504 8.88497 7.55004 8.83997 8.80004 8.83497V8.83497ZM8.80004 8.38497C9.87004 8.37497 10.93 8.43497 11.755 8.58497C12.2895 8.66432 12.8068 8.83337 13.285 9.08497L13.41 9.28497C13.2 9.04997 12.41 8.82497 11.705 8.70497C10.885 8.55997 9.87004 8.50497 8.80004 8.49497C7.804 8.48609 6.80894 8.55967 5.82504 8.71497C5.31058 8.78665 4.81092 8.94026 4.34504 9.16997L4.45504 9.00497C4.74504 8.85497 5.21504 8.71497 5.80504 8.59997C6.79542 8.44263 7.7973 8.36904 8.80004 8.37997V8.38497Z" stroke="black" stroke-width="0.075" stroke-linecap="round" stroke-linejoin="round"/>
<path fill-rule="evenodd" clip-rule="evenodd" d="M8.77992 13.9449C9.68992 13.9599 10.5799 13.9949 11.4449 14.1549L11.3849 14.2649C10.5849 14.1149 9.72492 14.0649 8.78492 14.0649C7.56992 14.0549 6.34992 14.1699 5.28492 14.4749C4.94992 14.5699 4.39492 14.7849 4.33492 14.9649L4.27492 14.8649C4.29492 14.7549 4.62492 14.5349 5.25492 14.3649C6.47492 14.0149 7.61492 13.9499 8.77992 13.9449ZM8.81992 13.4849C9.78041 13.4839 10.7391 13.5675 11.6849 13.7349L11.6199 13.8499C10.6964 13.6805 9.75888 13.5984 8.81992 13.6049C7.60992 13.6049 6.32492 13.6949 5.15492 14.0349C4.77992 14.1449 4.12492 14.3849 4.10492 14.5699L4.04492 14.4599C4.05492 14.2899 4.61992 14.0649 5.12992 13.9199C6.30492 13.5749 7.59492 13.4899 8.81992 13.4849Z" fill="#FFFF00" stroke="black" stroke-width="0.075" stroke-linecap="round" stroke-linejoin="round"/>
<path fill-rule="evenodd" clip-rule="evenodd" d="M13.47 14.5249L13.08 15.1399L11.945 14.1349L9.01499 12.1599L5.70499 10.3449L3.98999 9.75989L4.35499 9.07989L4.47999 9.01489L5.54499 9.27989L9.06499 11.0949L11.095 12.3749L12.8 13.5999L13.495 14.3999L13.47 14.5249Z" fill="#FFFF00" stroke="black" stroke-width="0.075" stroke-linecap="round" stroke-linejoin="round"/>
<path fill-rule="evenodd" clip-rule="evenodd" d="M3.92999 9.77493C4.22999 9.57493 6.43999 10.5549 8.75999 11.9549C11.065 13.3549 13.275 14.9349 13.075 15.2299L13.01 15.3349L12.98 15.3599C12.985 15.3549 13.02 15.3099 12.98 15.2049C12.88 14.8799 11.31 13.6299 8.71499 12.0599C6.17999 10.5549 4.06999 9.64493 3.86499 9.90493L3.92999 9.77493ZM13.55 14.5199C13.74 14.1399 11.69 12.5949 9.14499 11.0899C6.54499 9.61493 4.66499 8.74493 4.31999 9.00493L4.24999 9.14993C4.24999 9.15493 4.24999 9.13993 4.26999 9.12493C4.32999 9.07493 4.43499 9.07493 4.47999 9.07493C5.06999 9.08493 6.75499 9.85993 9.11999 11.2149C10.16 11.8149 13.5 13.9649 13.485 14.5649C13.485 14.6149 13.49 14.6249 13.47 14.6549L13.555 14.5249L13.55 14.5199Z" fill="#FFFF00" stroke="black" stroke-width="0.075" stroke-linecap="round" stroke-linejoin="round"/>
<path d="M5.63208 12.5885C5.63287 13.0025 5.71577 13.4122 5.87598 13.794C6.03618 14.1757 6.27052 14.5219 6.56542 14.8125C6.85672 15.1083 7.20367 15.3435 7.58629 15.5046C7.9689 15.6657 8.37961 15.7495 8.79476 15.7512C9.63494 15.7511 10.4407 15.4173 11.0348 14.8232C11.3286 14.531 11.5619 14.1836 11.7211 13.801C11.8804 13.4185 11.9625 13.0082 11.9628 12.5938V8.3698L5.63208 8.35913V12.5885Z" fill="white" stroke="black" stroke-width="0.0933336"/>
<path d="M5.74951 12.5938C5.75064 12.991 5.83039 13.3839 5.98418 13.7501C6.13796 14.1162 6.36273 14.4483 6.64551 14.7272C7.21334 15.298 7.9844 15.6202 8.78952 15.6232C9.59323 15.6236 10.3643 15.3052 10.9335 14.7378C11.2153 14.4585 11.4391 14.1263 11.592 13.7601C11.7449 13.394 11.8238 13.0012 11.8242 12.6045V8.4978H5.76018V12.5938M10.6135 9.72981V12.3378L10.6082 12.6098C10.61 12.8481 10.5637 13.0843 10.472 13.3042C10.3804 13.5241 10.2453 13.7233 10.0749 13.8898C9.7357 14.2302 9.27533 14.422 8.79485 14.4232C8.29352 14.4232 7.85085 14.2098 7.52018 13.8792C7.17985 13.54 6.98803 13.0796 6.98685 12.5991V9.71914L10.6135 9.72981Z" fill="#FF0000"/>
<path d="M5.74951 12.5938C5.75064 12.991 5.83039 13.3839 5.98418 13.7501C6.13796 14.1162 6.36273 14.4483 6.64551 14.7272C7.21334 15.298 7.9844 15.6202 8.78952 15.6232C9.59323 15.6236 10.3643 15.3052 10.9335 14.7378C11.2153 14.4585 11.4391 14.1263 11.592 13.7601C11.7449 13.394 11.8238 13.0012 11.8242 12.6045V8.4978H5.76018V12.5938M10.6135 9.72981V12.3378L10.6082 12.6098C10.61 12.8481 10.5637 13.0843 10.472 13.3042C10.3804 13.5241 10.2453 13.7233 10.0749 13.8898C9.7357 14.2302 9.27533 14.422 8.79485 14.4232C8.29352 14.4232 7.85085 14.2098 7.52018 13.8792C7.17985 13.54 6.98803 13.0796 6.98685 12.5991V9.71914L10.6135 9.72981Z" stroke="black" stroke-width="0.0666669"/>
<path d="M6.14404 9.56994C6.14938 9.27661 6.35738 9.20728 6.35738 9.20728C6.36271 9.20728 6.58671 9.28194 6.58671 9.57528H6.14404" fill="#FFFF00"/>
<path d="M5.96278 9.21261L5.92544 9.54861H6.14944C6.14944 9.27128 6.36278 9.22861 6.36278 9.22861C6.36811 9.22861 6.57611 9.28728 6.58144 9.54861H6.80544L6.76278 9.20728H5.96278V9.21261ZM5.90944 9.55394H6.81611C6.83211 9.55394 6.84811 9.56994 6.84811 9.59128C6.84811 9.61794 6.83211 9.63394 6.81611 9.63394H5.90944C5.89344 9.63394 5.87744 9.61794 5.87744 9.59128C5.87744 9.56994 5.89344 9.55394 5.91477 9.55394H5.90944Z" fill="#FFFF00" stroke="black" stroke-width="0.0666669"/>
<path d="M6.24002 9.54855C6.24002 9.37255 6.36268 9.32455 6.36268 9.32455C6.36268 9.32455 6.48535 9.37788 6.48535 9.54855H6.24002ZM5.93068 9.06855H6.80002C6.81602 9.06855 6.83202 9.08988 6.83202 9.11122C6.83202 9.12722 6.81602 9.14322 6.80002 9.14322H5.93068C5.91468 9.14322 5.89868 9.12722 5.89868 9.10588C5.89868 9.08988 5.91468 9.07388 5.93068 9.07388V9.06855ZM5.95202 9.14855H6.77335C6.78935 9.14855 6.80535 9.16455 6.80535 9.18588C6.80535 9.20722 6.78935 9.22322 6.77335 9.22322H5.94668C5.92535 9.22322 5.91468 9.20722 5.91468 9.18588C5.91468 9.16455 5.92535 9.14855 5.94668 9.14855H5.95202ZM6.21868 8.58321H6.28268V8.62588H6.33068V8.58321H6.40002V8.63121H6.44802V8.57788H6.51202V8.68455C6.51202 8.70588 6.50135 8.71655 6.48535 8.71655H6.25068C6.23468 8.71655 6.21868 8.70588 6.21868 8.68988V8.58321ZM6.46402 8.72721L6.48002 9.06855H6.25068L6.26668 8.72188H6.46402" fill="#FFFF00"/>
<path d="M6.46402 8.72721L6.48002 9.06855H6.25068L6.26668 8.72188H6.46402M6.24002 9.54855C6.24002 9.37255 6.36268 9.32455 6.36268 9.32455C6.36268 9.32455 6.48535 9.37788 6.48535 9.54855H6.24002ZM5.93068 9.06855H6.80002C6.81602 9.06855 6.83202 9.08988 6.83202 9.11122C6.83202 9.12722 6.81602 9.14322 6.80002 9.14322H5.93068C5.91468 9.14322 5.89868 9.12722 5.89868 9.10588C5.89868 9.08988 5.91468 9.07388 5.93068 9.07388V9.06855ZM5.95202 9.14855H6.77335C6.78935 9.14855 6.80535 9.16455 6.80535 9.18588C6.80535 9.20722 6.78935 9.22322 6.77335 9.22322H5.94668C5.92535 9.22322 5.91468 9.20722 5.91468 9.18588C5.91468 9.16455 5.92535 9.14855 5.94668 9.14855H5.95202ZM6.21868 8.58321H6.28268V8.62588H6.33068V8.58321H6.40002V8.63121H6.44802V8.57788H6.51202V8.68455C6.51202 8.70588 6.50135 8.71655 6.48535 8.71655H6.25068C6.23468 8.71655 6.21868 8.70588 6.21868 8.68988V8.58321Z" stroke="black" stroke-width="0.0666669"/>
<path d="M6.18672 8.88721V9.06854H5.97339V8.88721H6.18672Z" fill="#FFFF00" stroke="black" stroke-width="0.0666669"/>
<path d="M6.18672 8.88721V9.06854H5.97339V8.88721H6.18672Z" fill="#FFFF00" stroke="black" stroke-width="0.0666669"/>
<path d="M5.93604 8.74854H6.00004V8.80187H6.04804V8.74854H6.11204V8.80187H6.16004V8.74854H6.22404V8.8552C6.22404 8.87654 6.21337 8.8872 6.19737 8.8872H5.96803C5.95955 8.8872 5.95141 8.88383 5.94541 8.87783C5.93941 8.87183 5.93604 8.86369 5.93604 8.8552V8.74854Z" fill="#FFFF00" stroke="black" stroke-width="0.0666669"/>
<path d="M5.93604 8.74854H6.00004V8.80187H6.04804V8.74854H6.11204V8.80187H6.16004V8.74854H6.22404V8.8552C6.22404 8.87654 6.21337 8.8872 6.19737 8.8872H5.96803C5.95955 8.8872 5.95141 8.88383 5.94541 8.87783C5.93941 8.87183 5.93604 8.86369 5.93604 8.8552V8.74854Z" fill="#FFFF00" stroke="black" stroke-width="0.0666669"/>
<path d="M6.34155 8.83381C6.34155 8.80181 6.38955 8.80181 6.38955 8.83381V8.91915H6.34155V8.83381Z" fill="black"/>
<path d="M6.05884 8.95125C6.05884 8.91925 6.1015 8.91925 6.1015 8.95125V9.01525H6.05884V8.95125Z" fill="black"/>
<path d="M6.05884 8.95125C6.05884 8.91925 6.1015 8.91925 6.1015 8.95125V9.01525H6.05884V8.95125Z" fill="black"/>
<path d="M6.14404 9.56994C6.14938 9.27661 6.35738 9.20728 6.35738 9.20728C6.36271 9.20728 6.58671 9.28194 6.58671 9.57528H6.14404" fill="#FFFF00"/>
<path d="M5.96278 9.21261L5.92544 9.54861H6.14944C6.14944 9.27128 6.36278 9.22861 6.36278 9.22861C6.36811 9.22861 6.57611 9.28728 6.58144 9.54861H6.80544L6.76278 9.20728H5.96278V9.21261ZM5.90944 9.55394H6.81611C6.83211 9.55394 6.84811 9.56994 6.84811 9.59128C6.84811 9.61794 6.83211 9.63394 6.81611 9.63394H5.90944C5.89344 9.63394 5.87744 9.61794 5.87744 9.59128C5.87744 9.56994 5.89344 9.55394 5.91477 9.55394H5.90944Z" fill="#FFFF00" stroke="black" stroke-width="0.0666669"/>
<path d="M6.24002 9.54855C6.24002 9.37255 6.36268 9.32455 6.36268 9.32455C6.36268 9.32455 6.48535 9.37788 6.48535 9.54855H6.24002ZM5.93068 9.06855H6.80002C6.81602 9.06855 6.83202 9.08988 6.83202 9.11122C6.83202 9.12722 6.81602 9.14322 6.80002 9.14322H5.93068C5.91468 9.14322 5.89868 9.12722 5.89868 9.10588C5.89868 9.08988 5.91468 9.07388 5.93068 9.07388V9.06855ZM5.95202 9.14855H6.77335C6.78935 9.14855 6.80535 9.16455 6.80535 9.18588C6.80535 9.20722 6.78935 9.22322 6.77335 9.22322H5.94668C5.92535 9.22322 5.91468 9.20722 5.91468 9.18588C5.91468 9.16455 5.92535 9.14855 5.94668 9.14855H5.95202ZM6.21868 8.58321H6.28268V8.62588H6.33068V8.58321H6.40002V8.63121H6.44802V8.57788H6.51202V8.68455C6.51202 8.70588 6.50135 8.71655 6.48535 8.71655H6.25068C6.23468 8.71655 6.21868 8.70588 6.21868 8.68988V8.58321ZM6.46402 8.72721L6.48002 9.06855H6.25068L6.26668 8.72188H6.46402" fill="#FFFF00"/>
<path d="M6.46402 8.72721L6.48002 9.06855H6.25068L6.26668 8.72188H6.46402M6.24002 9.54855C6.24002 9.37255 6.36268 9.32455 6.36268 9.32455C6.36268 9.32455 6.48535 9.37788 6.48535 9.54855H6.24002ZM5.93068 9.06855H6.80002C6.81602 9.06855 6.83202 9.08988 6.83202 9.11122C6.83202 9.12722 6.81602 9.14322 6.80002 9.14322H5.93068C5.91468 9.14322 5.89868 9.12722 5.89868 9.10588C5.89868 9.08988 5.91468 9.07388 5.93068 9.07388V9.06855ZM5.95202 9.14855H6.77335C6.78935 9.14855 6.80535 9.16455 6.80535 9.18588C6.80535 9.20722 6.78935 9.22322 6.77335 9.22322H5.94668C5.92535 9.22322 5.91468 9.20722 5.91468 9.18588C5.91468 9.16455 5.92535 9.14855 5.94668 9.14855H5.95202ZM6.21868 8.58321H6.28268V8.62588H6.33068V8.58321H6.40002V8.63121H6.44802V8.57788H6.51202V8.68455C6.51202 8.70588 6.50135 8.71655 6.48535 8.71655H6.25068C6.23468 8.71655 6.21868 8.70588 6.21868 8.68988V8.58321Z" stroke="black" stroke-width="0.0666669"/>
<path d="M6.18672 8.88721V9.06854H5.97339V8.88721H6.18672Z" fill="#FFFF00" stroke="black" stroke-width="0.0666669"/>
<path d="M6.18672 8.88721V9.06854H5.97339V8.88721H6.18672Z" fill="#FFFF00" stroke="black" stroke-width="0.0666669"/>
<path d="M5.93604 8.74854H6.00004V8.80187H6.04804V8.74854H6.11204V8.80187H6.16004V8.74854H6.22404V8.8552C6.22404 8.87654 6.21337 8.8872 6.19737 8.8872H5.96803C5.95955 8.8872 5.95141 8.88383 5.94541 8.87783C5.93941 8.87183 5.93604 8.86369 5.93604 8.8552V8.74854Z" fill="#FFFF00" stroke="black" stroke-width="0.0666669"/>
<path d="M5.93604 8.74854H6.00004V8.80187H6.04804V8.74854H6.11204V8.80187H6.16004V8.74854H6.22404V8.8552C6.22404 8.87654 6.21337 8.8872 6.19737 8.8872H5.96803C5.95955 8.8872 5.95141 8.88383 5.94541 8.87783C5.93941 8.87183 5.93604 8.86369 5.93604 8.8552V8.74854Z" fill="#FFFF00" stroke="black" stroke-width="0.0666669"/>
<path d="M6.34155 8.83381C6.34155 8.80181 6.38955 8.80181 6.38955 8.83381V8.91915H6.34155V8.83381Z" fill="black"/>
<path d="M6.05884 8.95125C6.05884 8.91925 6.1015 8.91925 6.1015 8.95125V9.01525H6.05884V8.95125Z" fill="black"/>
<path d="M6.05884 8.95125C6.05884 8.91925 6.1015 8.91925 6.1015 8.95125V9.01525H6.05884V8.95125Z" fill="black"/>
<path d="M7.1067 14.6127C6.90232 14.4022 6.99969 14.2058 6.99969 14.2058C7.00345 14.202 7.21427 14.0957 7.42241 14.3024L7.11049 14.6165" fill="#FFFF00"/>
<path d="M6.72529 14.4896L6.9374 14.7528L7.09524 14.5939C6.89845 14.3985 7.0185 14.217 7.0185 14.217C7.02226 14.2133 7.21045 14.107 7.39964 14.2874L7.55748 14.1284L7.28522 13.9182L6.72151 14.4858L6.72529 14.4896ZM6.92991 14.768L7.56878 14.1246C7.58006 14.1133 7.60268 14.1132 7.61782 14.1282C7.63674 14.147 7.63682 14.1696 7.62555 14.181L6.98668 14.8243C6.9754 14.8357 6.95277 14.8358 6.93385 14.817C6.91872 14.8019 6.91864 14.7793 6.93367 14.7642L6.92991 14.768Z" fill="#FFFF00" stroke="black" stroke-width="0.0666669"/>
<path d="M7.15925 14.5297C7.03437 14.4056 7.08675 14.2848 7.08675 14.2848C7.08675 14.2848 7.21103 14.2353 7.33213 14.3556L7.15925 14.5297ZM6.60069 14.4109L7.21326 13.7941C7.22453 13.7827 7.25094 13.7864 7.26608 13.8014C7.27743 13.8127 7.27751 13.8353 7.26624 13.8467L6.65367 14.4635C6.6424 14.4749 6.61977 14.475 6.60463 14.4599C6.59328 14.4487 6.5932 14.426 6.60448 14.4147L6.60069 14.4109ZM6.67249 14.4522L7.25123 13.8694C7.26251 13.858 7.28513 13.8579 7.30027 13.873C7.31541 13.888 7.31549 13.9106 7.30421 13.922L6.72171 14.5086C6.70668 14.5237 6.68781 14.52 6.67267 14.505C6.65754 14.4899 6.6537 14.4711 6.66873 14.4559L6.67249 14.4522ZM6.45925 13.8646L6.50434 13.8192L6.53462 13.8492L6.56844 13.8152L6.53817 13.7851L6.58702 13.7359L6.62108 13.7697L6.6549 13.7357L6.61706 13.6981L6.66216 13.6527L6.73785 13.7278C6.75298 13.7429 6.75304 13.758 6.74176 13.7693L6.57641 13.9358C6.56513 13.9472 6.54629 13.951 6.53494 13.9397L6.45925 13.8646ZM6.7343 13.792L6.98777 14.0211L6.82618 14.1839L6.59146 13.9282L6.73051 13.7882" fill="#FFFF00"/>
<path d="M6.7343 13.792L6.98777 14.0211L6.82618 14.1839L6.59146 13.9282L6.73051 13.7882M7.15925 14.5297C7.03437 14.4056 7.08675 14.2848 7.08675 14.2848C7.08675 14.2848 7.21103 14.2353 7.33213 14.3556L7.15925 14.5297ZM6.60069 14.4109L7.21326 13.7941C7.22453 13.7827 7.25094 13.7864 7.26608 13.8014C7.27743 13.8127 7.27751 13.8353 7.26624 13.8467L6.65367 14.4635C6.6424 14.4749 6.61977 14.475 6.60463 14.4599C6.59328 14.4487 6.5932 14.426 6.60448 14.4147L6.60069 14.4109ZM6.67249 14.4522L7.25123 13.8694C7.26251 13.858 7.28513 13.8579 7.30027 13.873C7.31541 13.888 7.31549 13.9106 7.30421 13.922L6.72171 14.5086C6.70668 14.5237 6.68781 14.52 6.67267 14.505C6.65754 14.4899 6.6537 14.4711 6.66873 14.4559L6.67249 14.4522ZM6.45925 13.8646L6.50434 13.8192L6.53462 13.8492L6.56844 13.8152L6.53817 13.7851L6.58702 13.7359L6.62108 13.7697L6.6549 13.7357L6.61706 13.6981L6.66216 13.6527L6.73785 13.7278C6.75298 13.7429 6.75304 13.758 6.74176 13.7693L6.57641 13.9358C6.56513 13.9472 6.54629 13.951 6.53494 13.9397L6.45925 13.8646Z" stroke="black" stroke-width="0.0666669"/>
<path d="M6.65228 14.1016L6.78094 14.2293L6.63062 14.3807L6.50195 14.2529L6.65228 14.1016Z" fill="#FFFF00" stroke="black" stroke-width="0.0666669"/>
<path d="M6.65228 14.1016L6.78094 14.2293L6.63062 14.3807L6.50195 14.2529L6.65228 14.1016Z" fill="#FFFF00" stroke="black" stroke-width="0.0666669"/>
<path d="M6.3772 14.1816L6.42229 14.1362L6.46014 14.1738L6.49396 14.1397L6.45612 14.1022L6.50121 14.0568L6.53906 14.0943L6.57288 14.0603L6.53504 14.0227L6.58013 13.9773L6.65582 14.0524C6.67096 14.0675 6.67101 14.0826 6.65974 14.0939L6.49814 14.2566C6.49216 14.2627 6.48403 14.2661 6.47555 14.2661C6.46706 14.2661 6.45891 14.2628 6.45289 14.2568L6.3772 14.1816Z" fill="#FFFF00" stroke="black" stroke-width="0.0666669"/>
<path d="M6.3772 14.1816L6.42229 14.1362L6.46014 14.1738L6.49396 14.1397L6.45612 14.1022L6.50121 14.0568L6.53906 14.0943L6.57288 14.0603L6.53504 14.0227L6.58013 13.9773L6.65582 14.0524C6.67096 14.0675 6.67101 14.0826 6.65974 14.0939L6.49814 14.2566C6.49216 14.2627 6.48403 14.2661 6.47555 14.2661C6.46706 14.2661 6.45891 14.2628 6.45289 14.2568L6.3772 14.1816Z" fill="#FFFF00" stroke="black" stroke-width="0.0666669"/>
<path d="M6.72333 13.9542C6.70062 13.9316 6.73445 13.8976 6.75715 13.9201L6.8177 13.9802L6.78388 14.0143L6.72333 13.9542Z" fill="black"/>
<path d="M6.60761 14.2374C6.5849 14.2148 6.61496 14.1845 6.63767 14.2071L6.68308 14.2522L6.65302 14.2825L6.60761 14.2374Z" fill="black"/>
<path d="M6.60761 14.2374C6.5849 14.2148 6.61496 14.1845 6.63767 14.2071L6.68308 14.2522L6.65302 14.2825L6.60761 14.2374Z" fill="black"/>
<path d="M6.14404 9.56994C6.14938 9.27661 6.35738 9.20728 6.35738 9.20728C6.36271 9.20728 6.58671 9.28194 6.58671 9.57528H6.14404" fill="#FFFF00"/>
<path d="M5.96278 9.21261L5.92544 9.54861H6.14944C6.14944 9.27128 6.36278 9.22861 6.36278 9.22861C6.36811 9.22861 6.57611 9.28728 6.58144 9.54861H6.80544L6.76278 9.20728H5.96278V9.21261ZM5.90944 9.55394H6.81611C6.83211 9.55394 6.84811 9.56994 6.84811 9.59128C6.84811 9.61794 6.83211 9.63394 6.81611 9.63394H5.90944C5.89344 9.63394 5.87744 9.61794 5.87744 9.59128C5.87744 9.56994 5.89344 9.55394 5.91477 9.55394H5.90944Z" fill="#FFFF00" stroke="black" stroke-width="0.0666669"/>
<path d="M6.24002 9.54855C6.24002 9.37255 6.36268 9.32455 6.36268 9.32455C6.36268 9.32455 6.48535 9.37788 6.48535 9.54855H6.24002ZM5.93068 9.06855H6.80002C6.81602 9.06855 6.83202 9.08988 6.83202 9.11122C6.83202 9.12722 6.81602 9.14322 6.80002 9.14322H5.93068C5.91468 9.14322 5.89868 9.12722 5.89868 9.10588C5.89868 9.08988 5.91468 9.07388 5.93068 9.07388V9.06855ZM5.95202 9.14855H6.77335C6.78935 9.14855 6.80535 9.16455 6.80535 9.18588C6.80535 9.20722 6.78935 9.22322 6.77335 9.22322H5.94668C5.92535 9.22322 5.91468 9.20722 5.91468 9.18588C5.91468 9.16455 5.92535 9.14855 5.94668 9.14855H5.95202ZM6.21868 8.58321H6.28268V8.62588H6.33068V8.58321H6.40002V8.63121H6.44802V8.57788H6.51202V8.68455C6.51202 8.70588 6.50135 8.71655 6.48535 8.71655H6.25068C6.23468 8.71655 6.21868 8.70588 6.21868 8.68988V8.58321ZM6.46402 8.72721L6.48002 9.06855H6.25068L6.26668 8.72188H6.46402" fill="#FFFF00"/>
<path d="M6.46402 8.72721L6.48002 9.06855H6.25068L6.26668 8.72188H6.46402M6.24002 9.54855C6.24002 9.37255 6.36268 9.32455 6.36268 9.32455C6.36268 9.32455 6.48535 9.37788 6.48535 9.54855H6.24002ZM5.93068 9.06855H6.80002C6.81602 9.06855 6.83202 9.08988 6.83202 9.11122C6.83202 9.12722 6.81602 9.14322 6.80002 9.14322H5.93068C5.91468 9.14322 5.89868 9.12722 5.89868 9.10588C5.89868 9.08988 5.91468 9.07388 5.93068 9.07388V9.06855ZM5.95202 9.14855H6.77335C6.78935 9.14855 6.80535 9.16455 6.80535 9.18588C6.80535 9.20722 6.78935 9.22322 6.77335 9.22322H5.94668C5.92535 9.22322 5.91468 9.20722 5.91468 9.18588C5.91468 9.16455 5.92535 9.14855 5.94668 9.14855H5.95202ZM6.21868 8.58321H6.28268V8.62588H6.33068V8.58321H6.40002V8.63121H6.44802V8.57788H6.51202V8.68455C6.51202 8.70588 6.50135 8.71655 6.48535 8.71655H6.25068C6.23468 8.71655 6.21868 8.70588 6.21868 8.68988V8.58321Z" stroke="black" stroke-width="0.0666669"/>
<path d="M6.18672 8.88721V9.06854H5.97339V8.88721H6.18672Z" fill="#FFFF00" stroke="black" stroke-width="0.0666669"/>
<path d="M6.18672 8.88721V9.06854H5.97339V8.88721H6.18672Z" fill="#FFFF00" stroke="black" stroke-width="0.0666669"/>
<path d="M5.93604 8.74854H6.00004V8.80187H6.04804V8.74854H6.11204V8.80187H6.16004V8.74854H6.22404V8.8552C6.22404 8.87654 6.21337 8.8872 6.19737 8.8872H5.96803C5.95955 8.8872 5.95141 8.88383 5.94541 8.87783C5.93941 8.87183 5.93604 8.86369 5.93604 8.8552V8.74854Z" fill="#FFFF00" stroke="black" stroke-width="0.0666669"/>
<path d="M5.93604 8.74854H6.00004V8.80187H6.04804V8.74854H6.11204V8.80187H6.16004V8.74854H6.22404V8.8552C6.22404 8.87654 6.21337 8.8872 6.19737 8.8872H5.96803C5.95955 8.8872 5.95141 8.88383 5.94541 8.87783C5.93941 8.87183 5.93604 8.86369 5.93604 8.8552V8.74854Z" fill="#FFFF00" stroke="black" stroke-width="0.0666669"/>
<path d="M6.34155 8.83381C6.34155 8.80181 6.38955 8.80181 6.38955 8.83381V8.91915H6.34155V8.83381Z" fill="black"/>
<path d="M6.05884 8.95125C6.05884 8.91925 6.1015 8.91925 6.1015 8.95125V9.01525H6.05884V8.95125Z" fill="black"/>
<path d="M6.05884 8.95125C6.05884 8.91925 6.1015 8.91925 6.1015 8.95125V9.01525H6.05884V8.95125Z" fill="black"/>
<path d="M11.4456 9.56994C11.4402 9.27661 11.2322 9.20728 11.2322 9.20728C11.2269 9.20728 11.0029 9.28194 11.0029 9.57528H11.4456" fill="#FFFF00"/>
<path d="M11.6268 9.21261L11.6642 9.54861H11.4402C11.4402 9.27128 11.2268 9.22861 11.2268 9.22861C11.2215 9.22861 11.0135 9.28728 11.0082 9.54861H10.7842L10.8268 9.20728H11.6268V9.21261ZM11.6802 9.55394H10.7735C10.7575 9.55394 10.7415 9.56994 10.7415 9.59128C10.7415 9.61794 10.7575 9.63394 10.7735 9.63394H11.6802C11.6962 9.63394 11.7122 9.61794 11.7122 9.59128C11.7122 9.56994 11.6962 9.55394 11.6748 9.55394H11.6802Z" fill="#FFFF00" stroke="black" stroke-width="0.0666669"/>
<path d="M11.3496 9.54855C11.3496 9.37255 11.2269 9.32455 11.2269 9.32455C11.2269 9.32455 11.1042 9.37788 11.1042 9.54855H11.3496ZM11.6589 9.06855H10.7896C10.7736 9.06855 10.7576 9.08988 10.7576 9.11122C10.7576 9.12722 10.7736 9.14322 10.7896 9.14322H11.6589C11.6749 9.14322 11.6909 9.12722 11.6909 9.10588C11.6909 9.08988 11.6749 9.07388 11.6589 9.07388V9.06855ZM11.6376 9.14855H10.8162C10.8002 9.14855 10.7842 9.16455 10.7842 9.18588C10.7842 9.20722 10.8002 9.22322 10.8162 9.22322H11.6429C11.6643 9.22322 11.6749 9.20722 11.6749 9.18588C11.6749 9.16455 11.6643 9.14855 11.6429 9.14855H11.6376ZM11.3709 8.58321H11.3069V8.62588H11.2589V8.58321H11.1896V8.63121H11.1416V8.57788H11.0776V8.68455C11.0776 8.70588 11.0882 8.71655 11.1042 8.71655H11.3389C11.3549 8.71655 11.3709 8.70588 11.3709 8.68988V8.58321ZM11.1256 8.72721L11.1096 9.06855H11.3389L11.3229 8.72188H11.1256" fill="#FFFF00"/>
<path d="M11.1256 8.72721L11.1096 9.06855H11.3389L11.3229 8.72188H11.1256M11.3496 9.54855C11.3496 9.37255 11.2269 9.32455 11.2269 9.32455C11.2269 9.32455 11.1042 9.37788 11.1042 9.54855H11.3496ZM11.6589 9.06855H10.7896C10.7736 9.06855 10.7576 9.08988 10.7576 9.11122C10.7576 9.12722 10.7736 9.14322 10.7896 9.14322H11.6589C11.6749 9.14322 11.6909 9.12722 11.6909 9.10588C11.6909 9.08988 11.6749 9.07388 11.6589 9.07388V9.06855ZM11.6376 9.14855H10.8162C10.8002 9.14855 10.7842 9.16455 10.7842 9.18588C10.7842 9.20722 10.8002 9.22322 10.8162 9.22322H11.6429C11.6643 9.22322 11.6749 9.20722 11.6749 9.18588C11.6749 9.16455 11.6643 9.14855 11.6429 9.14855H11.6376ZM11.3709 8.58321H11.3069V8.62588H11.2589V8.58321H11.1896V8.63121H11.1416V8.57788H11.0776V8.68455C11.0776 8.70588 11.0882 8.71655 11.1042 8.71655H11.3389C11.3549 8.71655 11.3709 8.70588 11.3709 8.68988V8.58321Z" stroke="black" stroke-width="0.0666669"/>
<path d="M11.4029 8.88721V9.06854H11.6162V8.88721H11.4029Z" fill="#FFFF00" stroke="black" stroke-width="0.0666669"/>
<path d="M11.4029 8.88721V9.06854H11.6162V8.88721H11.4029Z" fill="#FFFF00" stroke="black" stroke-width="0.0666669"/>
<path d="M11.6536 8.74854H11.5896V8.80187H11.5416V8.74854H11.4776V8.80187H11.4296V8.74854H11.3656V8.8552C11.3656 8.87654 11.3762 8.8872 11.3922 8.8872H11.6216C11.6301 8.8872 11.6382 8.88383 11.6442 8.87783C11.6502 8.87183 11.6536 8.86369 11.6536 8.8552V8.74854Z" fill="#FFFF00" stroke="black" stroke-width="0.0666669"/>
<path d="M11.6536 8.74854H11.5896V8.80187H11.5416V8.74854H11.4776V8.80187H11.4296V8.74854H11.3656V8.8552C11.3656 8.87654 11.3762 8.8872 11.3922 8.8872H11.6216C11.6301 8.8872 11.6382 8.88383 11.6442 8.87783C11.6502 8.87183 11.6536 8.86369 11.6536 8.8552V8.74854Z" fill="#FFFF00" stroke="black" stroke-width="0.0666669"/>
<path d="M11.248 8.83381C11.248 8.80181 11.2 8.80181 11.2 8.83381V8.91915H11.248V8.83381Z" fill="black"/>
<path d="M11.5308 8.95125C11.5308 8.91925 11.4881 8.91925 11.4881 8.95125V9.01525H11.5308V8.95125Z" fill="black"/>
<path d="M11.5308 8.95125C11.5308 8.91925 11.4881 8.91925 11.4881 8.95125V9.01525H11.5308V8.95125Z" fill="black"/>
<path d="M11.4456 9.56994C11.4402 9.27661 11.2322 9.20728 11.2322 9.20728C11.2269 9.20728 11.0029 9.28194 11.0029 9.57528H11.4456" fill="#FFFF00"/>
<path d="M11.6268 9.21261L11.6642 9.54861H11.4402C11.4402 9.27128 11.2268 9.22861 11.2268 9.22861C11.2215 9.22861 11.0135 9.28728 11.0082 9.54861H10.7842L10.8268 9.20728H11.6268V9.21261ZM11.6802 9.55394H10.7735C10.7575 9.55394 10.7415 9.56994 10.7415 9.59128C10.7415 9.61794 10.7575 9.63394 10.7735 9.63394H11.6802C11.6962 9.63394 11.7122 9.61794 11.7122 9.59128C11.7122 9.56994 11.6962 9.55394 11.6748 9.55394H11.6802Z" fill="#FFFF00" stroke="black" stroke-width="0.0666669"/>
<path d="M11.3496 9.54855C11.3496 9.37255 11.2269 9.32455 11.2269 9.32455C11.2269 9.32455 11.1042 9.37788 11.1042 9.54855H11.3496ZM11.6589 9.06855H10.7896C10.7736 9.06855 10.7576 9.08988 10.7576 9.11122C10.7576 9.12722 10.7736 9.14322 10.7896 9.14322H11.6589C11.6749 9.14322 11.6909 9.12722 11.6909 9.10588C11.6909 9.08988 11.6749 9.07388 11.6589 9.07388V9.06855ZM11.6376 9.14855H10.8162C10.8002 9.14855 10.7842 9.16455 10.7842 9.18588C10.7842 9.20722 10.8002 9.22322 10.8162 9.22322H11.6429C11.6643 9.22322 11.6749 9.20722 11.6749 9.18588C11.6749 9.16455 11.6643 9.14855 11.6429 9.14855H11.6376ZM11.3709 8.58321H11.3069V8.62588H11.2589V8.58321H11.1896V8.63121H11.1416V8.57788H11.0776V8.68455C11.0776 8.70588 11.0882 8.71655 11.1042 8.71655H11.3389C11.3549 8.71655 11.3709 8.70588 11.3709 8.68988V8.58321ZM11.1256 8.72721L11.1096 9.06855H11.3389L11.3229 8.72188H11.1256" fill="#FFFF00"/>
<path d="M11.1256 8.72721L11.1096 9.06855H11.3389L11.3229 8.72188H11.1256M11.3496 9.54855C11.3496 9.37255 11.2269 9.32455 11.2269 9.32455C11.2269 9.32455 11.1042 9.37788 11.1042 9.54855H11.3496ZM11.6589 9.06855H10.7896C10.7736 9.06855 10.7576 9.08988 10.7576 9.11122C10.7576 9.12722 10.7736 9.14322 10.7896 9.14322H11.6589C11.6749 9.14322 11.6909 9.12722 11.6909 9.10588C11.6909 9.08988 11.6749 9.07388 11.6589 9.07388V9.06855ZM11.6376 9.14855H10.8162C10.8002 9.14855 10.7842 9.16455 10.7842 9.18588C10.7842 9.20722 10.8002 9.22322 10.8162 9.22322H11.6429C11.6643 9.22322 11.6749 9.20722 11.6749 9.18588C11.6749 9.16455 11.6643 9.14855 11.6429 9.14855H11.6376ZM11.3709 8.58321H11.3069V8.62588H11.2589V8.58321H11.1896V8.63121H11.1416V8.57788H11.0776V8.68455C11.0776 8.70588 11.0882 8.71655 11.1042 8.71655H11.3389C11.3549 8.71655 11.3709 8.70588 11.3709 8.68988V8.58321Z" stroke="black" stroke-width="0.0666669"/>
<path d="M11.4029 8.88721V9.06854H11.6162V8.88721H11.4029Z" fill="#FFFF00" stroke="black" stroke-width="0.0666669"/>
<path d="M11.4029 8.88721V9.06854H11.6162V8.88721H11.4029Z" fill="#FFFF00" stroke="black" stroke-width="0.0666669"/>
<path d="M11.6536 8.74854H11.5896V8.80187H11.5416V8.74854H11.4776V8.80187H11.4296V8.74854H11.3656V8.8552C11.3656 8.87654 11.3762 8.8872 11.3922 8.8872H11.6216C11.6301 8.8872 11.6382 8.88383 11.6442 8.87783C11.6502 8.87183 11.6536 8.86369 11.6536 8.8552V8.74854Z" fill="#FFFF00" stroke="black" stroke-width="0.0666669"/>
<path d="M11.6536 8.74854H11.5896V8.80187H11.5416V8.74854H11.4776V8.80187H11.4296V8.74854H11.3656V8.8552C11.3656 8.87654 11.3762 8.8872 11.3922 8.8872H11.6216C11.6301 8.8872 11.6382 8.88383 11.6442 8.87783C11.6502 8.87183 11.6536 8.86369 11.6536 8.8552V8.74854Z" fill="#FFFF00" stroke="black" stroke-width="0.0666669"/>
<path d="M11.248 8.83381C11.248 8.80181 11.2 8.80181 11.2 8.83381V8.91915H11.248V8.83381Z" fill="black"/>
<path d="M11.5308 8.95125C11.5308 8.91925 11.4881 8.91925 11.4881 8.95125V9.01525H11.5308V8.95125Z" fill="black"/>
<path d="M11.5308 8.95125C11.5308 8.91925 11.4881 8.91925 11.4881 8.95125V9.01525H11.5308V8.95125Z" fill="black"/>
<path d="M10.4829 14.6127C10.6873 14.4022 10.5899 14.2058 10.5899 14.2058C10.5862 14.202 10.3753 14.0957 10.1672 14.3024L10.4791 14.6165" fill="#FFFF00"/>
<path d="M10.8643 14.4896L10.6522 14.7528L10.4944 14.5939C10.6911 14.3985 10.5711 14.217 10.5711 14.217C10.5673 14.2133 10.3792 14.107 10.19 14.2874L10.0321 14.1284L10.3044 13.9182L10.8681 14.4858L10.8643 14.4896ZM10.6597 14.768L10.0208 14.1246C10.0095 14.1133 9.98692 14.1132 9.97178 14.1282C9.95286 14.147 9.95278 14.1696 9.96405 14.181L10.6029 14.8243C10.6142 14.8357 10.6368 14.8358 10.6557 14.817C10.6709 14.8019 10.671 14.7793 10.6559 14.7642L10.6597 14.768Z" fill="#FFFF00" stroke="black" stroke-width="0.0666669"/>
<path d="M10.4303 14.5297C10.5552 14.4056 10.5029 14.2848 10.5029 14.2848C10.5029 14.2848 10.3786 14.2353 10.2575 14.3556L10.4303 14.5297ZM10.9889 14.4109L10.3763 13.7941C10.3651 13.7827 10.3387 13.7864 10.3235 13.8014C10.3122 13.8127 10.3121 13.8353 10.3234 13.8467L10.9359 14.4635C10.9472 14.4749 10.9698 14.475 10.985 14.4599C10.9963 14.4487 10.9964 14.426 10.9851 14.4147L10.9889 14.4109ZM10.9171 14.4522L10.3384 13.8694C10.3271 13.858 10.3045 13.8579 10.2893 13.873C10.2742 13.888 10.2741 13.9106 10.2854 13.922L10.8679 14.5086C10.8829 14.5237 10.9018 14.52 10.9169 14.505C10.9321 14.4899 10.9359 14.4711 10.9209 14.4559L10.9171 14.4522ZM11.1304 13.8646L11.0853 13.8192L11.055 13.8492L11.0212 13.8152L11.0514 13.7851L11.0026 13.7359L10.9685 13.7697L10.9347 13.7357L10.9725 13.6981L10.9274 13.6527L10.8518 13.7278C10.8366 13.7429 10.8366 13.758 10.8478 13.7693L11.0132 13.9358C11.0245 13.9472 11.0433 13.951 11.0547 13.9397L11.1304 13.8646ZM10.8553 13.792L10.6018 14.0211L10.7634 14.1839L10.9981 13.9282L10.8591 13.7882" fill="#FFFF00"/>
<path d="M10.8553 13.792L10.6018 14.0211L10.7634 14.1839L10.9981 13.9282L10.8591 13.7882M10.4303 14.5297C10.5552 14.4056 10.5029 14.2848 10.5029 14.2848C10.5029 14.2848 10.3786 14.2353 10.2575 14.3556L10.4303 14.5297ZM10.9889 14.4109L10.3763 13.7941C10.3651 13.7827 10.3387 13.7864 10.3235 13.8014C10.3122 13.8127 10.3121 13.8353 10.3234 13.8467L10.9359 14.4635C10.9472 14.4749 10.9698 14.475 10.985 14.4599C10.9963 14.4487 10.9964 14.426 10.9851 14.4147L10.9889 14.4109ZM10.9171 14.4522L10.3384 13.8694C10.3271 13.858 10.3045 13.8579 10.2893 13.873C10.2742 13.888 10.2741 13.9106 10.2854 13.922L10.8679 14.5086C10.8829 14.5237 10.9018 14.52 10.9169 14.505C10.9321 14.4899 10.9359 14.4711 10.9209 14.4559L10.9171 14.4522ZM11.1304 13.8646L11.0853 13.8192L11.055 13.8492L11.0212 13.8152L11.0514 13.7851L11.0026 13.7359L10.9685 13.7697L10.9347 13.7357L10.9725 13.6981L10.9274 13.6527L10.8518 13.7278C10.8366 13.7429 10.8366 13.758 10.8478 13.7693L11.0132 13.9358C11.0245 13.9472 11.0433 13.951 11.0547 13.9397L11.1304 13.8646Z" stroke="black" stroke-width="0.0666669"/>
<path d="M10.9373 14.1016L10.8087 14.2293L10.959 14.3807L11.0876 14.2529L10.9373 14.1016Z" fill="#FFFF00" stroke="black" stroke-width="0.0666669"/>
<path d="M10.9373 14.1016L10.8087 14.2293L10.959 14.3807L11.0876 14.2529L10.9373 14.1016Z" fill="#FFFF00" stroke="black" stroke-width="0.0666669"/>
<path d="M11.2124 14.1816L11.1673 14.1362L11.1295 14.1738L11.0956 14.1397L11.1335 14.1022L11.0884 14.0568L11.0505 14.0943L11.0167 14.0603L11.0546 14.0227L11.0095 13.9773L10.9338 14.0524C10.9186 14.0675 10.9186 14.0826 10.9299 14.0939L11.0915 14.2566C11.0974 14.2627 11.1056 14.2661 11.1141 14.2661C11.1225 14.2661 11.1307 14.2628 11.1367 14.2568L11.2124 14.1816Z" fill="#FFFF00" stroke="black" stroke-width="0.0666669"/>
<path d="M11.2124 14.1816L11.1673 14.1362L11.1295 14.1738L11.0956 14.1397L11.1335 14.1022L11.0884 14.0568L11.0505 14.0943L11.0167 14.0603L11.0546 14.0227L11.0095 13.9773L10.9338 14.0524C10.9186 14.0675 10.9186 14.0826 10.9299 14.0939L11.0915 14.2566C11.0974 14.2627 11.1056 14.2661 11.1141 14.2661C11.1225 14.2661 11.1307 14.2628 11.1367 14.2568L11.2124 14.1816Z" fill="#FFFF00" stroke="black" stroke-width="0.0666669"/>
<path d="M10.8663 13.9542C10.889 13.9316 10.8552 13.8976 10.8324 13.9201L10.7719 13.9802L10.8057 14.0143L10.8663 13.9542Z" fill="black"/>
<path d="M10.982 14.2374C11.0047 14.2148 10.9746 14.1845 10.9519 14.2071L10.9065 14.2522L10.9366 14.2825L10.982 14.2374Z" fill="black"/>
<path d="M10.982 14.2374C11.0047 14.2148 10.9746 14.1845 10.9519 14.2071L10.9065 14.2522L10.9366 14.2825L10.982 14.2374Z" fill="black"/>
<path d="M8.40553 12.1297C8.40457 12.2423 8.44653 12.351 8.52287 12.4337C8.55849 12.4735 8.60202 12.5055 8.6507 12.5275C8.69937 12.5496 8.75211 12.5612 8.80554 12.5617C8.91754 12.5617 9.01887 12.5084 9.0882 12.4337C9.16454 12.351 9.2065 12.2423 9.20554 12.1297V11.5537H8.40553V12.1297Z" fill="#003399"/>
<path d="M8.59221 11.8524C8.63639 11.8524 8.67221 11.8166 8.67221 11.7724C8.67221 11.7282 8.63639 11.6924 8.59221 11.6924C8.54802 11.6924 8.51221 11.7282 8.51221 11.7724C8.51221 11.8166 8.54802 11.8524 8.59221 11.8524Z" fill="white"/>
<path d="M9.03483 11.8524C9.07902 11.8524 9.11483 11.8166 9.11483 11.7724C9.11483 11.7282 9.07902 11.6924 9.03483 11.6924C8.99065 11.6924 8.95483 11.7282 8.95483 11.7724C8.95483 11.8166 8.99065 11.8524 9.03483 11.8524Z" fill="white"/>
<path d="M8.81096 12.0658C8.85514 12.0658 8.89096 12.0299 8.89096 11.9858C8.89096 11.9416 8.85514 11.9058 8.81096 11.9058C8.76677 11.9058 8.73096 11.9416 8.73096 11.9858C8.73096 12.0299 8.76677 12.0658 8.81096 12.0658Z" fill="white"/>
<path d="M8.59221 12.2896C8.63639 12.2896 8.67221 12.2538 8.67221 12.2096C8.67221 12.1655 8.63639 12.1296 8.59221 12.1296C8.54802 12.1296 8.51221 12.1655 8.51221 12.2096C8.51221 12.2538 8.54802 12.2896 8.59221 12.2896Z" fill="white"/>
<path d="M9.03483 12.2896C9.07902 12.2896 9.11483 12.2538 9.11483 12.2096C9.11483 12.1655 9.07902 12.1296 9.03483 12.1296C8.99065 12.1296 8.95483 12.1655 8.95483 12.2096C8.95483 12.2538 8.99065 12.2896 9.03483 12.2896Z" fill="white"/>
<path d="M8.40553 12.1297C8.40457 12.2423 8.44653 12.351 8.52287 12.4337C8.55849 12.4735 8.60202 12.5055 8.6507 12.5275C8.69937 12.5496 8.75211 12.5612 8.80554 12.5617C8.91754 12.5617 9.01887 12.5084 9.0882 12.4337C9.16454 12.351 9.2065 12.2423 9.20554 12.1297V11.5537H8.40553V12.1297Z" fill="#003399"/>
<path d="M8.59221 11.8524C8.63639 11.8524 8.67221 11.8166 8.67221 11.7724C8.67221 11.7282 8.63639 11.6924 8.59221 11.6924C8.54802 11.6924 8.51221 11.7282 8.51221 11.7724C8.51221 11.8166 8.54802 11.8524 8.59221 11.8524Z" fill="white"/>
<path d="M9.03483 11.8524C9.07902 11.8524 9.11483 11.8166 9.11483 11.7724C9.11483 11.7282 9.07902 11.6924 9.03483 11.6924C8.99065 11.6924 8.95483 11.7282 8.95483 11.7724C8.95483 11.8166 8.99065 11.8524 9.03483 11.8524Z" fill="white"/>
<path d="M8.81096 12.0658C8.85514 12.0658 8.89096 12.0299 8.89096 11.9858C8.89096 11.9416 8.85514 11.9058 8.81096 11.9058C8.76677 11.9058 8.73096 11.9416 8.73096 11.9858C8.73096 12.0299 8.76677 12.0658 8.81096 12.0658Z" fill="white"/>
<path d="M8.59221 12.2896C8.63639 12.2896 8.67221 12.2538 8.67221 12.2096C8.67221 12.1655 8.63639 12.1296 8.59221 12.1296C8.54802 12.1296 8.51221 12.1655 8.51221 12.2096C8.51221 12.2538 8.54802 12.2896 8.59221 12.2896Z" fill="white"/>
<path d="M9.03483 12.2896C9.07902 12.2896 9.11483 12.2538 9.11483 12.2096C9.11483 12.1655 9.07902 12.1296 9.03483 12.1296C8.99065 12.1296 8.95483 12.1655 8.95483 12.2096C8.95483 12.2538 8.99065 12.2896 9.03483 12.2896Z" fill="white"/>
<path d="M8.40553 12.1297C8.40457 12.2423 8.44653 12.351 8.52287 12.4337C8.55849 12.4735 8.60202 12.5055 8.6507 12.5275C8.69937 12.5496 8.75211 12.5612 8.80554 12.5617C8.91754 12.5617 9.01887 12.5084 9.0882 12.4337C9.16454 12.351 9.2065 12.2423 9.20554 12.1297V11.5537H8.40553V12.1297Z" fill="#003399"/>
<path d="M8.59221 11.8524C8.63639 11.8524 8.67221 11.8166 8.67221 11.7724C8.67221 11.7282 8.63639 11.6924 8.59221 11.6924C8.54802 11.6924 8.51221 11.7282 8.51221 11.7724C8.51221 11.8166 8.54802 11.8524 8.59221 11.8524Z" fill="white"/>
<path d="M9.03483 11.8524C9.07902 11.8524 9.11483 11.8166 9.11483 11.7724C9.11483 11.7282 9.07902 11.6924 9.03483 11.6924C8.99065 11.6924 8.95483 11.7282 8.95483 11.7724C8.95483 11.8166 8.99065 11.8524 9.03483 11.8524Z" fill="white"/>
<path d="M8.81096 12.0658C8.85514 12.0658 8.89096 12.0299 8.89096 11.9858C8.89096 11.9416 8.85514 11.9058 8.81096 11.9058C8.76677 11.9058 8.73096 11.9416 8.73096 11.9858C8.73096 12.0299 8.76677 12.0658 8.81096 12.0658Z" fill="white"/>
<path d="M8.59221 12.2896C8.63639 12.2896 8.67221 12.2538 8.67221 12.2096C8.67221 12.1655 8.63639 12.1296 8.59221 12.1296C8.54802 12.1296 8.51221 12.1655 8.51221 12.2096C8.51221 12.2538 8.54802 12.2896 8.59221 12.2896Z" fill="white"/>
<path d="M9.03483 12.2896C9.07902 12.2896 9.11483 12.2538 9.11483 12.2096C9.11483 12.1655 9.07902 12.1296 9.03483 12.1296C8.99065 12.1296 8.95483 12.1655 8.95483 12.2096C8.95483 12.2538 8.99065 12.2896 9.03483 12.2896Z" fill="white"/>
<path d="M8.40553 12.1297C8.40457 12.2423 8.44653 12.351 8.52287 12.4337C8.55849 12.4735 8.60202 12.5055 8.6507 12.5275C8.69937 12.5496 8.75211 12.5612 8.80554 12.5617C8.91754 12.5617 9.01887 12.5084 9.0882 12.4337C9.16454 12.351 9.2065 12.2423 9.20554 12.1297V11.5537H8.40553V12.1297Z" fill="#003399"/>
<path d="M8.59221 11.8524C8.63639 11.8524 8.67221 11.8166 8.67221 11.7724C8.67221 11.7282 8.63639 11.6924 8.59221 11.6924C8.54802 11.6924 8.51221 11.7282 8.51221 11.7724C8.51221 11.8166 8.54802 11.8524 8.59221 11.8524Z" fill="white"/>
<path d="M9.03483 11.8524C9.07902 11.8524 9.11483 11.8166 9.11483 11.7724C9.11483 11.7282 9.07902 11.6924 9.03483 11.6924C8.99065 11.6924 8.95483 11.7282 8.95483 11.7724C8.95483 11.8166 8.99065 11.8524 9.03483 11.8524Z" fill="white"/>
<path d="M8.81096 12.0658C8.85514 12.0658 8.89096 12.0299 8.89096 11.9858C8.89096 11.9416 8.85514 11.9058 8.81096 11.9058C8.76677 11.9058 8.73096 11.9416 8.73096 11.9858C8.73096 12.0299 8.76677 12.0658 8.81096 12.0658Z" fill="white"/>
<path d="M8.59221 12.2896C8.63639 12.2896 8.67221 12.2538 8.67221 12.2096C8.67221 12.1655 8.63639 12.1296 8.59221 12.1296C8.54802 12.1296 8.51221 12.1655 8.51221 12.2096C8.51221 12.2538 8.54802 12.2896 8.59221 12.2896Z" fill="white"/>
<path d="M9.03483 12.2896C9.07902 12.2896 9.11483 12.2538 9.11483 12.2096C9.11483 12.1655 9.07902 12.1296 9.03483 12.1296C8.99065 12.1296 8.95483 12.1655 8.95483 12.2096C8.95483 12.2538 8.99065 12.2896 9.03483 12.2896Z" fill="white"/>
<path d="M8.40553 12.1297C8.40457 12.2423 8.44653 12.351 8.52287 12.4337C8.55849 12.4735 8.60202 12.5055 8.6507 12.5275C8.69937 12.5496 8.75211 12.5612 8.80554 12.5617C8.91754 12.5617 9.01887 12.5084 9.0882 12.4337C9.16454 12.351 9.2065 12.2423 9.20554 12.1297V11.5537H8.40553V12.1297Z" fill="#003399"/>
<path d="M8.59221 11.8524C8.63639 11.8524 8.67221 11.8166 8.67221 11.7724C8.67221 11.7282 8.63639 11.6924 8.59221 11.6924C8.54802 11.6924 8.51221 11.7282 8.51221 11.7724C8.51221 11.8166 8.54802 11.8524 8.59221 11.8524Z" fill="white"/>
<path d="M9.03483 11.8524C9.07902 11.8524 9.11483 11.8166 9.11483 11.7724C9.11483 11.7282 9.07902 11.6924 9.03483 11.6924C8.99065 11.6924 8.95483 11.7282 8.95483 11.7724C8.95483 11.8166 8.99065 11.8524 9.03483 11.8524Z" fill="white"/>
<path d="M8.81096 12.0658C8.85514 12.0658 8.89096 12.0299 8.89096 11.9858C8.89096 11.9416 8.85514 11.9058 8.81096 11.9058C8.76677 11.9058 8.73096 11.9416 8.73096 11.9858C8.73096 12.0299 8.76677 12.0658 8.81096 12.0658Z" fill="white"/>
<path d="M8.59221 12.2896C8.63639 12.2896 8.67221 12.2538 8.67221 12.2096C8.67221 12.1655 8.63639 12.1296 8.59221 12.1296C8.54802 12.1296 8.51221 12.1655 8.51221 12.2096C8.51221 12.2538 8.54802 12.2896 8.59221 12.2896Z" fill="white"/>
<path d="M9.03483 12.2896C9.07902 12.2896 9.11483 12.2538 9.11483 12.2096C9.11483 12.1655 9.07902 12.1296 9.03483 12.1296C8.99065 12.1296 8.95483 12.1655 8.95483 12.2096C8.95483 12.2538 8.99065 12.2896 9.03483 12.2896Z" fill="white"/>
</g>
<defs>
<clipPath id="clip0_26_2203">
<rect width="32" height="24" fill="white" transform="translate(-4)"/>
</clipPath>
</defs>
</svg>
