<svg width="24" height="24" viewBox="0 0 24 24" fill="none" xmlns="http://www.w3.org/2000/svg">
<g clip-path="url(#clip0_26_543)">
<path fill-rule="evenodd" clip-rule="evenodd" d="M-7.0625 0H30.0625V25H-7.0625V0Z" fill="#199D00"/>
<path fill-rule="evenodd" clip-rule="evenodd" d="M2.29135 7.08494C2.25268 7.67088 2.19467 8.69627 2.69257 8.80369C3.28715 8.86229 2.95844 7.78807 3.17597 7.59275C3.21464 7.4951 3.28715 7.4951 3.29199 7.61717V8.53025C3.29199 8.82322 3.48534 8.91111 3.63036 8.96971C3.78505 8.95994 3.8914 8.96971 3.94941 9.11619L4.02675 10.6933C4.02675 10.6933 4.38447 10.8008 4.4038 9.80955C4.4183 9.22361 4.28779 8.74021 4.36513 8.62791C4.36513 8.51561 4.51015 8.51072 4.60683 8.56443C4.76152 8.67186 4.82919 8.80857 5.07089 8.75975C5.43827 8.65232 5.66064 8.47166 5.66547 8.18846C5.65822 7.91014 5.60089 7.63549 5.49628 7.37791C5.51562 7.32908 5.42861 7.19725 5.44794 7.14842C5.51078 7.25584 5.6123 7.24607 5.63163 7.14842C5.56879 6.94334 5.47211 6.74314 5.31743 6.66014C5.18691 6.54295 4.99355 6.56248 4.93071 6.80662C4.89203 7.08494 5.02739 7.41209 5.22558 7.68553C5.26908 7.78807 5.32709 7.96385 5.30292 8.1201C5.19658 8.18357 5.09023 8.15428 4.99838 8.0615C4.99838 8.0615 4.70834 7.84178 4.70834 7.78807C4.78569 7.29002 4.72284 7.23143 4.67934 7.08982C4.65033 6.89939 4.55849 6.83592 4.48598 6.70896C4.41347 6.63084 4.31679 6.63084 4.26845 6.70896C4.13793 6.93357 4.20077 7.41697 4.29262 7.6367C4.3603 7.83689 4.46181 7.96385 4.41347 7.96385C4.3748 8.07615 4.29262 8.04686 4.22978 7.91502C4.15904 7.63757 4.1249 7.35189 4.12826 7.06541C4.10409 6.8408 4.07509 6.36228 3.92524 6.23533C3.83823 6.11814 3.70771 6.17674 3.65937 6.28416C3.6466 6.50229 3.65145 6.72112 3.67387 6.93846C3.77055 7.29979 3.80439 7.62205 3.85273 7.98826C3.86723 8.48143 3.57236 8.2031 3.58686 7.95408C3.65027 7.64102 3.64532 7.31775 3.57236 7.00682C3.52402 6.87986 3.47084 6.85057 3.34999 6.8701C3.25815 6.8701 3.02128 7.12889 2.95361 7.56834C2.95361 7.56834 2.8956 7.79295 2.87143 7.99314C2.83759 8.21775 2.69257 8.38377 2.58622 7.96385C2.49921 7.65623 2.4412 6.90916 2.29618 7.08494H2.29135Z" fill="white"/>
<path fill-rule="evenodd" clip-rule="evenodd" d="M3.91064 9.48242L2.36377 10.2344C2.37827 9.87793 3.0937 9.23828 3.58677 9.2334C3.90098 9.23828 3.82363 9.35547 3.90581 9.48242H3.91064Z" fill="white"/>
<path fill-rule="evenodd" clip-rule="evenodd" d="M3.63517 9.97071C2.82306 12.0947 5.54459 12.3926 5.84913 10.0586C5.87813 9.96095 5.99415 9.86818 6.01349 10.0244C5.95064 12.1387 3.90587 12.2803 3.55782 11.6162C3.47594 11.3877 3.43502 11.1463 3.43697 10.9033C3.38863 10.4883 3.1711 10.6494 3.13726 11.0596C3.10343 11.2891 3.11309 11.3526 3.11309 11.5723C3.21944 13.2422 5.85396 12.5244 6.28419 11.1475C6.51139 10.3858 6.24552 9.82423 6.36637 9.82423C6.6274 10.1074 6.99478 9.86329 7.07696 9.76564C7.1108 9.71681 7.19781 9.68263 7.25582 9.74611C7.45885 9.89259 7.81656 9.82423 7.89391 9.56544C7.93741 9.30665 7.97125 9.04298 7.98092 8.77443C7.81173 8.82325 7.69088 8.85743 7.67638 8.93068L7.64254 9.15529C7.62804 9.22853 7.48785 9.22853 7.47818 9.13575C7.41534 8.84279 7.15431 8.80861 6.99478 9.25782C6.89327 9.34572 6.69991 9.36525 6.68058 9.23341C6.70475 8.93068 6.5839 8.89161 6.3422 9.03322L6.11017 7.26564C6.20684 7.26564 6.30352 7.33888 6.39537 7.22169C6.29869 6.90431 6.08116 6.25978 5.96031 6.21095C5.90714 6.14259 5.8588 6.18654 5.78145 6.20607C5.65577 6.24513 5.53976 6.35255 5.57843 6.56739C5.72345 7.48536 5.82013 8.18361 5.96998 9.10646C5.99415 9.209 5.90714 9.3506 5.79112 9.33595C5.59776 9.20411 5.54942 8.93556 5.21104 8.94532C4.96934 8.94532 4.69864 9.21388 4.6648 9.46779C4.6213 9.67286 4.6068 9.89259 4.6648 10.0684C4.83399 10.2734 5.03702 10.2539 5.21588 10.21C5.3609 10.1465 5.48175 10 5.53492 10.0342C5.56876 10.0781 5.53976 10.5664 4.84366 10.9375C4.4231 11.1328 4.08473 11.1719 3.90587 10.8252C3.79469 10.6055 3.91554 9.78029 3.63517 9.97071Z" fill="white"/>
<path fill-rule="evenodd" clip-rule="evenodd" d="M7.10107 7.81242C7.26059 7.75382 8.03403 6.85539 8.03403 6.85539L7.91801 6.75773C7.87451 6.72355 7.87934 6.68449 7.91801 6.65031C8.11137 6.53312 8.04853 6.28898 7.95185 6.17179C7.88622 6.13948 7.81402 6.12309 7.741 6.12393C7.66799 6.12478 7.59618 6.14284 7.5313 6.17668C7.39594 6.30851 7.36694 6.51847 7.47329 6.64543C7.5748 6.69425 7.67632 6.80168 7.60864 6.86027C7.2896 7.20207 6.42431 7.79289 6.52583 7.81242C6.54516 7.84172 7.08174 7.84172 7.09624 7.81242H7.10107ZM2.41211 10.9862C2.12207 11.455 2.0979 12.1532 2.25742 12.3632C2.34443 12.4609 2.48462 12.5048 2.58613 12.4706C2.76982 12.3925 2.852 12.0165 2.80849 11.8847C2.74565 11.787 2.69731 11.7724 2.63447 11.8505C2.50879 12.1142 2.45561 11.9335 2.44111 11.787C2.42726 11.5389 2.44022 11.2901 2.47978 11.0448C2.51362 10.8398 2.47978 10.8984 2.41211 10.9862ZM14.8403 10.2392C14.5599 9.62394 14.1684 9.01847 14.0475 8.78898C13.6708 8.18744 13.2709 7.60105 12.8487 7.03117C12.549 6.66984 13.3417 7.18254 12.752 6.45988L12.3218 6.09367C12.2251 6.02531 11.9931 5.89836 11.9544 6.10343C11.9351 6.28898 11.9447 6.38664 11.9737 6.538C11.9979 6.63566 12.1429 6.80656 12.2154 6.90422C13.2065 8.23012 14.0769 9.64374 14.8161 11.1278C14.9418 11.0644 14.9128 10.3417 14.8403 10.2392Z" fill="white"/>
<path fill-rule="evenodd" clip-rule="evenodd" d="M13.6075 12.2804C13.5495 12.3438 13.7429 12.6124 13.9942 12.6124C14.41 12.5636 14.7773 12.3292 15.1157 11.7042C15.2532 11.4963 15.3409 11.2589 15.3719 11.0108C15.4129 9.82549 15.3188 8.63933 15.0916 7.47568C15.0771 7.37803 15.0916 7.26084 15.1012 7.23154C15.1302 7.19736 15.2221 7.23154 15.2704 7.14853C15.3429 7.07529 15.0771 6.46494 14.932 6.23545C14.8837 6.12803 14.8595 6.05967 14.7725 6.24521C14.6675 6.44995 14.6175 6.67892 14.6275 6.90928C14.8257 8.30088 14.8885 9.5167 15.0142 10.9083C15.0287 11.045 15.0094 11.2403 14.9175 11.3185C14.5528 11.7287 14.1064 12.0565 13.6075 12.2804ZM19.2391 12.2755C18.9394 12.4513 18.9394 12.6515 19.1811 12.6563C19.5968 12.6075 20.0899 12.5733 20.4283 12.0558C20.5478 11.812 20.6169 11.5462 20.6313 11.2745C20.6922 10.1074 20.6159 8.93715 20.4041 7.78818C20.3944 7.69053 20.3509 7.46103 20.3654 7.43174C20.3944 7.36338 20.5298 7.43662 20.5781 7.35849C20.6458 7.28525 20.2253 6.73838 20.0754 6.504C20.0271 6.39658 20.0077 6.32822 19.9159 6.51377C19.8185 6.72039 19.7881 6.95274 19.8289 7.17783C20.0512 8.6915 20.2156 9.82432 20.2494 11.1622C20.2301 11.2892 20.2253 11.3575 20.1672 11.5187C20.0367 11.6847 19.8917 11.8995 19.7564 12.002C19.621 12.0997 19.331 12.1974 19.2391 12.2755Z" fill="white"/>
<path fill-rule="evenodd" clip-rule="evenodd" d="M19.4615 10.9227C19.4615 10.5663 19.4663 10.2636 19.4567 9.995C19.4535 9.76756 19.4042 9.54319 19.3116 9.33582C19.2246 9.13563 19.2778 8.97449 19.2343 8.75965C19.1956 8.54481 19.2053 8.22254 19.1473 7.97352C19.1279 7.87586 19.0796 7.55848 19.0941 7.5243C19.1183 7.45594 19.2101 7.5243 19.2585 7.44617C19.3261 7.37293 19.0168 6.56727 18.8621 6.33778C18.8089 6.23524 18.7025 6.26942 18.5817 6.43543C18.4609 6.54774 18.5044 6.79676 18.5527 7.03602C18.8476 8.61317 19.0748 10.0438 19.0264 11.5429C19.0071 11.6698 19.4615 11.162 19.4615 10.9227ZM17.2524 8.96961C17.0638 8.95985 16.6723 8.59364 16.5563 8.38367C16.5373 8.33236 16.5292 8.27758 16.5325 8.22291C16.5358 8.16823 16.5505 8.11487 16.5756 8.06629C16.6481 8.01746 16.7545 7.96864 16.8366 8.01746C16.8366 8.01746 16.9188 8.13465 16.9043 8.1493C17.001 8.19813 17.0493 8.17371 17.059 8.12977C17.0638 8.05653 17.03 8.01258 17.03 7.93446C17.0735 7.70985 17.32 7.67567 17.4167 7.81727C17.4844 7.90516 17.5134 8.08582 17.5182 8.20789C17.5182 8.27137 17.4215 8.19813 17.3587 8.20789C17.3055 8.22742 17.291 8.29578 17.2862 8.35438C17.2765 8.51551 17.2572 8.7743 17.2524 8.96473V8.96961ZM13.7816 11.3134C13.8299 10.8348 13.7622 9.98035 13.7574 9.69715C13.7315 8.96881 13.6718 8.2421 13.5785 7.51942C13.5205 7.10926 13.7429 7.56336 13.7139 7.3241C13.6414 6.91883 13.419 6.64051 13.1531 6.2743C13.071 6.15223 13.071 6.12782 12.9404 6.3036C12.7954 6.63074 12.9211 6.86024 12.9598 7.11903C13.1483 7.95887 13.2595 8.73035 13.3127 9.49696C13.3683 10.2933 13.3748 11.0924 13.332 11.8895C13.477 11.8944 13.6994 11.66 13.7816 11.3134Z" fill="white"/>
<path fill-rule="evenodd" clip-rule="evenodd" d="M20.1045 10.547C19.771 9.98057 19.2731 9.3751 19.1377 9.14561C18.6895 8.51333 18.2187 7.89769 17.7262 7.29991C17.3153 6.86046 17.9195 7.22667 17.6488 6.88487C17.4216 6.63585 17.3588 6.55284 17.1606 6.40147C17.0639 6.338 17.0059 6.21593 16.9673 6.42589C16.9518 6.60775 16.9486 6.79046 16.9576 6.97276C16.9576 7.05577 17.0446 7.2169 17.1219 7.31456C18.1226 8.55967 19.2199 9.82921 20.0997 11.4259C20.2254 11.3624 20.1819 10.6446 20.0997 10.547H20.1045Z" fill="white"/>
<path fill-rule="evenodd" clip-rule="evenodd" d="M5.05142 9.50677C5.02725 9.55072 4.97407 9.60443 4.99341 9.65814C5.02725 9.70697 5.06108 9.72162 5.11909 9.72162C5.17226 9.72162 5.24961 9.73626 5.26411 9.70697C5.29311 9.67279 5.31245 9.60931 5.29311 9.54583C5.23511 9.39935 5.08042 9.45794 5.05142 9.50677Z" fill="#1BA400"/>
<path fill-rule="evenodd" clip-rule="evenodd" d="M16.2469 17.7002C16.6917 17.7197 16.9817 17.7246 17.3732 17.7685L17.8373 17.7197C18.3497 17.6709 18.369 18.457 18.369 18.457C18.369 18.9209 18.1902 18.9453 17.963 18.9941C17.8325 19.0137 17.7696 18.916 17.6971 18.8183C17.5878 18.8537 17.4713 18.8605 17.3587 18.8379C17.1702 18.8281 16.9865 18.8281 16.8028 18.8135C16.6095 18.7988 16.5031 18.8379 16.3049 18.8183C16.2663 18.8818 16.2083 18.9697 16.0922 18.9453C15.9956 18.9307 15.8747 18.6523 15.9085 18.4326C15.9811 18.2764 15.9569 18.3301 15.9569 18.2617C14.1393 18.2129 12.3072 18.1299 10.5283 18.1543C9.13613 18.1592 7.76328 18.2178 6.3856 18.2764C5.65083 18.2666 5.09009 18.1494 4.70337 17.5781C4.74204 17.5781 6.57896 17.6807 7.11553 17.6465C8.10649 17.6367 9.01528 17.5537 10.0256 17.5244C12.0172 17.5586 13.9943 17.5586 15.9859 17.7002C15.7925 17.5683 15.7925 17.2607 16.0826 17.1826C16.1067 17.1631 16.1212 17.334 16.1647 17.3291C16.4016 17.3144 16.2953 17.6367 16.2469 17.7002ZM8.24185 6.60644C7.94214 7.47558 8.41587 8.43261 8.74458 8.33983C8.98628 8.43749 9.1313 7.97851 9.22798 7.48046C9.30049 7.33886 9.34883 7.32421 9.38267 7.39745C9.373 8.06151 9.43101 8.21288 9.60019 8.41308C9.97725 8.70604 10.2915 8.45214 10.3156 8.42772L10.6057 8.12987C10.6733 8.05663 10.7604 8.05663 10.8522 8.11522C10.944 8.19823 10.9295 8.33983 11.1229 8.43749C11.2873 8.50585 11.6305 8.45702 11.7126 8.31542C11.819 8.12499 11.848 8.06151 11.8963 7.99315C11.9737 7.89061 12.1042 7.93456 12.1042 7.96874C12.0897 8.02733 12.0124 8.08104 12.0655 8.18847C12.1622 8.25683 12.1815 8.21288 12.2347 8.19823C12.4281 8.10058 12.5731 7.68065 12.5731 7.68065C12.5779 7.5244 12.4909 7.53417 12.4329 7.57323L12.2831 7.67577C12.1864 7.69042 12.0075 7.7539 11.9157 7.61229C11.8238 7.44628 11.8238 7.20702 11.7562 7.03612C11.7562 7.02636 11.6305 6.76757 11.7465 6.75292C11.8045 6.76269 11.9253 6.79686 11.9447 6.69433C12.0027 6.59179 11.819 6.3037 11.6885 6.15722C11.5773 6.03515 11.4226 6.0205 11.2728 6.14745C11.1664 6.24511 11.1809 6.35253 11.1616 6.45507C11.1432 6.52855 11.1424 6.60538 11.1592 6.67924C11.1761 6.75309 11.21 6.82186 11.2583 6.87987C11.3646 7.08495 11.5531 7.35351 11.4903 7.73436C11.4903 7.73436 11.3791 7.91015 11.1857 7.88573C11.1036 7.87108 10.973 7.8369 10.9054 7.30956C10.8522 6.91893 10.915 6.36229 10.7507 6.10351C10.6878 5.94237 10.6443 5.79101 10.4993 6.05956C10.4606 6.16698 10.2915 6.32811 10.4123 6.65526C10.5267 6.95007 10.5601 7.2706 10.509 7.583C10.4365 7.69042 10.422 7.7246 10.3301 7.82714C10.2044 7.97362 10.0643 7.93456 9.95791 7.88085C9.86123 7.81737 9.78389 7.78319 9.73555 7.56347C9.74521 7.22167 9.76455 6.66015 9.70171 6.54296C9.60986 6.35741 9.46001 6.42577 9.39717 6.48436C9.10961 6.80704 8.91707 7.20448 8.84126 7.63183C8.75425 7.91503 8.6624 7.83202 8.59956 7.71972C8.44487 7.57323 8.43037 6.41601 8.24185 6.60644Z" fill="white"/>
<path fill-rule="evenodd" clip-rule="evenodd" d="M9.15076 8.50089C9.29095 8.40323 9.22811 8.33487 9.43114 8.53995C9.69319 9.00831 9.84534 9.53117 9.87586 10.0683C9.86619 10.1952 9.95321 10.2733 9.99671 10.2441C10.016 9.95108 10.7266 9.54093 11.3792 9.48233C11.4759 9.45792 11.4276 9.26749 11.4421 9.16983C11.4034 8.80362 11.6451 8.47159 11.9835 8.44718C12.4475 8.51554 12.6022 8.76456 12.6119 9.14054C12.5587 9.87296 11.8046 9.99503 11.3841 10.0536C11.3212 10.078 11.2922 10.1073 11.3841 10.1415L13.1533 10.1513L13.2451 10.2001C13.2548 10.2489 13.2161 10.2099 13.1485 10.3271C13.0511 10.4998 12.9902 10.691 12.9696 10.8886C12.4427 11.0644 11.8965 11.1327 11.3454 11.206C11.152 11.3036 11.0554 11.4355 11.094 11.5819C11.1617 11.7431 11.5871 11.9091 11.5871 11.914C11.6693 11.9628 11.7611 12.0849 11.5629 12.3339C10.7025 12.2948 10.0305 11.9237 9.79852 11.4013C9.73084 11.3476 9.6535 11.4013 9.60516 11.4696C9.26678 11.9091 8.93807 12.2997 8.36283 12.5146C8.02445 12.6025 7.67156 12.4609 7.50721 12.2362C7.39603 12.1044 7.40086 11.9628 7.36219 11.9335C7.17366 12.0165 5.57845 12.7001 5.78148 12.3778C6.1682 11.9628 6.84495 11.6503 7.4347 11.2401C7.47821 11.0985 7.55555 10.6298 7.78758 10.4784C7.80208 10.4784 7.75374 10.7519 7.75858 10.8691C7.75858 10.9667 7.74891 11.0009 7.76824 10.9765C7.81175 10.9521 8.52718 10.3808 8.59002 10.205C8.6577 10.1073 8.60452 9.85343 8.60452 9.84366C8.46917 9.4921 8.28065 9.4628 8.21297 9.28702C8.15013 9.05753 8.17913 8.79386 8.30965 8.71573C8.42567 8.61319 8.56102 8.62296 8.69154 8.74015C8.83656 8.87198 8.96224 9.13077 9.00091 9.3212C8.97674 9.39444 8.80755 9.27237 8.75921 9.30655C8.85225 9.41455 8.91412 9.5463 8.93807 9.68741C9.03475 10.0878 9.00574 10.2441 8.90906 10.5028C8.59002 11.1816 8.18397 11.3817 7.82625 11.6357C7.81658 11.6357 7.81175 11.8066 7.94227 11.8993C7.99061 11.9482 8.17913 11.9726 8.39666 11.8993C8.86139 11.6386 9.23718 11.242 9.47464 10.7616C9.51572 10.3961 9.47609 10.0259 9.35863 9.67765C9.21844 9.3505 9.05408 8.88663 9.05408 8.87687C9.04925 8.67179 9.06375 8.60343 9.15076 8.50089ZM4.51981 6.61612C4.72283 6.71378 5.10955 6.66983 5.09022 6.3378L5.08055 6.18644C5.04188 6.08878 4.92586 6.11319 4.90169 6.21085C4.89202 6.24503 4.91619 6.29874 4.88719 6.31339C4.86785 6.33292 4.80501 6.32315 4.80501 6.23038C4.80501 6.20108 4.78568 6.17179 4.77117 6.15226C4.76151 6.14249 4.75184 6.14249 4.72767 6.14249C4.69866 6.14249 4.69866 6.14737 4.68416 6.17179C4.67933 6.1962 4.66966 6.22062 4.66966 6.24991C4.66966 6.28409 4.65033 6.29386 4.63099 6.29874C4.60199 6.29874 4.60682 6.29874 4.58265 6.28897C4.57298 6.27433 4.55848 6.26944 4.55848 6.24015L4.54398 6.16202C4.53431 6.14737 4.51497 6.13761 4.49564 6.13272C4.38446 6.13272 4.37479 6.26456 4.38446 6.31339C4.37479 6.32315 4.36995 6.55265 4.51981 6.61612Z" fill="white"/>
<path fill-rule="evenodd" clip-rule="evenodd" d="M10.4898 9.165C10.6928 9.26265 11.181 9.20894 11.0602 8.89156L11.0505 8.73531C11.007 8.63765 10.8958 8.66207 10.8717 8.76461C10.862 8.7939 10.8862 8.84761 10.8523 8.86226C10.8378 8.88179 10.7701 8.87203 10.775 8.78414C10.775 8.75484 10.7556 8.72066 10.7411 8.70113C10.7266 8.69625 10.7218 8.69136 10.6928 8.69136C10.6686 8.69136 10.6686 8.70113 10.6541 8.72554C10.6445 8.74996 10.6396 8.77437 10.6396 8.80367C10.6348 8.83297 10.6203 8.84273 10.5961 8.8525C10.5719 8.8525 10.5768 8.8525 10.5574 8.83785C10.5429 8.8232 10.5284 8.81832 10.5284 8.7939L10.5139 8.71578C10.5043 8.70113 10.4849 8.69136 10.4656 8.68648C10.3544 8.68648 10.3447 8.81343 10.3496 8.86226C10.3447 8.87203 10.3399 9.1064 10.4946 9.165H10.4898ZM13.9702 8.11031C14.1733 8.20797 14.5551 8.16402 14.5406 7.83687L14.531 7.68062C14.4875 7.58297 14.3763 7.60738 14.3521 7.70504C14.3425 7.73922 14.3666 7.79293 14.3328 7.81246C14.3183 7.82711 14.2506 7.81734 14.2554 7.72457C14.2554 7.69527 14.2361 7.66597 14.2216 7.64644C14.2071 7.63668 14.2023 7.63668 14.1733 7.63668C14.1491 7.63668 14.1491 7.64644 14.1346 7.67086L14.1201 7.7441C14.1153 7.77828 14.1008 7.79293 14.0766 7.79293C14.0524 7.79293 14.0572 7.79293 14.0379 7.78316C14.0234 7.76851 14.0089 7.76363 14.0089 7.73922C14.0089 7.7148 14.0041 7.67574 13.9944 7.65621C13.9847 7.64156 13.9654 7.63668 13.9461 7.63179C13.8349 7.63179 13.8252 7.75875 13.8301 7.80758C13.8252 7.81734 13.8204 8.04683 13.9751 8.11031H13.9702ZM15.7733 10.7617C15.4204 11.167 15.5751 11.8359 15.6573 11.9824C15.7733 12.2168 15.8652 12.3681 16.0924 12.4853C16.3002 12.6367 16.4646 12.5439 16.5516 12.4365C16.7594 12.2168 16.7643 11.6552 16.861 11.5478C16.9286 11.3427 17.1027 11.3769 17.1848 11.4697C17.2617 11.5799 17.3648 11.6689 17.4845 11.7285C17.6779 11.8994 17.9099 11.9336 18.142 11.7773C18.2967 11.6845 18.3982 11.5722 18.49 11.3427C18.5867 11.0693 18.5384 9.79976 18.5142 9.04781L18.3112 7.99801C18.3112 7.98824 18.287 7.49996 18.2628 7.38765C18.2628 7.33883 18.2483 7.32418 18.2967 7.32906C18.3498 7.37789 18.3547 7.37789 18.3933 7.39254C18.4417 7.4023 18.49 7.30953 18.4562 7.2314L17.9728 6.3232C17.9341 6.28414 17.8809 6.24508 17.8181 6.33297C17.781 6.36687 17.7515 6.40835 17.7315 6.45465C17.7115 6.50094 17.7015 6.55101 17.7021 6.60152C17.7166 6.81636 17.7504 7.03609 17.7649 7.25093L17.9583 8.35445C18.0211 9.1357 18.0356 9.78023 18.0985 10.5664C18.0888 10.8984 17.9873 11.1865 17.8906 11.2304C17.8906 11.2304 17.7456 11.3134 17.6489 11.2207C17.5764 11.1914 17.2912 10.7373 17.2912 10.7373C17.1462 10.6054 17.0495 10.6396 16.948 10.7373C16.6579 11.0205 16.5322 11.538 16.3341 11.8994C16.2857 11.9824 16.1407 12.0459 15.986 11.8945C15.5896 11.3427 15.8217 10.5615 15.7733 10.7617ZM14.0621 6.18648C14.2458 6.25972 14.3715 6.6357 14.3328 6.82125C14.2941 7.04097 14.1974 7.28511 14.1298 7.25582C14.0524 7.22652 14.1781 7.03121 14.1056 6.82613C14.0669 6.68941 13.8155 6.44527 13.8446 6.37691C13.7962 6.22554 13.9509 6.15718 14.0621 6.1816V6.18648Z" fill="white"/>
<path fill-rule="evenodd" clip-rule="evenodd" d="M16.3629 10.9864C16.3967 10.5372 16.3339 10.2638 16.3242 10.0001C16.3145 9.73643 16.0293 7.72471 15.9713 7.5294C15.8988 7.14854 16.2469 7.48057 16.2082 7.25596C16.0873 6.98252 15.7925 6.57725 15.7006 6.33799C15.6426 6.24034 15.6668 6.14268 15.5411 6.31358C15.4329 6.61322 15.3948 6.9341 15.4299 7.25108C15.7296 8.82823 16.0342 10.1368 15.9858 11.6358C16.1308 11.6358 16.2904 11.3087 16.3629 10.9864ZM19.476 6.82139C19.6452 6.9044 19.7418 7.37315 19.7225 7.50498C19.6887 7.74913 19.6016 8.0128 19.5388 7.97862C19.4663 7.94932 19.5533 7.61729 19.5195 7.51475C19.4808 7.36827 19.2536 7.10459 19.2778 7.02647C19.2294 6.86045 19.3744 6.79209 19.476 6.82139ZM7.11546 10.1368C7.27498 10.2003 7.37166 10.5421 7.35716 10.6398C7.31849 10.8204 7.23631 11.0157 7.17347 10.9864C7.11063 10.9669 7.18797 10.7228 7.15897 10.6446C7.14447 10.464 6.9221 10.3663 6.92694 10.2882C6.88827 10.1417 7.02362 10.1173 7.1203 10.1368H7.11546Z" fill="white"/>
<path fill-rule="evenodd" clip-rule="evenodd" d="M10.9635 10.6543C11.1666 10.6641 11.2681 10.8301 11.0795 10.8984C10.8862 10.9619 10.7073 11.0156 10.7025 11.2891C10.775 11.6797 10.6058 11.543 10.5091 11.4941C10.3931 11.4062 10.0644 11.2012 10.0161 10.7617C10.0112 10.6592 10.0934 10.5664 10.2239 10.5664C10.4173 10.6201 10.7073 10.625 10.9635 10.6543Z" fill="#1B9D00"/>
<path fill-rule="evenodd" clip-rule="evenodd" d="M2.86661 6.07425C3.09864 6.14261 3.11314 6.49418 3.09864 6.59672C3.0648 6.78226 2.98263 6.98246 2.92462 6.95804C2.85694 6.93363 2.92462 6.67972 2.89078 6.6016C2.85694 6.49418 2.65875 6.2891 2.67809 6.2305C2.63458 6.10843 2.77477 6.04984 2.86661 6.07425ZM7.5024 7.71488C7.31871 7.81254 7.25104 8.1055 7.36222 8.28129C7.46856 8.42777 7.63292 8.37406 7.65226 8.37406C7.83111 8.39359 7.93746 8.03715 7.93746 8.03715C7.93746 8.03715 7.9423 7.93949 7.73443 8.12992C7.64259 8.14457 7.63775 8.11039 7.61358 8.06156C7.59145 7.9686 7.59994 7.87089 7.63775 7.78324C7.67159 7.69535 7.60392 7.65629 7.5024 7.71488ZM8.85592 5.93754C8.75924 6.00101 8.58038 6.19144 8.57555 6.40629C8.57071 6.52836 8.54654 6.52836 8.62389 6.6016C8.68673 6.68949 8.7399 6.68461 8.85592 6.62113C8.88483 6.60275 8.90964 6.5785 8.92877 6.54992C8.94791 6.52134 8.96097 6.48906 8.9671 6.45511C8.9961 6.31839 8.82208 6.52347 8.80274 6.36722C8.76407 6.22074 8.87525 6.16215 8.9816 6.02543C8.9816 5.92777 8.9816 5.86429 8.85108 5.93754H8.85592ZM9.93873 6.13285C9.89611 6.31065 9.87022 6.49212 9.86139 6.67484C9.83238 6.81156 10.0064 6.87015 10.0789 6.69437C10.1949 6.37699 10.1949 6.24027 10.2046 6.10843C10.1708 5.89847 10.0306 5.90336 9.93873 6.13285ZM16.803 9.66312C16.8223 9.63871 17.7698 8.96 17.7698 8.96C17.8665 8.92582 17.8423 9.31156 17.7988 9.30668C17.505 9.59272 17.167 9.82855 16.7982 10.0049C16.7498 10.0391 16.7063 9.74613 16.7982 9.66312H16.803ZM17.6586 9.65336C17.8278 9.73636 17.8955 10.2295 17.8761 10.3614C17.8761 10.625 17.7166 10.8301 17.6489 10.8008C17.5813 10.7666 17.6586 10.4737 17.6248 10.3711C17.5861 10.2246 17.4459 9.95609 17.4701 9.87797C17.4217 9.71195 17.5571 9.62406 17.6634 9.65336H17.6586ZM12.0512 11.7725C12.1296 11.68 12.2208 11.5995 12.3219 11.5332C12.4186 11.4844 12.5056 11.5723 12.5007 11.5674C12.5152 11.6651 12.4427 11.7481 12.4669 11.875C12.4862 11.9239 12.5007 11.9825 12.5926 11.9629C12.7424 11.8409 12.8826 11.8311 13.0276 11.8262C13.1485 11.8311 13.1533 12.0313 13.076 12.0313C12.8004 12.0899 12.6796 12.168 12.4814 12.2412C12.3847 12.2998 12.3074 12.2266 12.3074 12.2217C12.3074 12.2168 12.2542 12.168 12.288 12.0411C12.2977 11.9434 12.259 11.8848 12.172 11.8946C12.114 11.9336 12.056 11.9532 12.027 11.8799C12.0125 11.8311 12.0077 11.8018 12.0512 11.7725ZM18.6544 12.0362C18.6931 12.085 18.7221 12.1338 18.6496 12.2217L18.4707 12.378C18.4417 12.4268 18.4224 12.5147 18.5191 12.5391C18.6931 12.5879 19.0991 12.3194 19.0991 12.3145C19.1668 12.2657 19.1475 12.168 19.1378 12.168C19.0991 12.1241 19.0121 12.1534 18.9541 12.1436C18.9251 12.1436 18.8333 12.1338 18.8768 12.0459C18.9092 12.0028 18.9353 11.9551 18.9541 11.9043C18.9783 11.8457 18.9541 11.8067 18.8574 11.7725C18.7559 11.753 18.7124 11.7627 18.6012 11.7725C18.5432 11.7823 18.5239 11.8116 18.5094 11.8848C18.5142 11.9971 18.5819 11.9922 18.6544 12.0313V12.0362Z" fill="white"/>
<path fill-rule="evenodd" clip-rule="evenodd" d="M12.0849 9.26263C12.0608 9.31145 11.9738 9.31145 11.8916 9.26263C11.8094 9.2138 11.7611 9.13567 11.7901 9.09173C11.8191 9.04778 11.9013 9.04778 11.9834 9.09173C12.0656 9.13567 12.1091 9.21868 12.0849 9.26263ZM7.7827 6.64544C7.73436 6.66009 7.66669 6.61614 7.63768 6.54778C7.60868 6.47942 7.62318 6.42083 7.67152 6.40618C7.71986 6.39153 7.7827 6.44036 7.81654 6.50384C7.85038 6.56731 7.83104 6.63567 7.77787 6.65032L7.7827 6.64544Z" fill="#259F00"/>
<path fill-rule="evenodd" clip-rule="evenodd" d="M16.2952 18.3105C16.7496 18.3301 17.175 18.3105 17.6246 18.335C17.7067 18.4082 17.6487 18.5791 17.5956 18.5693L17.2185 18.5547C17.2137 18.4082 16.8463 18.4326 16.856 18.5596C16.6578 18.584 16.4789 18.5547 16.2759 18.5449C16.2179 18.4717 16.2275 18.3398 16.2952 18.3105Z" fill="#209000"/>
</g>
<defs>
<clipPath id="clip0_26_543">
<rect width="33" height="25" fill="white" transform="translate(-5)"/>
</clipPath>
</defs>
</svg>
