<svg width="24" height="24" viewBox="0 0 24 24" fill="none" xmlns="http://www.w3.org/2000/svg">
<g clip-path="url(#clip0_26_2408)">
<path fill-rule="evenodd" clip-rule="evenodd" d="M-0.000732422 0.0012207H32.0055V24.0012H-0.000732422V0.0012207Z" fill="white"/>
<path fill-rule="evenodd" clip-rule="evenodd" d="M3.50732 7.29004L6.83625 2.29822L7.66819 2.85309L4.33926 7.84491L3.50732 7.29004ZM4.75523 8.12234L8.08416 3.13052L8.91609 3.68539L5.58717 8.67721L4.75523 8.12234ZM6.00314 8.95465L9.33206 3.96282L10.164 4.51769L6.83508 9.50951L6.00314 8.95465Z" fill="black"/>
<path fill-rule="evenodd" clip-rule="evenodd" d="M3.50732 7.29004L6.83625 2.29822L7.66819 2.85309L4.33926 7.84491L3.50732 7.29004ZM4.75523 8.12234L8.08416 3.13052L8.91609 3.68539L5.58717 8.67721L4.75523 8.12234ZM6.00314 8.95465L9.33206 3.96282L10.164 4.51769L6.83508 9.50951L6.00314 8.95465Z" fill="black"/>
<path fill-rule="evenodd" clip-rule="evenodd" d="M23.0586 16.7234L27.2184 19.4976L23.0586 16.7234Z" fill="black"/>
<path d="M23.0586 16.7234L27.2184 19.4976" stroke="white" stroke-width="1.25"/>
<path fill-rule="evenodd" clip-rule="evenodd" d="M10.9954 8.67798C11.8783 7.35409 13.251 6.43517 14.8114 6.12336C16.3719 5.81155 17.9923 6.1324 19.3162 7.01532C20.64 7.89824 21.559 9.27092 21.8708 10.8314C22.1826 12.3918 21.8617 14.0122 20.9788 15.3361L10.9954 8.67798Z" fill="#CD2E3A"/>
<path fill-rule="evenodd" clip-rule="evenodd" d="M10.9953 8.6782C10.1124 10.0021 9.79156 11.6225 10.1034 13.1829C10.4152 14.7434 11.3341 16.1161 12.658 16.999C13.9819 17.8819 15.6023 18.2028 17.1627 17.891C18.7232 17.5791 20.0959 16.6602 20.9788 15.3363C21.4202 14.6744 21.5807 13.8642 21.4248 13.084C21.2689 12.3037 20.8094 11.6174 20.1475 11.1759C19.4855 10.7345 18.6753 10.574 17.8951 10.73C17.1149 10.8859 16.4285 11.3453 15.9871 12.0073L10.9953 8.6782Z" fill="#0047A0"/>
<path d="M15.9871 12.007C16.9064 10.6286 16.5342 8.76593 15.1557 7.84664C13.7773 6.92734 11.9146 7.29954 10.9953 8.67796C10.076 10.0564 10.4482 11.9191 11.8267 12.8384C13.2051 13.7577 15.0678 13.3855 15.9871 12.007Z" fill="#CD2E3A"/>
<path fill-rule="evenodd" clip-rule="evenodd" d="M6.84814 21.7195L3.51922 16.7277L4.35116 16.1728L7.68008 21.1646L6.84814 21.7195ZM8.09605 20.8872L4.76713 15.8954L5.59907 15.3405L8.92799 20.3323L8.09605 20.8872ZM9.34396 20.0549L6.01503 15.0631L6.84697 14.5082L10.1759 19.5L9.34396 20.0549Z" fill="black"/>
<path fill-rule="evenodd" clip-rule="evenodd" d="M6.84814 21.7195L3.51922 16.7277L4.35116 16.1728L7.68008 21.1646L6.84814 21.7195ZM8.09605 20.8872L4.76713 15.8954L5.59907 15.3405L8.92799 20.3323L8.09605 20.8872ZM9.34396 20.0549L6.01503 15.0631L6.84697 14.5082L10.1759 19.5L9.34396 20.0549Z" fill="black"/>
<path fill-rule="evenodd" clip-rule="evenodd" d="M6.22363 18.53L7.47156 17.6978L6.22363 18.53ZM23.0707 7.29443L24.5266 6.32345L23.0707 7.29443ZM25.7746 5.49118L27.0225 4.65891L25.7746 5.49118Z" fill="black"/>
<path d="M6.22363 18.53L7.47156 17.6978M23.0707 7.29443L24.5266 6.32345M25.7746 5.49118L27.0225 4.65891" stroke="white" stroke-width="1.25"/>
</g>
<defs>
<clipPath id="clip0_26_2408">
<rect width="32" height="24" fill="white"/>
</clipPath>
</defs>
</svg>
