<svg width="24" height="24" viewBox="0 0 24 24" fill="none" xmlns="http://www.w3.org/2000/svg">
<g clip-path="url(#clip0_26_974)">
<path fill-rule="evenodd" clip-rule="evenodd" d="M-6 0H30V24H-6V0Z" fill="#E70013"/>
<path fill-rule="evenodd" clip-rule="evenodd" d="M18.0843 11.9905C18.0843 13.5955 17.4468 15.1347 16.3119 16.2696C15.177 17.4045 13.6377 18.0421 12.0328 18.0421C10.4278 18.0421 8.88855 17.4045 7.75366 16.2696C6.61878 15.1347 5.9812 13.5955 5.9812 11.9905C5.9812 10.3856 6.61878 8.84631 7.75366 7.71143C8.88855 6.57654 10.4278 5.93896 12.0328 5.93896C13.6377 5.93896 15.177 6.57654 16.3119 7.71143C17.4468 8.84631 18.0843 10.3856 18.0843 11.9905Z" fill="white"/>
<path fill-rule="evenodd" clip-rule="evenodd" d="M12.0328 16.0031C10.9918 15.9675 10.0052 15.5289 9.28134 14.7799C8.55745 14.0308 8.15283 13.0299 8.15283 11.9882C8.15283 10.9466 8.55745 9.94563 9.28134 9.19658C10.0052 8.44754 10.9918 8.00897 12.0328 7.97339C12.5859 7.97339 13.2188 8.10464 13.6453 8.4187C10.7109 8.52651 9.96563 11.0203 9.96563 12.0234C9.96563 13.0265 10.4391 15.2625 13.6453 15.5953C13.2797 15.8296 12.5859 16.0031 12.0328 16.0031Z" fill="#E70013"/>
<path fill-rule="evenodd" clip-rule="evenodd" d="M15.5671 13.6781L13.7437 13.0125L12.539 14.5312L12.6093 12.5953L10.7905 11.9156L12.6562 11.3813L12.7358 9.44531L13.8233 11.0531L15.689 10.5375L14.4937 12.0609L15.5671 13.6781Z" fill="#E70013"/>
</g>
<defs>
<clipPath id="clip0_26_974">
<rect width="32" height="24" fill="white" transform="translate(-4)"/>
</clipPath>
</defs>
</svg>
