<svg width="24" height="24" viewBox="0 0 24 24" fill="none" xmlns="http://www.w3.org/2000/svg">
<g clip-path="url(#clip0_26_2352)">
<path d="M0 0H36V27H0V0Z" fill="white"/>
<path d="M14.9625 2.99805H36V6.0018H14.9625V2.99805ZM14.9625 8.99992H36V11.998H14.9625V8.99992ZM0 15.0018H36V17.9999H0V15.0018ZM0 20.998H36V24.0018H0V20.998Z" fill="#0038A8"/>
<path d="M7.15839 8.96481L7.65494 9.70627C5.61457 11.1828 6.86024 12.056 5.41431 12.5287C6.31363 11.651 5.2727 11.577 6.03041 9.74774" fill="#FCD116"/>
<path d="M7.15839 8.96481L7.65494 9.70627C5.61457 11.1828 6.86024 12.056 5.41431 12.5287C6.31363 11.651 5.2727 11.577 6.03041 9.74774" stroke="black" stroke-width="0.22" stroke-miterlimit="20" stroke-linecap="square"/>
<path d="M6.80343 9.17501C5.67769 11.0304 6.41598 12.0506 5.41429 12.5287" stroke="black" stroke-width="0.22" stroke-miterlimit="20"/>
<path d="M7.49806 7.49805H8.48805L7.49806 12.943L6.50806 7.49805H7.49806V12.943V7.49805Z" fill="#FCD116"/>
<path d="M7.49806 7.49805H8.48805L7.49806 12.943L6.50806 7.49805H7.49806ZM7.49806 7.49805V12.943" stroke="black" stroke-width="0.22" stroke-miterlimit="20"/>
<path d="M6.22067 8.29487L6.04749 9.17027C3.56063 8.77161 3.82403 10.2699 2.46739 9.58163C3.7239 9.59695 3.04016 8.8086 4.86944 8.05089" fill="#FCD116"/>
<path d="M6.22067 8.29487L6.04749 9.17027C3.56063 8.77161 3.82403 10.2699 2.46739 9.58163C3.7239 9.59695 3.04016 8.8086 4.86944 8.05089" stroke="black" stroke-width="0.22" stroke-miterlimit="20" stroke-linecap="square"/>
<path d="M5.821 8.19259C3.713 8.70856 3.51367 9.95199 2.46732 9.58172" stroke="black" stroke-width="0.22" stroke-miterlimit="20"/>
<path d="M7.49789 7.49789L8.19792 8.19792L3.64769 11.3481L6.79785 6.79785L7.49789 7.49789L3.64769 11.3481L7.49789 7.49789Z" fill="#FCD116"/>
<path d="M7.49789 7.49789L8.19792 8.19792L3.64769 11.3481L6.79785 6.79785L7.49789 7.49789ZM7.49789 7.49789L3.64769 11.3481" stroke="black" stroke-width="0.22" stroke-miterlimit="20"/>
<path d="M6.03129 7.15839L5.28983 7.65494C3.81325 5.61457 2.94008 6.86024 2.46744 5.41431C3.34509 6.31363 3.41907 5.2727 5.24835 6.03041" fill="#FCD116"/>
<path d="M6.03129 7.15839L5.28983 7.65494C3.81325 5.61457 2.94008 6.86024 2.46744 5.41431C3.34509 6.31363 3.41907 5.2727 5.24835 6.03041" stroke="black" stroke-width="0.22" stroke-miterlimit="20" stroke-linecap="square"/>
<path d="M5.82109 6.80343C3.96565 5.67769 2.94547 6.41598 2.46741 5.41429" stroke="black" stroke-width="0.22" stroke-miterlimit="20"/>
<path d="M7.49805 7.49806V8.48805L2.05305 7.49806L7.49805 6.50806V7.49806H2.05305H7.49805Z" fill="#FCD116"/>
<path d="M7.49805 7.49806V8.48805L2.05305 7.49806L7.49805 6.50806V7.49806ZM7.49805 7.49806H2.05305" stroke="black" stroke-width="0.22" stroke-miterlimit="20"/>
<path d="M6.70123 6.22067L5.82582 6.04749C6.22448 3.56063 4.72624 3.82403 5.41446 2.46739C5.39914 3.7239 6.1875 3.04016 6.94521 4.86944" fill="#FCD116"/>
<path d="M6.70123 6.22067L5.82582 6.04749C6.22448 3.56063 4.72624 3.82403 5.41446 2.46739C5.39914 3.7239 6.1875 3.04016 6.94521 4.86944" stroke="black" stroke-width="0.22" stroke-miterlimit="20" stroke-linecap="square"/>
<path d="M6.80351 5.821C6.28753 3.713 5.0441 3.51367 5.41437 2.46732" stroke="black" stroke-width="0.22" stroke-miterlimit="20"/>
<path d="M7.49821 7.49789L6.79817 8.19792L3.64802 3.64769L8.19824 6.79785L7.49821 7.49789L3.64802 3.64769L7.49821 7.49789Z" fill="#FCD116"/>
<path d="M7.49821 7.49789L6.79817 8.19792L3.64802 3.64769L8.19824 6.79785L7.49821 7.49789ZM7.49821 7.49789L3.64802 3.64769" stroke="black" stroke-width="0.22" stroke-miterlimit="20"/>
<path d="M7.8377 6.03129L7.34115 5.28983C9.38152 3.81325 8.13585 2.94008 9.58179 2.46744C8.68247 3.34509 9.72339 3.41907 8.96568 5.24835" fill="#FCD116"/>
<path d="M7.8377 6.03129L7.34115 5.28983C9.38152 3.81325 8.13585 2.94008 9.58179 2.46744C8.68247 3.34509 9.72339 3.41907 8.96568 5.24835" stroke="black" stroke-width="0.22" stroke-miterlimit="20" stroke-linecap="square"/>
<path d="M8.19267 5.82109C9.3184 3.96565 8.58011 2.94547 9.58181 2.46741" stroke="black" stroke-width="0.22" stroke-miterlimit="20"/>
<path d="M7.49804 7.49805H6.50804L7.49804 2.05305L8.48804 7.49805H7.49804V2.05305V7.49805Z" fill="#FCD116"/>
<path d="M7.49804 7.49805H6.50804L7.49804 2.05305L8.48804 7.49805H7.49804ZM7.49804 7.49805V2.05305" stroke="black" stroke-width="0.22" stroke-miterlimit="20"/>
<path d="M8.77543 6.70123L8.94861 5.82582C11.4355 6.22448 11.1721 4.72624 12.5287 5.41446C11.2722 5.39914 11.9559 6.1875 10.1266 6.94521" fill="#FCD116"/>
<path d="M8.77543 6.70123L8.94861 5.82582C11.4355 6.22448 11.1721 4.72624 12.5287 5.41446C11.2722 5.39914 11.9559 6.1875 10.1266 6.94521" stroke="black" stroke-width="0.22" stroke-miterlimit="20" stroke-linecap="square"/>
<path d="M9.17509 6.80351C11.2831 6.28753 11.4824 5.0441 12.5288 5.41437" stroke="black" stroke-width="0.22" stroke-miterlimit="20"/>
<path d="M7.49821 7.49821L6.79817 6.79817L11.3484 3.64802L8.19824 8.19824L7.49821 7.49821L11.3484 3.64802L7.49821 7.49821Z" fill="#FCD116"/>
<path d="M7.49821 7.49821L6.79817 6.79817L11.3484 3.64802L8.19824 8.19824L7.49821 7.49821ZM7.49821 7.49821L11.3484 3.64802" stroke="black" stroke-width="0.22" stroke-miterlimit="20"/>
<path d="M8.96481 7.8377L9.70627 7.34115C11.1828 9.38152 12.056 8.13585 12.5287 9.58179C11.651 8.68247 11.577 9.72339 9.74774 8.96568" fill="#FCD116"/>
<path d="M8.96481 7.8377L9.70627 7.34115C11.1828 9.38152 12.056 8.13585 12.5287 9.58179C11.651 8.68247 11.577 9.72339 9.74774 8.96568" stroke="black" stroke-width="0.22" stroke-miterlimit="20" stroke-linecap="square"/>
<path d="M9.17501 8.19267C11.0304 9.3184 12.0506 8.58011 12.5287 9.58181" stroke="black" stroke-width="0.22" stroke-miterlimit="20"/>
<path d="M7.49805 7.49804V6.50804L12.943 7.49804L7.49805 8.48804V7.49804H12.943H7.49805Z" fill="#FCD116"/>
<path d="M7.49805 7.49804V6.50804L12.943 7.49804L7.49805 8.48804V7.49804ZM7.49805 7.49804H12.943" stroke="black" stroke-width="0.22" stroke-miterlimit="20"/>
<path d="M8.29487 8.77543L9.17027 8.94861C8.77161 11.4355 10.2699 11.1721 9.58163 12.5287C9.59695 11.2722 8.8086 11.9559 8.05089 10.1266" fill="#FCD116"/>
<path d="M8.29487 8.77543L9.17027 8.94861C8.77161 11.4355 10.2699 11.1721 9.58163 12.5287C9.59695 11.2722 8.8086 11.9559 8.05089 10.1266" stroke="black" stroke-width="0.22" stroke-miterlimit="20" stroke-linecap="square"/>
<path d="M8.19259 9.17509C8.70856 11.2831 9.95199 11.4824 9.58172 12.5288" stroke="black" stroke-width="0.22" stroke-miterlimit="20"/>
<path d="M7.49789 7.49821L8.19792 6.79817L11.3481 11.3484L6.79785 8.19824L7.49789 7.49821L11.3481 11.3484L7.49789 7.49821Z" fill="#FCD116"/>
<path d="M7.49789 7.49821L8.19792 6.79817L11.3481 11.3484L6.79785 8.19824L7.49789 7.49821ZM7.49789 7.49821L11.3481 11.3484" stroke="black" stroke-width="0.22" stroke-miterlimit="20"/>
<path d="M7.4981 9.3131C8.5005 9.3131 9.3131 8.5005 9.3131 7.4981C9.3131 6.49571 8.5005 5.68311 7.4981 5.68311C6.49571 5.68311 5.68311 6.49571 5.68311 7.4981C5.68311 8.5005 6.49571 9.3131 7.4981 9.3131Z" fill="#FCD116" stroke="black" stroke-width="0.22" stroke-miterlimit="20"/>
<path d="M8.83455 6.77223C8.71905 6.90423 8.65305 6.67323 8.24056 6.67323C7.82806 6.67323 7.76206 6.92073 7.69606 6.87123C7.63007 6.82173 8.04256 6.52473 8.17456 6.50823C8.30656 6.49173 8.68605 6.62373 8.83455 6.77223ZM8.35606 6.92073C8.47156 7.01973 8.37256 7.23423 8.25706 7.23423C8.14156 7.23423 7.92706 7.03623 8.02606 6.90423" fill="black"/>
<path d="M7.81152 7.06913C7.82802 6.87113 7.99302 6.83813 8.25702 6.83813C8.52102 6.83813 8.63651 7.03613 8.73551 7.08563C8.62001 7.08563 8.52102 6.92063 8.25702 6.92063C7.99302 6.92063 7.99302 6.92063 7.81152 7.08563M7.86102 7.11863C7.92702 7.01963 8.00952 7.21763 8.19102 7.21763C8.37252 7.21763 8.47152 7.16813 8.58701 7.08563C8.70251 7.00313 8.42202 7.28363 8.24052 7.28363C8.05902 7.28363 7.81152 7.18463 7.86102 7.11863Z" fill="black"/>
<path d="M8.42202 7.21779C8.63651 7.10229 8.50451 6.9373 8.42202 6.9043C8.45502 6.9373 8.58701 7.10229 8.42202 7.21779ZM7.49803 8.20778C7.59703 8.20778 7.63002 8.17478 7.76202 8.17478C7.89402 8.17478 8.20752 8.35628 8.38902 8.29028C8.00952 8.43878 8.15802 8.33978 7.49803 8.33978H7.41553M8.45502 8.43878C8.38902 8.32328 8.40552 8.35628 8.27352 8.17478C8.40552 8.27378 8.43852 8.32328 8.45502 8.43878ZM7.49803 8.60378C7.91052 8.60378 7.84452 8.52128 8.38902 8.29028C7.99302 8.33978 7.91052 8.47178 7.49803 8.47178H7.41553M7.49803 7.99328C7.61353 7.99328 7.64652 7.91079 7.77852 7.91079C7.91052 7.91079 8.09202 7.96028 8.17452 8.02628C8.19102 8.04278 8.12502 7.89429 7.99302 7.87779C7.86102 7.86129 7.91052 7.64679 7.76202 7.61379C7.76202 7.67979 7.81152 7.66329 7.82802 7.76229C7.82802 7.84479 7.67952 7.84479 7.64652 7.76229C7.67952 7.89429 7.58053 7.89429 7.49803 7.89429" fill="black"/>
<path d="M6.16154 6.77223C6.27704 6.90423 6.34304 6.67323 6.75554 6.67323C7.16803 6.67323 7.23403 6.92073 7.30003 6.87123C7.36603 6.82173 6.95353 6.52473 6.82153 6.50823C6.68954 6.49173 6.31004 6.62373 6.16154 6.77223ZM6.64004 6.92073C6.52454 7.01973 6.62354 7.23423 6.73904 7.23423C6.85453 7.23423 7.06903 7.03623 6.97003 6.90423" fill="black"/>
<path d="M7.18457 7.06913C7.16807 6.87113 7.00307 6.83813 6.73908 6.83813C6.47508 6.83813 6.35958 7.03613 6.26058 7.08563C6.37608 7.08563 6.47508 6.92063 6.73908 6.92063C7.00307 6.92063 7.00307 6.92063 7.18457 7.08563M7.13507 7.11863C7.06907 7.01963 6.98657 7.21763 6.80507 7.21763C6.62358 7.21763 6.52458 7.16813 6.40908 7.08563C6.29358 7.00313 6.57408 7.28363 6.75558 7.28363C6.93707 7.28363 7.18457 7.18463 7.13507 7.11863Z" fill="black"/>
<path d="M6.57408 7.21779C6.35958 7.10229 6.49158 6.9373 6.57408 6.9043C6.54108 6.9373 6.40908 7.10229 6.57408 7.21779ZM7.49807 8.20778C7.39907 8.20778 7.36607 8.17478 7.23407 8.17478C7.10207 8.17478 6.78858 8.35628 6.60708 8.29028C6.98657 8.43878 6.83807 8.33978 7.49807 8.33978H7.58057M6.54108 8.43878C6.60708 8.32328 6.59058 8.35628 6.72258 8.17478C6.59058 8.27378 6.55758 8.32328 6.54108 8.43878ZM7.49807 8.60378C7.08557 8.60378 7.15157 8.52128 6.60708 8.29028C7.00307 8.33978 7.08557 8.47178 7.49807 8.47178H7.58057M7.49807 7.99328C7.38257 7.99328 7.34957 7.91079 7.21757 7.91079C7.08557 7.91079 6.90407 7.96028 6.82158 8.02628C6.80508 8.04278 6.87107 7.89429 7.00307 7.87779C7.13507 7.86129 7.08557 7.64679 7.23407 7.61379C7.23407 7.67979 7.18457 7.66329 7.16807 7.76229C7.16807 7.84479 7.31657 7.84479 7.34957 7.76229C7.31657 7.89429 7.41557 7.89429 7.49807 7.89429" fill="black"/>
<path d="M7.49801 8.7522C7.41551 8.7522 7.20102 8.8017 7.49801 8.8017C7.79501 8.8017 7.58051 8.7522 7.49801 8.7522Z" fill="black"/>
</g>
<defs>
<clipPath id="clip0_26_2352">
<rect width="36" height="27" fill="white"/>
</clipPath>
</defs>
</svg>
