<svg width="24" height="24" viewBox="0 0 24 24" fill="none" xmlns="http://www.w3.org/2000/svg">
<g clip-path="url(#clip0_26_476)">
<path d="M-2 12H31V24H-2V12Z" fill="#00AB39"/>
<path d="M-2 0H31V12H-2V0Z" fill="white"/>
<path d="M19.6047 3.54004H19.5995H19.6047ZM19.5995 3.54004C17.5572 4.60587 15.6265 5.86178 13.8349 7.29004C12.9583 8.03504 13.2058 8.62504 13.1697 9.29004C13.2006 9.74004 13.0717 10.16 12.7881 10.41L10.8391 10.79L10.6534 10.27C10.7102 10 10.937 9.87004 11.4217 10.035C11.4578 9.69504 11.1691 9.55504 10.8391 9.43504C10.7205 9.34504 10.5813 9.28504 10.5967 8.98504C10.5452 8.31004 11.6589 9.03504 11.6692 9.03504C11.6795 9.03504 11.628 8.35004 11.1175 8.21504C10.8391 8.12004 10.7205 7.83504 10.8288 7.62504C11.0505 7.19004 11.4733 7.65504 11.793 7.67504C11.7827 7.39004 11.7002 7.19004 11.4475 6.96504C11.3134 6.88004 10.9834 6.82004 10.9731 6.68504C10.968 6.50504 11.2825 6.42504 11.7208 6.47504C11.628 6.22004 11.3341 6.05504 10.9319 5.93504L10.6947 5.53004C10.5813 5.33004 10.5297 5.32004 10.7927 4.94004C11.0247 4.79004 11.3392 4.58004 11.5764 4.43504L11.3186 4.40504C11.3495 4.13004 11.3547 4.03504 11.4217 3.58004C11.1639 3.91504 10.8545 3.85504 10.5658 3.99004C10.5658 3.99004 9.76142 4.13004 9.49845 4.46504L7.46688 4.36504C7.03376 4.42004 6.66767 4.54004 6.59548 4.94504C5.61063 5.04504 4.57938 4.96004 3.82657 5.87004C4.3422 5.85004 4.78563 5.73004 5.36313 5.80004C5.36313 5.80004 5.85298 5.81004 5.95095 6.31504C5.96126 6.33504 6.1211 6.33504 6.1211 6.33504L6.30673 6.47504L6.37892 6.28504L6.54392 6.39504L6.59548 6.18504L6.76048 6.29504L6.77079 6.04504L6.98735 6.19504V5.86004C6.98735 5.86004 7.79173 5.86004 8.03923 6.36004C8.04954 6.36504 5.78595 6.76004 3.5997 6.57504L4.22876 6.27504C3.4347 6.11504 2.68188 5.97504 1.98063 5.44004C2.2436 6.41004 3.61517 7.54504 3.89876 7.54004L3.63063 7.07004L6.00251 7.17004C6.09017 7.42504 6.05407 7.71004 6.26032 7.93504C6.26032 7.93504 6.13142 8.35504 6.42532 8.52504C6.43563 8.54504 6.77079 7.67504 6.77079 7.67504C6.77079 7.67504 6.87392 7.91004 6.97704 8.06504C7.13173 7.31504 7.97735 7.19004 7.97735 7.19004L8.15267 7.59004C7.8897 7.63004 7.5597 8.15004 7.74017 8.44004C7.5597 8.44004 7.24517 8.94504 7.34313 9.22004C7.1936 9.36504 6.82751 9.55504 6.91517 10.16C6.62642 10.22 6.4511 10.735 6.54392 11.285C6.09017 11.69 6.2036 12.435 6.60579 12.74C6.44079 12.89 6.33767 12.995 6.33767 13.175C6.17782 13.12 6.02829 13.165 5.96126 13.265C5.76532 13.07 5.48688 12.905 5.29095 13.085C5.23938 12.855 4.93001 12.605 4.59485 12.635C4.60863 12.4911 4.56966 12.347 4.4848 12.2282C4.39993 12.1093 4.27459 12.0232 4.13079 11.985C4.13079 11.985 4.05345 10.855 3.70282 10.485C3.66673 10.285 3.72345 10.145 4.0122 9.97504C4.3061 9.82504 4.36798 9.71004 4.3422 9.28004C4.46079 8.99504 4.54845 8.70504 4.18751 8.51004C4.19782 8.85004 4.0947 9.01004 3.95032 9.16004C3.78017 9.14004 3.72345 9.33004 3.61001 9.41004C3.45017 9.20504 3.94517 8.88004 3.57907 8.41504C3.55845 8.39504 3.32126 7.81504 2.7386 7.82504C3.01188 7.98004 3.13048 8.24504 3.13048 8.52004C2.91557 8.98087 2.88255 9.50216 3.03767 9.98504C2.79532 9.63504 2.6561 8.96504 2.45501 8.85004C2.2797 8.81504 2.1972 8.41504 1.51142 8.53004C1.80532 8.60504 1.90329 8.82504 1.97548 9.02004C1.80017 9.11004 1.88782 9.35004 2.02188 9.51504C1.9961 9.90004 2.23329 10.125 2.58907 10.265L2.41376 11.85C2.27454 11.835 2.05282 12.37 1.97032 12.385C1.8311 12.47 1.58876 12.695 1.8672 12.76C1.7847 13.045 1.70735 13.22 1.26392 13.28C1.26392 13.28 1.72798 13.55 2.11985 13.09C2.53235 13.08 2.39829 12.6 2.59938 12.39C2.59938 12.375 2.71798 12.305 2.88298 11.88C2.95517 12.26 3.35735 13.42 4.2597 13.995C5.0486 14.815 5.70345 15.59 5.69313 16.68C5.99607 16.357 6.2137 15.9675 6.32735 15.545C6.84179 15.3954 7.37932 15.3345 7.91548 15.365C7.82267 15.56 7.71438 15.745 7.84845 15.865C7.46688 15.995 7.38438 16.265 7.53907 16.53C7.13688 16.795 7.1111 16.965 7.10595 17.405C6.35829 18.33 5.89938 18.3 5.16204 18.055C4.92485 17.92 4.54329 17.725 4.37313 17.83C4.0586 17.62 3.5997 17.59 3.52235 18.06C3.7647 17.865 3.90392 17.905 4.0947 18.09C4.0586 18.185 4.02767 18.275 4.16688 18.33L3.98126 18.53C3.64095 18.48 3.17688 18.48 3.05829 18.965C3.2336 18.82 3.62548 18.79 3.93485 18.925L4.11532 18.985L4.13595 19.215C4.13595 19.215 3.67188 19.145 3.54813 19.88C3.98126 19.43 4.29063 19.545 4.29063 19.545C4.46079 19.785 5.07954 19.75 5.52813 19.355C6.15204 19.015 6.33767 19.505 6.73985 19.185C7.07501 18.945 7.47204 19.105 7.74532 19.385C8.05985 19.5 8.38985 19.595 8.64767 19.385C8.64767 19.385 8.96735 19.19 9.28188 19.505C9.28188 19.155 9.02407 18.96 8.67345 18.955L8.57032 18.855C8.23517 18.785 7.86392 18.815 7.57001 18.655C7.68399 18.1503 7.93499 17.6842 8.29704 17.305C8.77657 16.805 9.13235 16.575 9.74079 15.81C9.71501 16.245 10.0553 16.725 10.2358 17.16C10.2358 17.16 10.5967 16.605 10.6483 16.145C10.6638 16.145 11.1072 15.925 11.2928 15.73C11.695 15.975 12.3447 15.54 12.7675 15.18C13.0253 15.28 13.2264 15.27 13.5255 15.18C13.2831 15.66 13.6647 16.105 14.2731 16.29C14.3247 16.71 14.7681 16.8 15.4333 16.8C15.4642 17.05 15.8613 17.085 15.8613 17.085C15.6034 17.195 15.4797 17.31 15.4849 17.565C15.227 17.565 15.0363 17.63 14.9692 17.915C14.6134 17.925 14.2525 17.95 13.9483 18.115C13.6234 18.07 13.2264 17.94 12.9738 17.685C12.8449 17.58 12.8088 17.425 12.5819 17.365C12.4375 17.2 12.2622 17.235 12.2055 17.395C12.0559 17.28 11.4939 17.23 11.3959 17.745C11.6641 17.56 11.8961 17.49 12.0663 17.72C11.9734 17.875 12.2828 17.97 12.5509 18.03C12.7417 18.04 13.0769 18.21 13.18 18.49C13.0354 18.5306 12.8834 18.54 12.7346 18.5176C12.5858 18.4951 12.444 18.4413 12.3189 18.36C12.2261 18.285 12.1111 18.2407 11.9905 18.2335C11.87 18.2263 11.7502 18.2566 11.6486 18.32C11.4217 18.18 10.8906 18.445 10.87 18.865C11.0917 18.665 11.298 18.565 11.5042 18.695C11.4011 18.715 11.4372 18.725 11.4527 18.785L11.9683 19.075C11.7105 19.14 11.4733 19.24 11.5867 19.7C11.5867 19.7 11.793 19.3 12.257 19.45C12.2674 19.435 12.3241 19.59 12.4581 19.485C12.6592 19.265 13.1181 19.165 13.5255 19.125C13.8503 19.09 14.1752 18.995 14.4536 19.175C14.7114 19.05 14.9899 18.965 15.2786 19.165C15.6189 19.265 15.8664 19.655 16.2944 19.48C16.5109 19.33 16.7739 19.33 17.042 19.62C17.042 19.25 16.7584 19.125 16.3563 19.045L16.0778 18.885C15.82 18.845 15.5622 18.89 15.2992 18.77C15.9158 18.6267 16.4965 18.3653 17.0074 18.0012C17.5184 17.6371 17.9491 17.1778 18.2744 16.65L18.9189 16.87C19.0736 16.88 19.0839 16.93 19.3984 17.02C19.4088 16.575 19.2077 16.115 18.3775 16.07L17.2947 15.67C17.0575 15.43 16.9544 14.925 17.2483 14.63C17.537 14.38 17.5886 14.41 17.7794 14.105C18.0114 14.085 18.228 14.315 18.4394 14.315C18.5425 14.61 19.1303 14.865 19.5016 14.78C19.7336 14.98 20.1719 15.09 20.6617 14.93C20.8013 15.0563 20.9772 15.1383 21.1661 15.1651C21.3549 15.1919 21.5477 15.1622 21.7188 15.08C21.8322 15.19 22.0694 15.28 22.3375 15.22C22.3633 15.22 22.4819 15.51 22.7758 15.615C22.6469 15.735 22.7242 16.265 22.8634 16.46C22.7637 16.6579 22.7471 16.8855 22.817 17.095C22.518 17.28 22.4561 17.42 22.5902 17.735C22.1983 18.35 21.7291 18.42 21.2856 18.235L20.8061 17.935L20.3008 17.455C20.2131 17.375 20.0327 17.355 19.9966 17.525C19.9966 17.525 19.3469 17.385 19.2902 17.92C19.5634 17.665 19.945 17.89 19.945 17.9C19.945 17.91 19.8522 17.97 19.9244 18.07C19.9399 18.055 20.4039 18.235 20.8113 18.405C21.033 18.49 21.0845 18.515 21.1825 18.565C21.0594 18.5103 20.9356 18.457 20.8113 18.405C20.6323 18.325 20.4404 18.276 20.2441 18.26C20.0172 18.24 19.7697 18.21 19.6563 18.38C19.4088 18.48 19.0169 18.565 19.0375 19.015C19.2025 18.745 19.4345 18.76 19.7284 18.785L19.7078 18.845C20.0275 18.985 19.9656 18.805 20.2647 18.78C20.5332 18.7761 20.8003 18.8184 21.0536 18.905C20.8216 18.97 20.5019 18.94 20.3524 19.105C20.3214 19.155 20.2234 19.135 20.2699 19.265C20.2699 19.265 19.8058 19.255 19.6872 19.865C20.1513 19.58 20.507 19.59 20.5122 19.59L20.6617 19.62L21.2289 19.255C21.2444 19.255 21.7755 19.025 22.0178 19.285C22.2344 19.385 22.4613 19.395 22.6881 19.265C23.1213 19.08 23.5286 19.065 23.9256 19.325L24.2917 19.535L24.4464 19.435C24.4464 19.435 24.8589 19.325 25.158 19.68C25.0342 19.065 24.5805 19.045 24.5805 19.045L24.4774 18.955L23.838 18.71C23.74 18.485 23.508 18.31 23.74 18.04C23.9824 16.885 24.2659 16.02 23.8019 14.85C24.235 15.03 24.5599 15.59 25.1013 15.395C25.1013 14.925 23.3172 14.03 21.9559 13.315C24.1938 13.2 26.875 11.605 25.8438 9.57504L26.3284 8.10504C26.5605 8.55504 27.0245 8.89504 27.4422 9.04004C27.0967 8.40504 26.9008 6.46004 27.0967 5.12004C26.1846 6.18187 25.201 7.18406 24.1525 8.12004C24.6681 8.24004 25.127 8.15504 25.6272 8.09504L25.2044 8.94504C23.8328 8.16004 22.2241 8.74504 22.2138 9.78504C22.2602 10.995 23.8019 11.17 24.6939 10.745C24.5186 11.85 21.8992 11.445 21.8992 11.445C20.9711 11.135 20.0894 11.185 19.1149 11.195C19.3159 10.59 20.44 10.05 21.3011 10.29C20.0997 8.98004 21.4713 7.35504 23.1264 6.86004C21.3217 6.28004 22.8738 4.94504 24.2247 3.99004C24.2247 3.99004 20.342 5.57504 19.9863 5.57004C18.8828 5.49004 19.1819 4.22004 19.6047 3.54004H19.5995ZM7.41017 5.06004C7.50298 5.06004 7.6061 5.07004 7.69376 5.09004C7.86907 5.13504 8.08048 5.15504 8.08048 5.21004C7.99798 5.34004 7.79688 5.49504 7.60095 5.49004C7.40501 5.48004 7.29157 5.36504 7.2297 5.08004C7.25032 5.07004 7.32251 5.06004 7.41017 5.06004ZM23.7555 9.53004C24.0133 9.53004 24.3175 9.63004 24.6114 9.94004C24.4722 10.34 23.2295 10.54 23.147 9.95004C23.1213 9.77004 23.3842 9.53504 23.7555 9.53004Z" fill="#D21034" stroke="black" stroke-width="0.175"/>
<path d="M8.6941 8.55995L8.88488 8.82495M8.87456 8.82995C8.87456 8.82995 8.87456 9.18995 8.95191 9.19495M8.78175 9.38995L8.97769 9.70495M8.43628 9.78495C8.4466 9.78495 8.67863 10.045 8.67863 10.045M8.87972 9.84495C8.87972 9.85495 9.09628 10.25 9.11175 10.25M8.59613 10.12C8.59613 10.12 8.66832 10.6 8.73535 10.585M8.27128 11L8.48785 11.325M8.67863 10.66C8.67863 10.66 8.79722 11.115 8.89003 11.075M8.988 10.385C8.99316 10.395 9.20972 10.69 9.26644 10.65M9.21488 10.765L9.42113 11.165M8.87456 11.075L9.04472 11.545M8.47753 11.315C8.47753 11.315 8.63222 11.82 8.77144 11.74M8.42082 11.99C8.42082 11.99 8.43113 12.255 8.56519 12.27M8.658 11.855C8.658 11.865 8.79722 12.045 8.79722 12.045M9.05503 11.54L9.16332 11.715M9.41597 11.215L9.58613 11.42M8.62191 8.83495C8.62707 9.05995 8.99316 8.75495 9.13753 8.56495M8.46722 9.61495C8.46722 9.61495 8.86425 9.33995 9.17363 8.92495M8.33316 10.27C8.61675 10.195 9.13753 9.58495 9.24066 9.25995M8.27644 10.875C8.35378 10.91 9.32316 10.225 9.34894 9.72995M8.25066 11.4C8.25066 11.395 9.13753 11.18 9.50363 10.235M8.20941 12.115C8.20941 12.115 9.62738 11.29 9.70472 10.685M19.2644 13.5C19.2644 13.5 19.1716 14.21 18.4394 14.32M19.4964 14.77C19.5016 14.76 20.1977 14.02 20.0172 13.795M21.1052 14.055C21.1052 14.055 21.0949 14.57 20.6618 14.925M21.9714 14.205C21.9714 14.205 21.9869 14.825 21.7136 15.075M22.7655 14.575C22.7655 14.575 22.4561 15.16 22.3478 15.22M22.7552 15.61C22.7552 15.61 23.1574 15.71 23.2863 15.45M22.8583 16.455C22.8583 16.455 23.2296 16.52 23.4049 16.175M22.8171 17.11C22.8171 17.11 23.1213 17.36 23.3275 17.03M18.4807 12.31C18.4807 12.31 18.4446 13.575 20.275 13.83C22.3221 14.38 23.2914 14.0899 23.41 16.3149C23.3327 17.1649 23.2244 18.115 22.585 17.75M16.5316 13.475C16.5316 13.475 16.8255 13.98 17.1761 13.945C17.6402 13.815 17.8103 14.0899 17.8103 14.0899M15.2838 13.98C15.2838 13.98 16.0572 14.345 16.7121 13.755M15.3714 13.455C15.4385 14.33 14.335 14.83 13.8968 14.745M15.423 16.795C15.4282 16.795 16.0211 16.4549 15.9025 16.2149M14.2474 16.2899C14.2628 16.2699 15.2425 16.1799 15.423 15.8399M13.7936 14.8899C13.7936 14.8899 15.1807 14.9 15.2735 15.145M15.6344 14.095C15.6344 14.095 14.2835 16.3399 16.7791 16.3399M14.201 14.0649C14.201 14.0649 13.9122 14.9 13.4997 15.185M12.7675 13.775C12.7675 13.775 13.2677 14.715 12.7675 15.18M11.4578 14.0399C11.463 14.0549 11.6177 15.375 11.2774 15.75M10.803 14.08C10.803 14.08 10.8546 14.92 10.5968 15.22C10.3389 15.52 10.6586 16.1399 10.6586 16.1399M7.5391 16.5399C7.5391 16.5399 7.72472 16.855 7.97738 16.745M7.84847 15.855C7.84847 15.855 8.26097 16.0299 8.40019 15.9649M8.29707 14.445C8.29707 14.445 7.68863 14.61 7.92066 15.31C8.27128 15.585 8.6116 15.5399 8.6116 15.5399M7.09566 17.41C7.0905 17.41 7.16785 17.96 7.55972 17.545C7.833 16.985 8.6941 15.415 8.89519 14.875M9.29738 14.62C9.29738 14.62 8.87972 14.305 8.89519 14.745C8.88488 15.02 9.0241 15.085 9.0241 15.085C9.03957 15.285 9.22003 15.565 9.36441 15.31C9.42628 15.06 9.32316 14.95 9.32316 14.95M9.5655 14.5C9.1891 14.48 8.98285 15.285 9.70988 14.78M9.95738 14.23C9.95738 14.23 9.86457 14.355 9.71503 14.22C9.63769 14.09 9.36441 14.82 9.84394 14.845C9.9316 14.63 10.1946 14.57 10.1946 14.57M10.4214 13.88C10.4214 13.88 10.2049 13.9799 10.1275 13.9649C9.86972 14.0199 9.92128 14.605 10.2461 14.57C10.3596 14.445 10.4782 14.27 10.4782 14.27M8.40019 13.12C8.38988 13.12 7.54941 14.405 8.86941 14.745M19.0788 11.195C19.0788 11.195 18.5632 11.615 19.0427 12.295C17.4443 12.27 16.5935 12.9849 16.5264 13.4649C14.4949 13.3249 14.8661 13.905 14.2061 14.095C13.3244 13.38 12.0302 13.78 12.1127 14.495C11.5249 13.69 10.6174 14.08 10.5039 14.28C10.3957 14.48 10.4369 13.2899 10.4369 13.2899C10.4369 13.2899 9.84394 13.55 9.4366 14.02V13.025C8.9416 13.125 8.46207 13.1249 7.9516 13.1149M6.61613 12.75C6.61613 12.75 7.35347 13.15 8.26613 12.61M6.55941 11.315C6.55941 11.315 7.1266 11.815 8.20941 11.655M6.92035 10.17C6.92035 10.17 7.0441 10.575 8.27644 10.6M7.33285 9.22995C7.33285 9.22995 7.79691 9.77995 8.42597 9.69495M7.72988 8.44495C7.72988 8.44495 7.91035 8.74495 8.59613 8.79495M8.13207 7.56995C8.13207 7.56995 8.493 7.94995 8.9055 7.88495M10.2719 4.46495C10.2719 4.46495 10.4318 4.31495 10.6999 4.38995M10.1585 5.27995C10.1585 5.27995 9.66347 5.26495 9.69441 5.07995C9.73566 4.85995 10.2203 4.70495 10.2203 4.70495C10.2203 4.70495 10.8649 4.30495 10.9628 4.16495M8.04441 6.36495L8.67347 7.52995L8.97253 7.08995L9.12722 7.38995L9.38503 6.95495L9.82847 7.22995L9.66347 6.69495L10.0347 6.66995C10.0347 6.66995 9.9316 6.41495 9.6016 6.35995C9.68925 6.29495 9.99863 6.09495 9.99863 6.09495C9.99863 6.09495 9.82331 5.89495 9.54488 5.88995C9.63769 5.79495 9.76144 5.56495 9.75113 5.56495L9.47785 5.50495C9.47785 5.50495 10.1069 5.70495 10.5916 5.42495M9.39535 4.48495C9.4005 4.48995 9.35925 4.72495 9.22519 4.85995M6.97191 5.12495C6.97191 5.12495 7.35863 5.02495 7.64738 5.07995C7.93613 5.13995 8.32285 5.23995 8.32285 5.23995C8.32285 5.23995 8.78691 5.17995 8.93644 5.07495M6.00769 5.37495C6.00769 5.37495 5.95613 5.55495 5.9355 5.67495C5.9355 5.75995 5.65191 5.87495 5.65191 5.87495M6.183 5.00495C6.183 5.00495 6.4305 5.30495 6.44082 5.47995C6.44597 5.64995 6.25519 5.77995 6.25519 5.77995M3.62035 7.04995L3.36253 6.64995L3.59457 6.56995M8.26097 12.62C8.05472 12.36 8.41566 8.40995 9.17363 7.37995C8.91066 9.23995 9.79238 11.14 10.0141 11.13M5.94066 6.27995C5.94066 6.27995 6.29128 6.40495 7.008 5.84995M7.98253 7.18995L8.49816 7.19495M23.9824 4.09495C23.9824 4.09495 15.3869 7.98495 15.2632 8.19495C16.7121 7.76495 22.8686 6.76995 23.0182 6.85495C22.6572 6.93995 15.1858 8.60495 14.8352 9.00495C16.7018 8.94495 20.605 9.58495 21.2186 10.205C19.8883 9.91495 15.9232 9.34995 14.7063 9.59995C15.5932 9.80495 18.9963 11.94 18.9963 12.28C18.4807 11.805 14.3918 10.17 14.2319 10.33C15.1703 10.875 16.4955 12.9 16.4955 13.395C16.2222 12.975 13.8555 10.51 13.7163 10.67C13.9689 11.005 14.4639 13.915 14.2113 14.05C14.2113 13.7 13.2935 11.15 13.2161 11.08C13.0305 11.13 11.86 14.18 12.0921 14.47C11.9374 13.45 12.1178 11.32 12.4014 11.405C11.8858 11.48 10.2513 13.575 10.4266 13.905C10.4782 13.38 10.5503 13.035 11.4785 11.3C10.4472 11.36 8.32285 12.655 7.96191 13.12C8.25066 12.295 10.0502 10.9 10.8391 10.8M14.5516 7.76495C15.4591 7.27495 18.2641 6.27995 20.141 5.54495M12.7882 10.395C12.7882 10.395 13.4069 10.385 14.0257 8.75495C14.6341 6.52495 19.4758 4.03995 19.5738 3.57495M4.60003 12.64C4.60003 12.64 4.45566 12.94 4.28035 13.02M5.29613 13.0899C5.29613 13.0899 5.10535 13.45 5.05894 13.62M5.96128 13.27C5.96128 13.27 6.11597 13.7599 5.98706 13.9899M4.11019 11.985C3.6255 12.25 4.38863 13.935 6.69347 14.095M6.32222 13.185C6.32222 13.185 6.26035 13.485 6.69347 14.085C6.56972 14.755 7.21941 15.2799 7.47722 15.3649M6.1366 7.15495L6.20878 6.97495L6.28613 7.17495L6.41503 7.16995L6.49753 6.96995L6.56972 7.16995H6.69347L6.77082 6.94995L6.88941 7.15995H6.99253L7.06988 6.90995L7.22456 7.08995L7.28644 7.06995L7.338 6.80995L7.49785 6.98995L7.54941 6.96495L7.6216 6.71495L7.7505 6.89995L7.81753 6.87995L7.87941 6.66495L8.00316 6.86495M5.99222 7.17495L6.9616 7.15995C7.27097 7.15995 7.77628 6.74495 8.33832 6.87495M3.96066 9.17495C3.96066 9.17495 4.1205 9.51495 4.34222 9.32495M3.58941 9.39995C3.58941 9.39995 3.28003 10.21 3.65128 10.4M3.14597 8.50995C3.14597 8.50995 3.14597 8.69995 3.55847 8.40995M1.88269 12.745C1.88269 12.745 2.20753 12.845 2.15597 13.08M2.00128 9.03995C2.00128 9.03995 2.20753 9.13495 2.40347 8.83995M4.16691 18.325C4.48144 18.305 4.55363 18.4449 4.83722 18.4449C5.17753 18.4549 5.50238 18.325 5.92003 18.21M8.658 18.96C8.64769 18.96 8.50332 19.2499 8.63222 19.3949M4.1205 18.985C4.1205 18.985 4.62582 18.585 4.89394 18.83C5.1466 18.915 5.28582 18.9 5.28582 18.9M4.38347 17.835C4.38347 17.835 4.50722 18.145 4.09472 18.1M3.97097 18.55C3.97097 18.55 4.23394 18.71 3.93488 18.925M4.13082 19.2149C4.13082 19.2149 4.49175 19.265 4.28035 19.55M15.49 17.555C15.8561 17.84 15.7066 18.01 16.8616 17.26M14.9641 17.91C14.9641 17.91 15.5055 18.4799 15.9025 17.7899M13.9277 18.1149L13.1903 18.4899M11.8703 19.0149C11.8703 19.0149 12.3189 18.6449 12.5252 18.8399C12.7366 19.0399 13.6235 18.6699 13.6235 18.6699M12.2055 17.4C12.2055 17.4 12.3602 17.7 12.0611 17.735M11.6228 18.33C11.6228 18.33 11.7775 18.61 11.4785 18.68M11.9683 19.085C11.9683 19.085 12.4324 19.11 12.2674 19.45M16.3099 19.025C16.3099 19.025 16.0521 19.235 16.2428 19.475M20.0069 17.525C20.0069 17.525 20.3008 17.665 19.9502 17.9M19.6563 18.3949C19.6563 18.3949 19.878 18.62 19.7285 18.805M20.275 19.255C20.275 19.255 20.5793 19.34 20.5432 19.585M24.5547 19.035C24.5547 19.035 24.2969 19.22 24.4361 19.455M20.0172 11.815C20.6257 11.745 21.5022 13.065 21.9508 13.32M24.6269 9.94995C24.6269 9.94995 24.9363 10.215 24.663 10.85M25.1993 8.93995C25.2869 9.00495 25.6169 9.17995 25.8386 9.57995M26.05 6.96995L25.6221 8.09495M26.5296 6.91495C26.5296 6.91495 26.4471 7.91495 26.3233 8.11495M15.8407 17.08C15.8407 17.08 16.8203 17.18 16.8719 17.25C16.9853 17.135 17.8619 16.44 16.7843 16.345C16.7346 16.5522 16.6146 16.7374 16.4435 16.8706C16.2724 17.0039 16.0601 17.0776 15.8407 17.08V17.08ZM24.6063 9.93995C24.4671 10.34 23.2244 10.54 23.1419 9.94995C23.0955 9.64995 23.8741 9.18495 24.6063 9.93995Z" stroke="black" stroke-width="0.175" stroke-linejoin="round"/>
<path d="M7.3999 5.06494L7.87943 5.14994C7.87943 5.14994 7.54428 5.58994 7.3999 5.06494Z" fill="black" stroke="black" stroke-width="0.175" stroke-linejoin="round"/>
</g>
<defs>
<clipPath id="clip0_26_476">
<rect width="33" height="24" fill="white" transform="translate(-2)"/>
</clipPath>
</defs>
</svg>
